<svg xmlns="http://www.w3.org/2000/svg" width="86.055" height="86" viewBox="0 0 86.055 86"><defs><clipPath id="a"><path fill="none" d="M0 0h86.055v86H0z"/></clipPath></defs><g clip-path="url(#a)"><path d="M12.573 45.306A16.68 16.68 0 1 1 33.3 27.772h15.735A19.418 19.418 0 0 1 65.556.025 19.456 19.456 0 0 1 85.32 24.738a19.42 19.42 0 0 1-11.813 12.871l.133 32.74 5.4 13.9A1.327 1.327 0 0 1 77.983 86H8.078a1.325 1.325 0 0 1-1.054-1.742L12.4 70.345Z"/><path fill="#d8e0e5" d="M15.123 15.391A13.859 13.859 0 1 1 2.926 30.859a13.85 13.85 0 0 1 12.2-15.468"/><path d="M18.253 40.244h-3.136a2.357 2.357 0 0 1-2.353-2.606l-1.753-1a2.45 2.45 0 0 1-3.632-.776l-1.37-2.267a2.362 2.362 0 0 1 1.061-3.5l-.006-1.872a2.288 2.288 0 0 1-1.172-3.279l1.5-2.487a2.44 2.44 0 0 1 3.622-.786l1.759-1a2.355 2.355 0 0 1 2.349-2.611l2.961-.01a2.406 2.406 0 0 1 2.528 2.622l1.755 1a2.446 2.446 0 0 1 3.629.778l1.431 2.379a2.325 2.325 0 0 1-1.118 3.388v1.873a2.287 2.287 0 0 1 1.169 3.27l-1.56 2.6a2.4 2.4 0 0 1-3.554.679l-1.757 1a2.352 2.352 0 0 1-2.353 2.6"/><path fill="#7082a5" d="m17.865 37.441-2.346.023c-.023-2.244-1.734-2.194-2.861-3.064a2.6 2.6 0 0 0-3.02-.156c-.393-.666-.693-1.192-1.107-1.787a2.43 2.43 0 0 0 1.319-2.713c-.218-1.234.7-2.715-1.311-3.889a21 21 0 0 0 1.1-1.775 2.66 2.66 0 0 0 3.026-.162c1.122-.869 2.874-.852 2.863-3.068h2.333c.012 2.165 1.625 2.148 2.964 3.13a2.49 2.49 0 0 0 2.859.1l1.151 1.782a2.45 2.45 0 0 0-1.319 2.535c.22 1.487-.644 2.853 1.32 4.064l-1.1 1.782c-2.03-1.113-2.8.31-4.6.988a2.37 2.37 0 0 0-1.263 2.214"/><path d="M15.813 24.394a4.846 4.846 0 1 1-3.874 5.778 4.817 4.817 0 0 1 3.872-5.778"/><path fill="#d8e0e5" d="M16.16 27.156a2.07 2.07 0 1 1-1.441 2.66 2.06 2.06 0 0 1 1.442-2.659"/><path fill="#e5edf2" d="M70.579 19.397a6.25 6.25 0 1 0-7.89.03 5.57 5.57 0 0 0-5.788 5.564l-.015 7.938a16.636 16.636 0 1 1 19.432 0l-.017-7.934a5.606 5.606 0 0 0-5.722-5.6"/><path fill="#66cbbd" d="M73.549 34.546a16.43 16.43 0 0 1-13.856.045l-.021-9.595a2.76 2.76 0 0 1 2.764-2.771h8.336a2.777 2.777 0 0 1 2.769 2.768Z"/><path fill="#fedaab" d="M65.895 11.216a3.457 3.457 0 1 1-2.654 4.222 3.44 3.44 0 0 1 2.654-4.222"/><path fill="#7bb1f7" d="m68.047 38.821.347.122-.077 25.042a3.006 3.006 0 0 1-2.977 2.948h-19.9c-.356.013-.472-.141-.4-.5l.462-.427a13.507 13.507 0 1 0-5.069-.02l.454.432c.287.339.092.518-.327.517l-25.04-.081-.212-.348-.013-20.775A16.64 16.64 0 0 0 33.249 30.54h17.444a19.41 19.41 0 0 0 17.354 8.281"/><path fill="#6f9edd" d="m15.307 66.511 25.279.081c.222 0 .321-.066.3-.171a3.04 3.04 0 0 1 1.94-.179 4.03 4.03 0 0 1 2.213.2.6.6 0 0 0 .427.157h19.746a2.706 2.706 0 0 0 2.762-2.62l.077-25.157 2.717-.41-.007 30.957h-55.44Z"/><path fill="#63758b" d="m67.52 72.152.435.167 2.461 6.478a1.7 1.7 0 0 1-1.44 1.983l-56.974.025c-.427.03-.508-.175-.378-.574l3.214-8.085Z"/><path fill="#516073" d="M11.624 80.234c.012.149.078.227.26.227H68.64a1.383 1.383 0 0 0 1.368-1.85l-2.488-6.459 3.714.011 4.377 11.068-65.164.007Z"/><path d="M45.04 66.438a13.6 13.6 0 0 1-4.153-.016 13.875 13.875 0 1 1 4.153.016"/><path fill="#fee56d" d="M41.639 41.733a11.086 11.086 0 1 1-9.6 12.521 11.07 11.07 0 0 1 9.6-12.521"/><path d="M44.424 61.048h-2.772l-.028-1.417a4.3 4.3 0 0 1-4.141-4.119h2.763a1.69 1.69 0 0 0 1.738 1.383l2.6-.016a1.388 1.388 0 0 0 0-2.753h-2.613a4.32 4.32 0 0 1-4.448-4.01 4.21 4.21 0 0 1 4.083-4.29l.05-1.418h2.751l.032 1.416a4.3 4.3 0 0 1 4.141 4.123l-2.763-.008a1.634 1.634 0 0 0-1.566-1.367l-2.773.006a1.3 1.3 0 0 0-1.213 1.3 1.32 1.32 0 0 0 1.207 1.451h2.622a4.32 4.32 0 0 1 4.447 4.173 4.217 4.217 0 0 1-4.08 4.125Z"/></g></svg>