<svg xmlns="http://www.w3.org/2000/svg" width="86.124" height="86" viewBox="0 0 86.124 86"><defs><clipPath id="a"><path fill="none" d="M0 0h86.124v86H0z"/></clipPath></defs><g clip-path="url(#a)"><path d="M63.139 8.453a37.49 37.49 0 0 0-42.389.037c-.386.263-.9-.216-1.058-.459s-.4-.885.018-1.177A39.25 39.25 0 0 1 38.795 0l6.288.011a38.7 38.7 0 0 1 19.343 6.964.981.981 0 0 1-1.287 1.479m-52.35 50.95c.333.524-.231 1.039-.51 1.2a.94.94 0 0 1-1.227-.308 39.4 39.4 0 0 1-6.227-19.382 1 1 0 0 1 .572-1.057.97.97 0 0 1 1.165.227c.443.62.274 1.242.331 1.96a37.8 37.8 0 0 0 5.9 17.36M73.86 60.69c-1.6-.549-.054-2.175.987-4.124a37.8 37.8 0 0 0 4.313-15.472c.035-.542.043-.863.465-1.15a.97.97 0 0 1 1.122-.005c.43.331.421.723.388 1.268a39.5 39.5 0 0 1-5.948 18.7c-.339.543-.682 1-1.327.778M33.245 24.838c1.587.058 2.455 4.732-.078 7.895a7.08 7.08 0 0 1-6.714 2.628l-8.816 8.708c-1.605 1.585-4.264 1-5.593-.464a4.07 4.07 0 0 1-.053-5.732l2.3-2.375-13.666-.03c-.513 0-.631-.69-.625-1.122a13.13 13.13 0 0 1 9.071-12.328l-1.641-1.77a6.936 6.936 0 1 1 9.82 1.723 13.4 13.4 0 0 1 4.325 2.388 7.08 7.08 0 0 1 9.008-2.6c.516.25.427 1.179.106 1.5l-4.54 4.532L28 29.679l4.441-4.448a1.2 1.2 0 0 1 .8-.4"/><path fill="#60b6fe" d="m20.558 29.345-4.271 4.242-14.329.008a11.275 11.275 0 0 1 18.792-7.416 7.4 7.4 0 0 0-.19 3.166"/><path fill="#ebeef0" d="M32.742 27.754a4.91 4.91 0 0 1-1.6 4.347c-2.46 2.344-4.856.736-5.747 1.624l-8.691 8.668a2.306 2.306 0 0 1-3.167-3.351l8.586-8.592c.886-.886-.735-3.14 1.523-5.664a5.04 5.04 0 0 1 4.532-1.717l-3.343 3.349a1.955 1.955 0 0 0-.024 2.808l1.77 1.775a1.975 1.975 0 0 0 2.839 0Z"/><path fill="#f0cabb" d="M12.196 11.461a5 5 0 0 1 5.912 3.947 5.023 5.023 0 0 1-9.838 2.028 4.987 4.987 0 0 1 3.926-5.973"/><path d="M50.77 85.964 33.542 86a.926.926 0 0 1-.954-.96v-9.334l-7.087-.024a3.77 3.77 0 0 1-2.133-.877l-9.515-6.854c-1.41-1.789-1.533-3.992-.053-5.551a4.08 4.08 0 0 1 5.478-.518l8.075 5.785 9.784-.016a7.073 7.073 0 0 1 8.45-11.232 7.133 7.133 0 0 1 1.27 11.2l9.8.042 7.97-5.739a4.25 4.25 0 0 1 2.963-.827 3.83 3.83 0 0 1 3.452 2.834 3.88 3.88 0 0 1-1.394 4.34l-8.865 6.442a4.4 4.4 0 0 1-2.205.968l-7.1.033.013 8.8c0 .4-.109 1.334-.722 1.461"/><path fill="#fc4755" d="M50.633 73.765c-.6 0-1.132.316-1.134.874l-.03 9.46H34.504v-9.341a.93.93 0 0 0-.974-.978l-8.322-.039-9.684-6.961a2.122 2.122 0 0 1 2.485-3.438l8.624 6.153h30.772l8.5-6.12a2.124 2.124 0 0 1 2.6 3.358l-9.1 6.587a2.13 2.13 0 0 1-1.2.451Z"/><path fill="#f0cabb" d="M40.998 57.473a5.1 5.1 0 0 1 6.039 4.052 5.134 5.134 0 0 1-10.034 2.168 5.1 5.1 0 0 1 3.995-6.22"/><path d="M69.868 47.65h-18a.745.745 0 0 1-.764-.776V28.763a1.26 1.26 0 0 1 1.133-.76l9.25-.008a13.38 13.38 0 0 1 7.368-6.039 6.934 6.934 0 1 1 9.685-1.5l-1.481 1.567a13.12 13.12 0 0 1 9.063 12.509.872.872 0 0 1-.973.968l-14.401-.021v11.209a.916.916 0 0 1-.881.961"/><path fill="#00e398" d="M70.68 29.231a1.014 1.014 0 0 0-1.047-1.122l-5.911-.049a11.268 11.268 0 0 1 20.446 5.533h-13.47Z"/><path fill="#f0cabb" d="M72.055 11.448a4.99 4.99 0 0 1 5.843 4.056 5.017 5.017 0 0 1-9.836 1.966 4.96 4.96 0 0 1 3.993-6.022"/><path fill="#ebeef0" d="m68.793 45.763-15.818.022V29.976h15.816Z"/><path fill="#010101" d="m65.766 38.804-9.6.019a.942.942 0 1 1-.016-1.879l9.536.011a.917.917 0 0 1 .927.873.906.906 0 0 1-.852.977m.027 4.179-9.631.021a.942.942 0 1 1 .014-1.879l9.492.01a.94.94 0 0 1 .951.814.9.9 0 0 1-.826 1.035"/><path d="M65.701 34.616h-9.545a.928.928 0 1 1 0-1.852l9.545.009a.873.873 0 0 1 .917.909.9.9 0 0 1-.915.929"/></g></svg>