<svg xmlns="http://www.w3.org/2000/svg" width="85.953" height="86" viewBox="0 0 85.953 86"><defs><clipPath id="a"><path fill="none" d="M0 0h85.953v86H0z"/></clipPath></defs><g clip-path="url(#a)" transform="translate(0 .001)"><path d="m82.673 61.191 1.835.042a1.424 1.424 0 0 1 1.445 1.45l-.043 6.679a1.29 1.29 0 0 1-.888.873l-2.307.06a19.3 19.3 0 0 1-1.727 4.281l1.388 1.438a1.234 1.234 0 0 1-.007 1.7l-4.687 4.688a1.235 1.235 0 0 1-1.706.007l-1.436-1.388a19.3 19.3 0 0 1-4.282 1.727l-.058 2.316a1.29 1.29 0 0 1-.871.88l-6.5.056c-.818.007-1.6-.425-1.611-1.295l-.026-1.934-2.134-.75-.013 2.191c0 .524-.382 1.685-1.127 1.75l-56.248.027A1.465 1.465 0 0 1 0 84.311l.022-75.19c0-.678 1.148-1.1 1.646-1.1l12.046-.037.06-1.97a1.44 1.44 0 0 1 1.058-1.055l8.382-.035A6.5 6.5 0 0 1 27.135.439a6.436 6.436 0 0 1 8.608 4.475h7.959a1.406 1.406 0 0 1 1.45 1.446l.008 1.624 12.215.044a1.66 1.66 0 0 1 1.649 1.471l.025 40.019 1.8-.6V27.749l-.72-.7.023-23.905A2.43 2.43 0 0 1 62.475.799h6.69c1.723 0 2.387 2.576 2.365 2.558.235.182 2.822-.1 2.823 1.407l.022 19.06c0 .678-.767 1.041-1.184 1.125a1.49 1.49 0 0 1-1.618-.768c-.161 1.4.176 2.389-.764 3.671l-.038 21.125a15 15 0 0 1 3.7 1.6l1.343-1.3a1.6 1.6 0 0 1 2.042.012l4.667 4.7c.693.7-.439 2.106-1.545 3.111a15.5 15.5 0 0 1 1.7 4.086M42.251 14.813v-6.96h-7.769a1.46 1.46 0 0 1-1.543-1.385 3.476 3.476 0 0 0-6.951-.112 1.427 1.427 0 0 1-1.429 1.488l-7.9.01v6.959Zm26.243 10.145-.01-21.286h-5.47v21.327Zm2.838-1.071c.064.018.17-.054.17-.1L71.488 6.53c-.065-.018-.17.052-.17.1Zm-67 55.99V13.986a1.417 1.417 0 0 1 1.443-1.52l7.932-.012a3.2 3.2 0 0 0 0-1.445l-10.824.006.017 72.063 53.044.015a1.36 1.36 0 0 0-.031-1.119 1.54 1.54 0 0 1-1.415.666 2.02 2.02 0 0 1-1.361-.988l-47.32-.012c-1.016 0-1.485-.669-1.485-1.764M54.585 48.89a3.56 3.56 0 0 1 1.442.659l.009-38.536H45.175l-.01 1.444h7.926a1.44 1.44 0 0 1 1.5 1.511ZM48.9 61.184a15.5 15.5 0 0 1 1.7-4.123l-1.156-1.2a1.5 1.5 0 0 1-.115-2.171l2.371-2.404V15.352l-6.616.023c.251.845-.044 2.284-1.113 2.287l-28.929.05c-1.044-.251-1.47-1.091-1.2-2.311l-6.615-.049.007 63.4h42.89c-.885-.849-1.466-1.46-1.12-2.461l1.6-1.779a16 16 0 0 1-1.732-4.185l-1.758-.028a1.5 1.5 0 0 1-1.542-1.509v-6.066a1.445 1.445 0 0 1 1.4-1.434 6.8 6.8 0 0 0 1.926-.107m18.864-3.984V27.91h-4v29.313Zm5.922 20.862a1.6 1.6 0 0 1 2.2.123l.975.951 2.244-2.27-1.05-1.046a1.5 1.5 0 0 1-.1-1.984 14.2 14.2 0 0 0 2.147-5.236 1.48 1.48 0 0 1 1.5-1.207l1.446-.011v-3.2h-1.463a1.45 1.45 0 0 1-1.456-1.1 15.3 15.3 0 0 0-2.266-5.487 1.44 1.44 0 0 1 .222-1.842l1.037-1.053-2.273-2.288-1.137 1.138c-1.209 1.207-2.834-.968-5.083-1.512l.019 3.962a10.959 10.959 0 1 1-9.8.007l.019-3.987c-2.4.722-3.842 2.772-5.208 1.416l-1.019-1.012-2.254 2.253 1.1 1.121a1.47 1.47 0 0 1 .14 1.844 14.5 14.5 0 0 0-2.219 5.346 1.41 1.41 0 0 1-1.385 1.182l-1.553.047-.015 3.166 1.556.024c1.931.031 1.125 2.9 3.456 6.278.386.558.706 1.327.188 1.867l-1.273 1.329 2.293 2.262 1.039-1.016a1.445 1.445 0 0 1 1.845-.223 15.2 15.2 0 0 0 5.486 2.265 1.45 1.45 0 0 1 1.1 1.457v1.467h3.205l.009-1.265c.018-2.471 2.7-1.217 6.326-3.766m-6.621-11.61a1.325 1.325 0 0 1-1.255.787c-.456 0-.97-.035-1.216-.533l-2.145-4.346-1.536-3a8.045 8.045 0 1 0 9.631.02l-2.08 4.237Zm-.206-6.276-2.23-.015 1.162 2.24Z"/><path fill="#54c3cb" d="m67.763 57.196-4.006.027V27.908h4Z"/><path fill="#b37316" d="m68.495 24.959-5.482.044V3.673h5.471Z"/><path fill="#2f2f2f" d="m71.333 23.888-.015-17.255c0-.051.106-.121.17-.1l.016 17.25c0 .052-.106.122-.17.1"/><path fill="#feb129" d="M73.686 78.058c-3.629 2.549-6.308 1.294-6.326 3.765l-.009 1.266h-3.205v-1.465a1.45 1.45 0 0 0-1.1-1.456 15.2 15.2 0 0 1-5.485-2.266 1.446 1.446 0 0 0-1.846.224l-1.039 1.015-2.292-2.262 1.273-1.329c.517-.54.2-1.308-.189-1.867-2.337-3.373-1.527-6.247-3.459-6.273l-1.556-.024.015-3.166 1.552-.047a1.41 1.41 0 0 0 1.386-1.184 14.45 14.45 0 0 1 2.218-5.345 1.464 1.464 0 0 0-.14-1.844l-1.1-1.121 2.254-2.254 1.02 1.012c1.366 1.356 2.806-.694 5.208-1.415l-.019 3.986a10.961 10.961 0 1 0 9.8-.006l-.018-3.96c2.248.545 3.872 2.72 5.083 1.512l1.136-1.144 2.273 2.288-1.031 1.045a1.44 1.44 0 0 0-.221 1.842 15.3 15.3 0 0 1 2.262 5.492 1.45 1.45 0 0 0 1.455 1.1h1.463v3.2l-1.447.011a1.48 1.48 0 0 0-1.5 1.207 14.2 14.2 0 0 1-2.15 5.232 1.5 1.5 0 0 0 .1 1.984l1.052 1.043-2.243 2.279-.974-.953a1.6 1.6 0 0 0-2.2-.122"/><path fill="#d4e8fa" d="m66.858 60.171-1.068 2.225-1.162-2.24Z"/><path fill="#3d8d94" d="M42.251 14.812H16.664V7.856l7.9-.011a1.427 1.427 0 0 0 1.429-1.487 3.476 3.476 0 0 1 6.951.112 1.46 1.46 0 0 0 1.543 1.384h7.769Z"/><path fill="#54c3cb" d="M4.337 79.877c0 1.095.468 1.764 1.485 1.764l47.32.012a2.02 2.02 0 0 0 1.362.989 1.55 1.55 0 0 0 1.414-.666 1.36 1.36 0 0 1 .031 1.119l-53.043-.017-.014-72.061 10.824-.007a3.2 3.2 0 0 1 0 1.445l-7.932.013a1.416 1.416 0 0 0-1.444 1.518Z"/><path fill="#53c2ca" d="M54.585 48.89V13.968a1.44 1.44 0 0 0-1.5-1.51h-7.926l.01-1.444H56.03l-.009 38.537a3.5 3.5 0 0 0-1.442-.66"/><path fill="#d7ebfd" d="M48.904 61.183a6.8 6.8 0 0 1-1.926.107 1.445 1.445 0 0 0-1.4 1.434v6.066a1.5 1.5 0 0 0 1.542 1.509l1.754.023a16 16 0 0 0 1.732 4.185l-1.6 1.78c-.346 1 .235 1.611 1.12 2.46H7.236l-.007-63.4 6.615.048c-.27 1.221.156 2.062 1.2 2.311l28.929-.05c1.069 0 1.363-1.442 1.113-2.287l6.616-.022V51.28l-2.372 2.407a1.5 1.5 0 0 0 .115 2.171l1.156 1.2a15.5 15.5 0 0 0-1.692 4.123"/><path d="M21.042 66.368h-8.036a1.44 1.44 0 0 1-1.389-1.367l.007-7.869a1.476 1.476 0 0 1 1.561-1.466h7.587a1.48 1.48 0 0 1 1.549 1.468l.008 7.863a1.48 1.48 0 0 1-1.288 1.372"/><path fill="#010101" d="M45.772 31.558a1.446 1.446 0 1 1 .047 2.889H30.564a1.451 1.451 0 1 1 .141-2.894Z"/><path fill="#000101" d="m45.773 48.497-15.247-.013a1.413 1.413 0 0 1-1.423-1.4 1.45 1.45 0 0 1 1.46-1.47h15.255a1.453 1.453 0 0 1 1.473 1.314 1.434 1.434 0 0 1-1.518 1.576"/><path d="M38.192 62.468h-7.661a1.45 1.45 0 0 1-1.417-1.334 1.4 1.4 0 0 1 1.4-1.539h7.774a1.41 1.41 0 0 1 1.354 1.4 1.435 1.435 0 0 1-1.45 1.473m-8.638-18.139-7.818 7.758a1.32 1.32 0 0 1-.962.315h-7.586a1.533 1.533 0 0 1-1.583-1.634l.035-7.719a1.434 1.434 0 0 1 1.538-1.359l7.6.01a1.41 1.41 0 0 1 1.534 1.374l.076 4.335 5.284-5.266a1.426 1.426 0 0 1 2.1.058 1.49 1.49 0 0 1-.212 2.124"/><path fill="#53c1c9" d="M17.957 46.002a1.43 1.43 0 0 0-2.038.037 1.46 1.46 0 0 0 .084 2.092l1.343 1.349-2.846.028v-4.9l4.918-.02V47.4Z"/><path fill="#53c3cb" d="m19.442 63.459-4.919.027-.023-4.923h4.939Z"/><path d="m29.773 30.102-7.865 7.9a1.4 1.4 0 0 1-1 .43h-7.871a1.41 1.41 0 0 1-1.415-1.4v-7.887a1.42 1.42 0 0 1 1.416-1.414l7.871-.01a1.44 1.44 0 0 1 1.413 1.424l.072 4.232 5.319-5.255a1.41 1.41 0 0 1 1.924-.009 1.39 1.39 0 0 1 .136 1.989"/><path fill="#52c0c8" d="M18.142 32.185a1.553 1.553 0 0 0-2.157-.189 1.513 1.513 0 0 0 .048 2.211l1.295 1.333-2.809-.011v-4.908h4.911l.014 2.807Z"/></g></svg>