<svg xmlns="http://www.w3.org/2000/svg" width="86.086" height="86" viewBox="0 0 86.086 86"><defs><clipPath id="a"><path fill="none" d="M0 0h86.086v86H0z"/></clipPath></defs><g clip-path="url(#a)"><path d="M.015 72.09 0 42.452l5.558-8.344-.015-7.111a4.56 4.56 0 0 1 .841-2.132L16.61 14.674a2.95 2.95 0 0 1 1.974-.828l16.77-.028a4.28 4.28 0 0 1 3.5 3.5l-.007 16.788 5.553 8.346-.008 29.638Z"/><path fill="#d29f6c" d="m39.819 69.306-35.268.013 12.678-13.858h9.949Z"/><path fill="#deb18a" d="M41.6 67.085 29.817 54.268l11.807-8.582ZM14.58 54.256 2.786 67.131 2.78 45.686Z"/><path fill="#cd9d75" d="m41.11 42.592-2.251 1.649.017-4.968ZM5.545 44.226l-2.254-1.633 2.221-3.3Z"/><path d="m13.885 66.536-2.78.009v-2.779h2.774Zm5.548 0-2.78.009v-2.779h2.772Zm5.549 0-2.78.009v-2.779h2.772ZM41.63 19.371h11.081v2.777H41.63zm5.547 47.166h8.312v2.777h-8.312zm-.004-23.58 5.543-.006.003 2.777-5.543.006z"/><path fill="#b3dc7e" d="m15.27 24.926-4.946-.033 6.3-6.275.029 4.924a1.4 1.4 0 0 1-1.383 1.384"/><path fill="#e5e8ec" d="m17.186 52.695-8.86-6.414V27.698h6.769a4.2 4.2 0 0 0 4.332-4.153v-6.947h15.25a1.38 1.38 0 0 1 1.4 1.413v28.267l-8.74 6.371Z"/><path d="M11.117 30.47h22.166v2.776H11.117zm0 11.098h22.166v2.776H11.117zm-.002-5.55h16.622v2.777H11.115zM22.209 24.92H33.29v2.777H22.209zM16.66 47.115h11.081v2.777H16.66zm5.549-27.744H33.29v2.777H22.209zm11.096 19.415-2.78.007V36.02h2.771Zm52.66-21.857a15.309 15.309 0 0 1-30.424 0V13.5A15.35 15.35 0 0 1 69.036 0h3.433a15.35 15.35 0 0 1 13.5 13.5Z"/><path fill="#e5e8ec" d="M75.445 17.543a6.931 6.931 0 1 0-9.347 0 12.2 12.2 0 0 0-5.7 4.631 12.478 12.478 0 1 1 20.71-.002 12.43 12.43 0 0 0-5.663-4.627"/><path fill="#fbd670" d="M79.21 24.34a12.364 12.364 0 0 1-16.912.015 9.676 9.676 0 0 1 16.912-.015"/><path fill="#efcfb3" d="M69.888 8.377a4.154 4.154 0 1 1-3.172 5.062 4.14 4.14 0 0 1 3.172-5.062"/><path d="m61.105 54.851-.085-3.56-1.915-.02a3.95 3.95 0 0 1-3.567-3.626v-6.62a3.74 3.74 0 0 1 3.422-3.554l6.355-.118a27.5 27.5 0 0 0 12.445-3.682 4.154 4.154 0 0 1 4.375-3.223 4 4 0 0 1 3.834 3.669l.048 20.74a4.23 4.23 0 0 1-4.08 3.377 4.18 4.18 0 0 1-4.21-3.3l-2.821-1.376a4.01 4.01 0 0 1-3.348 4.549l-7.035.032a3.83 3.83 0 0 1-3.419-3.292m22.135-.9V34.638a1.385 1.385 0 1 0-2.77 0v19.4a1.388 1.388 0 1 0 2.774-.088m-5.562-2.264.012-14.722a30.5 30.5 0 0 1-11.1 3.09v8.586a31.2 31.2 0 0 1 11.086 3.05m-19.4-5.956v1.394a1.363 1.363 0 0 0 1.375 1.374h4.168v-8.317l-4-.015a1.425 1.425 0 0 0-1.55 1.4l.01 1.387 2.76.006v2.769Zm13.827 8.447.011-1.658a30.4 30.4 0 0 0-8.3-1.215l.045 2.913a1.45 1.45 0 0 0 1.188 1.183h5.86a1.46 1.46 0 0 0 1.2-1.225"/><path fill="#cbd0d8" d="M77.674 51.69a31.2 31.2 0 0 0-11.086-3.05v-8.585a30.5 30.5 0 0 0 11.1-3.091Z"/><path fill="#fe816e" d="M83.24 53.954a1.388 1.388 0 1 1-2.774.088v-19.4a1.385 1.385 0 1 1 2.77 0Zm-24.966-8.22 2.767-.006v-2.769H58.28l-.01-1.387a1.427 1.427 0 0 1 1.55-1.4l4 .016v8.317h-4.171a1.363 1.363 0 0 1-1.375-1.374Z"/><path d="M79.027 83.422a2.88 2.88 0 0 1-2.247 2.442 3.14 3.14 0 0 1-3.463-1.081l-3.289-4.348-4.66-.074a5.74 5.74 0 0 1-4.984-3.975l-2.085-8.41c-.788-3.18 2.717-6.934 5.232-6.933H80.74c2.569 0 6.039 3.8 5.217 7.079l-2.059 8.263c-.545 2.184-2.641 3.517-4.743 3.963Z"/><path fill="#fee9a6" d="M76.311 82.58a.51.51 0 0 1-.338.539.46.46 0 0 1-.512-.136l-4.017-5.337-5.368-.038a3.47 3.47 0 0 1-3.27-2.778l-1.681-6.8a3.42 3.42 0 0 1 .826-3.073 3.7 3.7 0 0 1 2.916-1.21h14.546a3.7 3.7 0 0 1 2.915 1.21 3.42 3.42 0 0 1 .826 3.074l-1.68 6.79a3.546 3.546 0 0 1-3.439 2.813l-1.737.011Z"/><path d="M65.214 72.085h13.852v2.777H65.214zm0-5.548h13.852v2.777H65.214z"/></g></svg>