<svg xmlns="http://www.w3.org/2000/svg" width="86.049" height="86" viewBox="0 0 86.049 86"><defs><clipPath id="a"><path fill="none" d="M0 0h86.049v86H0z"/></clipPath></defs><g clip-path="url(#a)"><path d="m73.365 60.252-20.389.049v-3.017l18.589-.007-.013-14.828-3.1 3.066-2.107-2.1 6.1-6.061a1.93 1.93 0 0 1 1.582.139l5.865 5.867-2.03 2.156-3.277-3.237-.01 16.823c-.12.369-.575 1.147-1.214 1.149M19.724 25.352l-5.726 5.762a1.467 1.467 0 0 1-2.214-.079l-5.638-5.671 2.085-2.09 3.181 3.135.035-16.647a1.5 1.5 0 0 1 1.184-1.182l20.448-.026-.046 3.02-18.592.007.013 14.828 3.183-3.137Z"/><path d="M49.555 86h-13.1c-10.055-.122-20.373-1.123-30.147-4.779-2.408-.9-6-2.864-6.308-5.636v-2.016c.816-2.418 3.433-4.119 5.9-5.176 7.542-3.232 17.561-4.37 25.731-5l2.46-.1a8 8 0 0 1 1.691-.129V53.093l-3.382-.058a4.29 4.29 0 0 1-3.774-4.065l-.055-20.518a7.46 7.46 0 0 1 6.1-6.948h16.66a7.456 7.456 0 0 1 6.1 6.948l-.055 20.518a4.29 4.29 0 0 1-3.772 4.065l-3.386.052v10.077c1.589.105 3.151.163 4.712.283l2.331.18 5.8.637c6.239.685 17.326 2.826 21.566 7.1a4.275 4.275 0 0 1 .459 5.836 10.8 10.8 0 0 1-3.372 2.686c-6.678 3.557-18.512 5.246-26.173 5.716l-2.546.155Z"/><path fill="#9ac8fe" d="m47.282 42.127.224.012q.222 3.856.133 7.846a100 100 0 0 1-10.367.073v-9.9a1.406 1.406 0 0 0-1.383-1.444l-4.355-.033.043-10.295a4.14 4.14 0 0 1 4.183-4.02l1.833.019 1.183 4.7a1.55 1.55 0 0 0 1.189 1.014l-1.283 11.8 3.08 4.7a1.45 1.45 0 0 0 2.485-.006Zm4.277-17.513a4.48 4.48 0 0 1 1.78 3.4l.035 10.462-.335.2-2.78.019a1.456 1.456 0 0 0-1.52 1.44c-.209.474-1.276.492-1.561.082L46.039 30.1c.5-.168 1.019-.4 1.146-.9l1.23-4.816a8 8 0 0 1 3.144.227"/><path fill="#c5c4c9" d="m41.569 75.879-2.867.082V53.074l2.867-.013Z"/><path fill="#aaa9af" d="m45.799 75.94-.336-.118.065-22.547.337-.205a5.5 5.5 0 0 1 1.443.019v22.816Z"/><path fill="#c5c4c9" d="m45.865 53.07-.066 22.871a3.8 3.8 0 0 1-1.357-.038V53.087Z"/><path fill="#57a3fe" d="m53.038 38.673-.008-10.115a6.86 6.86 0 0 0-1.471-3.945 4.17 4.17 0 0 1 2.9 3.938l.018 10.092Zm-4.3 1.46-.006 10.018-10.941.079c-.255 0-.449.014-.521-.171l10.041-.006-.031-7.925a15 15 0 0 0-.105-1.912 6.5 6.5 0 0 1 1.561-.082"/><path fill="#00b5bc" d="M42.337 42.244q.164-.515.3-1.04-.293-2.657-.451-5a39.5 39.5 0 0 1 .858-6.306l1.351 11.342-1.371 2.016Z"/><path fill="#00d6dd" d="M44.029 24.376a2.71 2.71 0 0 1-.663 2.831 12.5 12.5 0 0 1-2.135-.009l-.7-2.82Z"/><path fill="#00d5dd" d="M42.337 42.244c-.173-.254-.709-.712-.667-1.106l.514-4.932c.019.043.165.035.212.077s.053.209.066.328l.5 4.416a1.06 1.06 0 0 1-.623 1.218"/><path fill="#00b4bb" d="M43.363 27.207c.229-.942.516-1.869.663-2.831l1.456.006-.7 2.781a5.7 5.7 0 0 1-1.419.043"/><path fill="#fcc276" d="M32.703 50.113q-.111-3.957-.072-8a1.25 1.25 0 0 1-1.086-.461c.516-.4 1.634 0 2.849-.091l.014 8.591Z"/><path fill="#fed9a9" d="M32.702 50.112a1.315 1.315 0 0 1-1.163-1.4l.006-7.056 1.42.019.016 7.884c0 .29-.064.452-.279.554"/><path fill="#fec376" d="M54.483 48.469c0 .9-.452 1.641-1.3 1.675l-1.622.063.029-8.686 2.874.049Z"/><path fill="#fcd7a8" d="M53.001 49.203a1.18 1.18 0 0 1-.29.776c-.151.14-.546.123-.951.058l-.031-8.363h1.322Z"/><path fill="#fee377" d="M76.167 69.984q.307.083.053.125c5.925 1.985 5.675 7.052-.174 8.932l-.162.155a78 78 0 0 1-14.017 2.847 163 163 0 0 1-36.379.161c-5.778-.614-18.591-2.647-22.087-6.473-1.914-2.094 1.984-4.11 4.6-5.1 8.227-3.106 18.881-4.092 27.834-4.534l.008 11.294a1.423 1.423 0 0 0 1.448 1.431h11.427a1.423 1.423 0 0 0 1.449-1.428l.008-11.292c8.429.4 18.126 1.306 25.991 3.881"/><path fill="#fecc00" d="M75.881 79.196a.2.2 0 0 1 .167-.262 10.1 10.1 0 0 0 3.512-2.552 2.82 2.82 0 0 0-.034-3.746 9.9 9.9 0 0 0-3.305-2.422c-.137-.014-.2-.108-.057-.231 2.216.725 5.023 1.781 6.481 3.405 2.242 2.5-3.842 4.905-6.764 5.807"/><path d="m.069 49.006.019-3.659a13.008 13.008 0 1 1-.019 3.659"/><path fill="#d70027" d="M14.587 57.178a11.75 11.75 0 0 0 5.488-9.88 11.85 11.85 0 0 0-5.4-9.87 10.025 10.025 0 0 1-.091 19.75"/><path fill="#fe3051" d="M14.678 37.43c3.667 1.474 5.74 6.074 5.731 9.869-.007 3.853-2.088 8.411-5.823 9.88a10.026 10.026 0 1 1 .092-19.75"/><path d="m16.222 52.582-3.313-3.251-3.277 3.265-2.018-2.015 3.258-3.264-3.26-3.306 2.019-2.024 3.286 3.287 3.284-3.285 2.012 2.022-3.272 3.289 3.263 3.27ZM66.34 32.517a12.939 12.939 0 1 1 16.678-2.689 12.934 12.934 0 0 1-16.678 2.689"/><path fill="#00b5bc" d="M74.826 11.617c2.094.691 4.571 3.7 5.067 5.8.08.337-.035.452-.4.4l-.339.142-1.386-1.272-5.729 5.738a.52.52 0 0 1-.721.034l-2.917-2.918-1.57 1.533 4.214 4.18c.564.351.837.258 1.363-.092l7.009-6.833.378.1c.821.567.824 2.177.824 3.173 0 3.8-2.218 8.4-5.912 9.792a10.026 10.026 0 1 1 .118-19.774"/><path fill="#009597" d="M74.708 31.391a11.43 11.43 0 0 0 5.087-12.964c-.505.056-.622-.279-.3-.606.07-.011.128-.167.076-.305a12.35 12.35 0 0 0-4.748-5.9 10.025 10.025 0 0 1-.118 19.774"/><path d="M79.498 17.821c.186.177.143.46.3.606l-7.17 6.985a1.356 1.356 0 0 1-1.853.045l-4.425-4.383 2.038-2.021 3.273 3.274 6.132-6.135Zm-29.282-1.458c-.415 1.988-1.855 3.715-3.91 3.715h-6.6c-2.06 0-3.478-1.735-3.9-3.667l-.03-8.027A4.25 4.25 0 0 1 32.944 4.7l-.034-3.234c.027-.476.406-1.438 1.057-1.44L48.713 0a4.27 4.27 0 0 1 4.34 3.838l.019 3.54c.006 1.086-1.411 1.432-2.844 1.344Z"/><path fill="#fed9a9" d="m45.552 17.169-5.413.022A1.32 1.32 0 0 1 38.776 16q-.125-3.65-.059-7.326l7.287-.006.2.144v7.16q.006 1.024-.65 1.195"/><path fill="#a68866" d="M48.449 2.848a.7.7 0 0 1 .46.3c.211.309.363 2.47-.262 2.56l-11.353.006a1.4 1.4 0 0 1-1.452-1.381V2.852Z"/><path fill="#fbc175" d="M45.552 17.169a5.5 5.5 0 0 0 .315-1.217v-7.25l-7.061.029-.024 7.271a.53.53 0 0 1-.15-.378l.006-7.065 8.672.057-.028 7.27a1.42 1.42 0 0 1-1.73 1.283"/><path fill="#927655" d="M48.648 5.71a5.65 5.65 0 0 0-.2-2.862c.966 0 1.725.477 1.725 1.544v1.31Z"/></g></svg>