<svg xmlns="http://www.w3.org/2000/svg" width="85.968" height="86" viewBox="0 0 85.968 86"><defs><clipPath id="a"><path fill="none" d="M0 0h85.968v86H0z"/></clipPath></defs><g clip-path="url(#a)"><path d="m52.833 20.139-2.791 2.791a1.16 1.16 0 0 1-1.671.02l-3.17-3.193c-.553-.557.11-1.6.642-1.778a1.68 1.68 0 0 1 1.988.824l.1-2.9c.361-2.289 2.115-4.475 4.566-4.491l9.679-.067c.68 0 1.156.769 1.208 1.258.047.441-.462 1.354-1.083 1.358l-8.845.052a2.65 2.65 0 0 0-2.128.676c-1.194 1.222-.545 2.287-.841 4 .586-.463.909-.956 1.392-.942a1.59 1.59 0 0 1 1.282.723 1.45 1.45 0 0 1-.332 1.675m9.419 58.683c.691.008 1.18.912 1.138 1.353-.051.512-.529 1.269-1.208 1.264l-9.679-.07c-2.489-.018-4.293-2.3-4.582-4.623l-.087-2.764a1.68 1.68 0 0 1-1.989.824c-.533-.179-1.192-1.221-.643-1.776l3.175-3.2a1.13 1.13 0 0 1 1.48-.122l3.118 3.119a1.276 1.276 0 0 1-.314 1.993c-.769.441-1.409.17-2.136-.787a17 17 0 0 1 .064 1.73c-.215 1.271.575 2.926 2.035 2.944Zm-28.807 2.548-9.619.071c-.68 0-1.155-.764-1.208-1.261-.046-.441.463-1.346 1.083-1.352l9.7-.107a2.2 2.2 0 0 0 1.984-1.96l-.016-2.624c-.638.893-1.293 1.094-2.015.684a1.306 1.306 0 0 1-.25-2.092l2.856-2.868a1.16 1.16 0 0 1 1.745.055l3.054 3.006c.45.443.154 1.286-.2 1.619a1.39 1.39 0 0 1-1.815.045c-.23-.181-.29-.471-.779-.588.834 3.413-.957 7.115-4.522 7.37m4.315-58.55a1.19 1.19 0 0 1-1.8.1l-2.858-2.869a1.31 1.31 0 0 1 .142-2.019c.736-.5 1.468-.333 2.123.615l.016-2.626a2.2 2.2 0 0 0-1.984-1.959l-9.7-.107c-.62-.007-1.13-.91-1.083-1.35.054-.51.528-1.265 1.208-1.261l9.537.051c3.278.018 5.535 3.812 4.618 7.427l.972-.762a1.276 1.276 0 0 1 1.606.176c.345.332.656 1.171.2 1.623Zm47.093 63.163L66.804 86a1.53 1.53 0 0 1-1.179-1.172l.028-5.534a8.62 8.62 0 0 1 4.92-6.848 6.26 6.26 0 0 1-1.45-4.645 6.59 6.59 0 0 1 4.061-5.569 6.68 6.68 0 0 1 7.167 1.262 6.573 6.573 0 0 1 .689 8.949 8.76 8.76 0 0 1 4.877 6.717l.047 5.641c0 .393-.606 1.186-1.121 1.186"/><path fill="#43a1fe" d="M83.054 83.486a10.5 10.5 0 0 1-5.333-1.433c-2.063-1.157-5.547-4.291-6.133-6.609a1.06 1.06 0 0 1 .089-.638c.431-.2.945-.615 1.47-.416a7 7 0 0 0 5.452-.091 6.36 6.36 0 0 1 4.868 6.314l-.018 2.831c-.072.066-.293.039-.4.039"/><path fill="#2890f9" d="M71.673 74.806a14.39 14.39 0 0 0 11.377 8.68H68.117l.013-3.38a5.94 5.94 0 0 1 3.543-5.3"/><path fill="#fddec4" d="M77.246 72.113c-2.976.417-5.993-3.456-4.73-6.222a4.126 4.126 0 0 1 7.284 1.538 4.04 4.04 0 0 1-2.554 4.684"/><path fill="#fccaa9" d="M77.247 72.113a4.09 4.09 0 0 1-4.746-1.352 3.946 3.946 0 0 1 .011-4.87 5.5 5.5 0 0 0 4.73 6.222"/><path d="M20.384 84.765a1.51 1.51 0 0 1-1.184 1.234l-17.974-.007c-.747 0-1.137-.913-1.226-1.491l.031-4.91c.02-3.082 2.122-5.695 4.93-7.134a6.6 6.6 0 0 1 .192-8.456 6.763 6.763 0 0 1 9.565-.6 6.56 6.56 0 0 1 .712 9.042 8.63 8.63 0 0 1 4.922 6.848Z"/><path fill="#43a1fe" d="M17.467 83.485a10.5 10.5 0 0 1-5.33-1.433c-2.061-1.157-5.546-4.291-6.134-6.606a1.05 1.05 0 0 1 .088-.638c.432-.2.946-.616 1.469-.419a7 7 0 0 0 5.455-.09 6.37 6.37 0 0 1 4.874 6.314l-.015 2.832c-.086.067-.3.04-.408.04"/><path fill="#2890f9" d="M6.091 74.808a14.4 14.4 0 0 0 11.376 8.677H2.543l.014-3.38a5.94 5.94 0 0 1 3.534-5.3"/><path fill="#fddec4" d="M11.662 72.116c-2.972.416-5.972-3.466-4.724-6.222a4.129 4.129 0 0 1 7.252 1.386 4.03 4.03 0 0 1-2.524 4.837"/><path fill="#fcc9a9" d="M11.662 72.117a4.08 4.08 0 0 1-4.73-1.358 3.96 3.96 0 0 1 .009-4.865 5.516 5.516 0 0 0 4.724 6.223"/><path d="m84.846 24.277-18.043.014a1.53 1.53 0 0 1-1.179-1.172l.028-5.53a8.66 8.66 0 0 1 4.912-6.873 6.27 6.27 0 0 1-1.432-4.8 6.53 6.53 0 0 1 4.54-5.571 6.69 6.69 0 0 1 7.243 2.021 6.54 6.54 0 0 1 .121 8.347 8.76 8.76 0 0 1 4.9 6.879l.028 5.508c0 .393-.6 1.179-1.121 1.179"/><path fill="#43a1fe" d="M83.469 21.764a11.87 11.87 0 0 1-7.373-2.5c-1.555-1.145-3.992-3.735-4.488-5.6a1.02 1.02 0 0 1 .109-.629c.4-.194.98-.532 1.423-.365a6.87 6.87 0 0 0 5.441-.095 6.316 6.316 0 0 1 4.884 6.16Z"/><path fill="#2890f9" d="M83.473 21.764H68.128l.005-3.364a6.06 6.06 0 0 1 3.584-5.362 13.79 13.79 0 0 0 9.1 8.191 13.4 13.4 0 0 0 2.652.54"/><path fill="#fddec4" d="M77.228 10.404c-2.97.4-5.97-3.466-4.716-6.224a4.12 4.12 0 0 1 6.366-.231 3.93 3.93 0 0 1 .854 3.818 4.13 4.13 0 0 1-2.5 2.634"/><path fill="#fccaa9" d="M77.229 10.401a4.1 4.1 0 0 1-4.719-1.352 3.95 3.95 0 0 1 0-4.869 5.513 5.513 0 0 0 4.716 6.221"/><path d="m19.26 24.278-18.038.01a1.52 1.52 0 0 1-1.2-1.31l.043-5.4a8.53 8.53 0 0 1 4.908-6.818A6.63 6.63 0 0 1 9.789.013a6.74 6.74 0 0 1 6.257 3.344 6.56 6.56 0 0 1-.589 7.365 8.68 8.68 0 0 1 4.894 6.878l.031 5.507c0 .384-.6 1.175-1.122 1.175"/><path fill="#43a1fe" d="M17.885 21.763a11.84 11.84 0 0 1-7.276-2.428c-1.577-1.142-4.06-3.737-4.607-5.6a1.05 1.05 0 0 1 .088-.637c.422-.191.963-.632 1.486-.431a6.88 6.88 0 0 0 5.437-.083 6.386 6.386 0 0 1 4.878 6.321Z"/><path fill="#2890f9" d="M6.09 13.095a14.12 14.12 0 0 0 9.268 8.164 13.7 13.7 0 0 0 2.528.505H2.544l.013-3.367a5.92 5.92 0 0 1 3.533-5.302"/><path fill="#fddec4" d="M11.653 10.404c-2.968.412-5.951-3.465-4.72-6.217a4.129 4.129 0 0 1 7.218 1.26 4.027 4.027 0 0 1-2.5 4.957"/><path fill="#fcc9a9" d="M11.653 10.4a4.086 4.086 0 0 1-4.721-1.358 3.95 3.95 0 0 1 0-4.863 5.526 5.526 0 0 0 4.72 6.217"/><path d="M47.88 64.712a2.4 2.4 0 0 1-2.181 2.727h-5.4a2.4 2.4 0 0 1-2.184-2.65 2.576 2.576 0 0 0-4.517-2.141c-.876 1.058-2.435 1.633-3.529.539l-3.863-3.863c-1.093-1.093-.52-2.653.54-3.529a2.62 2.62 0 0 0 .717-3.03 2.57 2.57 0 0 0-2.855-1.492 2.393 2.393 0 0 1-2.653-2.178v-5.4a2.4 2.4 0 0 1 2.651-2.186 2.575 2.575 0 0 0 2.14-4.516c-1.058-.877-1.633-2.435-.539-3.529l3.863-3.863c1.094-1.094 2.654-.52 3.529.539a2.577 2.577 0 0 0 4.516-2.142 2.4 2.4 0 0 1 2.185-2.65h5.4a2.393 2.393 0 0 1 2.178 2.653 2.59 2.59 0 0 0 1.367 2.8 2.66 2.66 0 0 0 3.156-.648 2.92 2.92 0 0 1 1.848-1.117 2.64 2.64 0 0 1 2.138.94c.553.592 1.134 1.088 1.692 1.67l1.408 1.464a2.64 2.64 0 0 1 .867 2.035c-.145 1.7-2.842 2.366-1.819 4.885a2.625 2.625 0 0 0 2.861 1.479 2.4 2.4 0 0 1 2.649 2.184v5.4a2.394 2.394 0 0 1-2.654 2.178 2.59 2.59 0 0 0-2.8 1.368 2.66 2.66 0 0 0 .649 3.156 2.9 2.9 0 0 1 1.115 1.846 2.63 2.63 0 0 1-.867 2.035l-1.492 1.543c-.535.553-1.079 1.033-1.608 1.592a2.7 2.7 0 0 1-1.992.949 2.84 2.84 0 0 1-1.995-1.127 2.65 2.65 0 0 0-3.032-.7 2.52 2.52 0 0 0-1.491 2.781"/><path fill="#3b3b6b" d="M32.232 32.391a29.3 29.3 0 0 0 1.781 6.882l-.026.749v.606c-6.223 10.214 5.871 21.35 15.546 14.237l.619-.07a7.4 7.4 0 0 1 2.938.378l2.512.312q.092.248.433.02a5.7 5.7 0 0 0 1.7 2.36l-3.266 3.267a5.09 5.09 0 0 0-6.2-1.52 5.17 5.17 0 0 0-2.967 5.306l-4.607-.024a5.13 5.13 0 0 0-9.148-3.761l-3.279-3.279a5.133 5.133 0 0 0-3.765-9.152v-4.618a5.135 5.135 0 0 0 3.768-9.153l3.171-3.194c.377.054.535.427.8.654"/><path fill="#45467d" d="M56.035 55.511c-.024.015.01.231-.07.338a23.4 23.4 0 0 1-5.813-1.049l.17-.606c10.53-11.086-5.718-25.862-15.758-14.383l-.578.211a21.7 21.7 0 0 1-1.96-7.43c.012-.117.076-.208.205-.2a5.134 5.134 0 0 0 8.455-4.5l4.609-.03a5.16 5.16 0 0 0 3.088 5.358 5.09 5.09 0 0 0 6.083-1.572l3.276 3.284a5.08 5.08 0 0 0-1.521 6.2 5.18 5.18 0 0 0 5.309 2.971l-.028 4.6a5.143 5.143 0 0 0-5.47 6.808"/><path d="M50.148 54.799a11.037 11.037 0 1 1 .348-16.5 11.014 11.014 0 0 1-.348 16.5"/><path fill="#efefef" d="m47.365 53.693-.834.111a17 17 0 0 1-3.567-2.05 1 1 0 0 1-.212-.744l5.116-5.952.387-1.208q-.474.012-.488-.806c-.242-.576-.825-.6-1.35-.354l-4.138 4.783a.513.513 0 0 1-.735.048l-1.722-1.9c-.973-.777-1.327-.34-1.738.587a.37.37 0 0 1-.345.208q-.765.025-1.268-.952a4.64 4.64 0 0 1-1.25-2.5 8.505 8.505 0 1 1 12.144 10.729"/><path fill="#dfdee0" d="M37.74 46.415a.519.519 0 0 1 .5.891 22.4 22.4 0 0 0 2.727 3.134c.437.378 1.493 1.236.978.2q.042-.4.653-.673l5.273-6.179.387.066a1.45 1.45 0 0 1-.215 1.533l-5.106 5.934a26 26 0 0 0 3.633 2.13 2.1 2.1 0 0 0 .8.247A8.5 8.5 0 0 1 35.223 42.96a20.3 20.3 0 0 0 2.517 3.455"/><path d="m48.256 43.849-5.372 6.294a1.55 1.55 0 0 1-.942.492c-.264.438-.526.215-.842-.069a26.5 26.5 0 0 1-2.862-3.262 2.2 2.2 0 0 0-.5-.891 1.445 1.445 0 0 1 .888-1.44 1.42 1.42 0 0 1 1.554.531l1.714 1.9 4.086-4.768a1.31 1.31 0 0 1 1.624-.274c.619.317.52.957.651 1.49"/><path fill="#ced0d0" d="M41.943 50.636a3.7 3.7 0 0 1 .874.654 1.1 1.1 0 0 1-1.573-.274l-2.563-2.822a1.87 1.87 0 0 1-.442-.888l2.77 2.926c.28.307.65.294.934.4"/></g></svg>