<svg xmlns="http://www.w3.org/2000/svg" width="62.529" height="62.506" viewBox="0 0 62.529 62.506"><defs><clipPath id="a"><path fill="none" d="M0 0h62.529v62.506H0z"/></clipPath></defs><g clip-path="url(#a)"><path d="M17.945 62.505H8.79l-.406-.487c-.277-.324-.031-1.306.554-1.308l8.767-.022a.9.9 0 0 1 .638 1.337Zm33.082 0h-8.423a1.29 1.29 0 0 1-.584-.928c0-.358.281-.887.725-.887h8.136a.88.88 0 0 1 .748.866 1.16 1.16 0 0 1-.6.948m-45.658.001H.488A.55.55 0 0 1 0 62.017v-.855c.177-.041.36-.344.521-.475l4.615.009a.886.886 0 0 1 .631 1.335Zm56.28-3.899-11.6-.011c-.438 0-.648-.511-.734-.811s.192-.994.642-.994h11.907c.462 0 .712.708.659 1.01a.94.94 0 0 1-.871.806m-50.611-.004-8.04-.032a1.02 1.02 0 0 1-.59-.885 1.06 1.06 0 0 1 .59-.9l8.323.01c.457 0 .717.69.645.987a.96.96 0 0 1-.928.818m42.851-21.576a.6.6 0 0 1 .318-.239c.8-.274 3.274 1 3.839 1.709l.057.384a7.1 7.1 0 0 1 1.373 2.8 3.8 3.8 0 0 1 2.485 1.464 3.21 3.21 0 0 1 .314 3.052 2.91 2.91 0 0 1-2.47 1.865l-3.643.021c-.423 0-.639-.538-.717-.843q-.165-.106.029-.132c-.409-.576.232-.926.785-1.07l3.421-.067a1.064 1.064 0 0 0-.286-2.077 1.53 1.53 0 0 1-1.8-.346 7.4 7.4 0 0 1-.191-2.249l-.308-.118a3.442 3.442 0 0 0-6.332.023q-.259 1.806-1.638 1.653c-1.663-1.293-3.915-.261-3.332 1.929a1.56 1.56 0 0 1 .363.927l1.256.3h4.719c.66-.046 1.574.792.954 1.232.432.2.013.733-.326.928a20.7 20.7 0 0 1-4.048.156l-.179-.243c-1.1.635-2.861-.042-3.769-.844a4.184 4.184 0 0 1 3.953-7.132 5.6 5.6 0 0 1 1.736-2.168c.606-.46 2.413-1.334 3.131-1.156a.57.57 0 0 1 .306.232"/><path fill="#68a5db" d="M54.195 47.223c.024.174-.086.275-.2.429a21 21 0 0 1-1.657 2.129c-.162.171-.348.289-.352.539a1.017 1.017 0 0 0-1.485.067 26 26 0 0 1-3.086 2.782 6.3 6.3 0 0 1-3.123-.754l.257-.529 2.834-2.721a2.77 2.77 0 0 1 1.152-1.07l3.7-.016a.873.873 0 0 0 .848-.824c.05-.38 1-.388 1.1-.03"/><path fill="#cfecf4" d="M55.477 47.107q-.547.078-1.132.13l-.152-.015-1.1.03a.907.907 0 0 0-.961-.988h-4.639a2.02 2.02 0 0 1-1.329-.55l.113-.244h6.707a4.24 4.24 0 0 0 4.169-3.938l.258-.233c.4 1.131.018 1.848.536 2.266a.92.92 0 0 0 .924.178 1.3 1.3 0 0 1 1.746.831 1.262 1.262 0 0 1-1.071 1.654l-3.261.052c-.472.008-.716.407-.8.827"/><path fill="#68a5db" d="m58.563 36.452-.456 2.427a5.74 5.74 0 0 0-4.213-1.854l-.113-.318q.143-1.809.328-3.627-9.771.072-19.439-.07c-.069-.082-.189-.111-.1-.3l19.606.026 3.765.023-.2 2.522a1.01 1.01 0 0 0 .824 1.167"/><path fill="#dff3f8" d="M55.476 47.108a.2.2 0 0 0-.029.132h-1.1a2.46 2.46 0 0 1 1.132-.13"/><path fill="#7ac1ec" d="M17.824 31.811a.873.873 0 0 0 .852.945l6.559.012a12.8 12.8 0 0 0 .661 5.163 3.71 3.71 0 0 0 2.229 2.337c2.586 1.052 7.856 1.318 8.888-1.163.828-1.991-.958-4.458-2.342-6.1-.031-.068-.006-.163.052-.163l19.618-.011a31 31 0 0 1-.447 4.189 5.54 5.54 0 0 0-5.048 3.371 3.951 3.951 0 1 0-1.25 7.688l.941.01a22.5 22.5 0 0 1-4.244 4.32 5.8 5.8 0 0 1-1.786-1.658l-1.505-2.022c-2.063-2.771-6.307-2.015-9.366-.734-2.135.894-4.84 2.368-6.541.526a6.7 6.7 0 0 1-1.284-2.38l-1.463-4.149a13.3 13.3 0 0 0-1.789-3.461 5.8 5.8 0 0 0-5.9-2.392 2.53 2.53 0 0 0-1.956 1.951c-.474 1.947.108 3.854-2.344 4.751a9.7 9.7 0 0 1-3.349.485 26.4 26.4 0 0 1-1.932-5.717 8.9 8.9 0 0 0 5.98-4.836l3.478-.021a.866.866 0 0 0 .849-.9l.136-.246 2.128-.036Z"/><path d="m5.616 30.914.114-.244 7.064.025.146.245c.013-.094.038-.234.107-.244a4.2 4.2 0 0 1 2.158.249c.3.233.576.691.176.908.539.319-.084.915-.567 1.107a25 25 0 0 1-3.629-.009c-.762 1.986-3.535 4.481-5.662 4.791a.42.42 0 0 1-.271-.043c.561 1.833 1.142 3.673 1.883 5.455a10.3 10.3 0 0 0 1.72-.189c3.072-.5 3.268-1.693 3.508-4.452.352-1.569 1-2.5 2.714-2.687 3.852-.414 5.674 2.121 7.181 5.254l1.874 5.236c1.173 2.667 2.083 3.4 4.945 2.47l3.263-1.324c3.159-1.071 6.246-1.6 8.765 1.005a18 18 0 0 0 3.078 3.595l.11.351.391-.07a6.7 6.7 0 0 0 2.649.6q1.73-1.439 3.323-3c.432-.264 1.451-.26 1.33.366.873.82-.624 1.88-1.6 2.774a28.5 28.5 0 0 1-16.587 7.3l-1.9.084c-.4.018-.653.015-1.051 0l-2.144-.083a28.32 28.32 0 0 1-16.312-6.981l-2.808-2.809a28.4 28.4 0 0 1-6.87-15.937 5.3 5.3 0 0 0-.228-1.84l-1.5.009a1.12 1.12 0 0 1-.987-.6v-.732c.174-.2.39-.6.749-.6Z"/><path fill="#d0e06f" d="M42.671 53.563a2 2 0 0 1-.2.322 1 1 0 0 1-.247.25 25.4 25.4 0 0 1-18.991 3.276A26.86 26.86 0 0 1 7.97 45.157c3.048-.29 5.565-1.143 6.157-4.174l.31-2.354a.83.83 0 0 1 .839-.754c2.9-.273 4.382 2.045 5.311 4.659l1.567 4.411a7.54 7.54 0 0 0 1.764 3 5.03 5.03 0 0 0 4.7 1.14c2.6-.622 4.581-2.229 7.875-2.418a3.7 3.7 0 0 1 3.53 1.787 14.7 14.7 0 0 0 2.648 3.109"/><path fill="#9bcb4b" d="m23.233 57.412 1.086.072a26.07 26.07 0 0 0 18.352-3.92 9.2 9.2 0 0 0 2.413 1.192 26.8 26.8 0 0 1-21.851 2.657"/><path fill="#cfdf6e" d="M8.924 32.784a7 7 0 0 1-4.179 3.026 23 23 0 0 1-.278-3.04Z"/><path d="M20.317 30.939c.01-.1.045-.242.113-.244a86 86 0 0 1 6.211 0q.765-.134 1 .244l.113-.244h7.065l.147.244c.01-.1.046-.242.114-.244 2.265-.077 4.8-.077 7.064 0l.147.244c.01-.1.046-.242.113-.244 2.265-.077 4.8-.077 7.064 0l.147.244.113-.244 7.06-.023.148.244 4.476-.033a1 1 0 0 1 1.106.934.946.946 0 0 1-1 1.027l-1.716.01c-.087 1.724.037 3.855-1.236 3.606-.6.5-1.04-.468-1.072-1.1a13 13 0 0 0 .1-2.343l-3.239-.02-.094-.2-19.455-.008q-.265-.033-.134.229.535.027.918.75c4.518 5.838.214 8.443-5.8 7.249-4.449-.884-4.767-3.825-4.828-8l-6.426-.027c-.569-.15-1.246-.711-.709-1.179-.5-.6.259-.981.864-1.111.329-.071 1.522-.1 1.629.239"/><path fill="#d0e06f" d="M35.319 38.345c-.311 1.138-4.757 1.04-6.587.2a1.9 1.9 0 0 1-1.074-1.154 10.5 10.5 0 0 1-.575-4.633h4.733a13.8 13.8 0 0 1 3.056 3.654 2.85 2.85 0 0 1 .446 1.926"/><path fill="#e5f7fb" d="M57.407 41.3a4.513 4.513 0 0 1-4.55 4.417h-6.7a2.09 2.09 0 0 1-.247-2.914 2.113 2.113 0 0 1 2.935-.335.95.95 0 0 0 .95.092.92.92 0 0 0 .509-.677 3.689 3.689 0 0 1 7.1-.58"/><path fill="#6957a0" d="m56.886 29.149.045 1.759-7.321.024c-.364.106-.331-1.6-.292-1.689l.239-.179c.05 0 .115.055.157.076l.623-.152c1.676.12 2.731-.528 2.914-2.252a32.4 32.4 0 0 0-.112-5.563 4.2 4.2 0 0 0-.816-1.457l.058-.313a2.73 2.73 0 0 1 3.583 2.577v6.174a.99.99 0 0 0 .92.995"/><path fill="#9bcb4b" d="m53.196 11.34.031 1.791a3.2 3.2 0 0 0-2.689 1.629 3.12 3.12 0 0 0 .282 3.366 5 5 0 0 0-1.259 1.12 5 5 0 0 0-1.259-1.121 3.12 3.12 0 0 0 .277-3.374 3.06 3.06 0 0 0-2.812-1.585 4.9 4.9 0 0 1-.146-1.678l.239-.172a.84.84 0 0 0 .914-.8 12 12 0 0 1 .031-1.846l.249.126.052 1.519c2.393.4 4.255-1.508 3.046-3.811l.109-.3a2.74 2.74 0 0 1 2.046 2.707v1.418a.975.975 0 0 0 .892 1.009"/><path fill="#6957a0" d="M15.684 8.59c.187 1.5-.3 2.672.879 2.725.094.01.231.031.246.1a6 6 0 0 1 .023 1.1q.116.513-.231.643a3.054 3.054 0 0 0-2.399 4.942 6 6 0 0 0-1.257 1.147 5 5 0 0 0-1.259-1.122 3.12 3.12 0 0 0 .282-3.365 3.2 3.2 0 0 0-2.693-1.63l-.047-1.786c1.374-.115.735-1.3.962-2.79l.248.1.056 1.658q2.458.052 4.892-.028l.03-1.453Z"/><path fill="#fec44b" d="m5.771 29.139.611-.162 5.771-.017a2.5 2.5 0 0 1 .542.243c.108-.18.364.01.5.174.053.066.09 1.6-.252 1.563l-7.324-.026.006-1.739c.046-.012.1-.058.149-.036"/><path fill="#9ccb4b" d="m13.094 29.14.613-.161h5.806l.6.163a.8.8 0 0 1 .256-.064l.191.232a5.4 5.4 0 0 0 0 1.431l-.235.2H18.71a.873.873 0 0 0-.877.867l-2.443.042a.876.876 0 0 0-.879-.91h-1.562l.011-1.536a.23.23 0 0 0-.091-.2.25.25 0 0 0-.164 0c-.23.025-.235-.072 0-.145Z"/><path fill="#e5f7fb" d="M27.233 29.079c.146.3-.064.367-.356.387l-5.624.006q-.745.085-.636-.393a1.05 1.05 0 0 0 .565-1v-6.054a2.746 2.746 0 1 1 5.492 0v6.052a1.05 1.05 0 0 0 .564 1"/><path fill="#d0e06f" d="M20.11 29.136a1.3 1.3 0 0 1-.45.081h-5.991a2.6 2.6 0 0 1-.575-.081 1.01 1.01 0 0 0 .766-.986l-.008-6.056a2.752 2.752 0 1 1 5.5 0l-.008 6.055a1 1 0 0 0 .765.984"/><path fill="#fee16f" d="M12.687 29.058v.145l-6.351.019a1.5 1.5 0 0 1-.574-.083 1.01 1.01 0 0 0 .765-.984l-.008-6.056a2.752 2.752 0 1 1 5.5 0v6.153a.84.84 0 0 0 .663.805"/><path fill="#b67d5a" d="M34.709 29.093c.114.3-.1.357-.388.369h-5.923q-.649.08-.6-.373a.89.89 0 0 0 .707-.84v-6.154a2.752 2.752 0 1 1 5.5 0v6.153a.89.89 0 0 0 .708.84"/><path fill="#3a4b56" d="m42.059 29.111-.129.308q-3.141.091-6.293.05c-.306.008-.542-.013-.539-.365a.91.91 0 0 0 .727-.851v-6.154a2.752 2.752 0 1 1 5.5 0v6.153a.92.92 0 0 0 .733.858"/><path fill="#f6765b" d="m49.404 29.189-.111.245q-3.409.077-6.8-.025l-.047-.289a.99.99 0 0 0 .713-.966l-.008-6.056a2.751 2.751 0 1 1 5.5 0l-.008 6.055a1.11 1.11 0 0 0 .762 1.034"/><path fill="#fdab38" d="M37.668 8.717c.119 1.493-.247 2.543.877 2.608l.247.131a5.6 5.6 0 0 0 .155 1.726 3.053 3.053 0 0 0-2.772 4.914 6.7 6.7 0 0 0-1.263 1.148 6 6 0 0 0-1.26-1.145 3.054 3.054 0 0 0-2.4-4.94.29.29 0 0 1-.246-.1c-.067-.065-.134-1.74.207-1.744a.878.878 0 0 0 .92-1.049 6.5 6.5 0 0 1 .024-1.47l.275.185.024 1.325 4.857.01q.06-.628.081-1.382Z"/><path fill="#97654c" d="M23.009 8.592c.183 1.477-.3 2.683.872 2.723.094.01.234.03.247.1a4.4 4.4 0 0 1-.07 1.753 3.07 3.07 0 0 0-2.812 1.586 3.12 3.12 0 0 0 .278 3.373 5 5 0 0 0-1.262 1.122 5.9 5.9 0 0 0-1.258-1.149 3.054 3.054 0 0 0-2.4-4.94l-.039-1.844c1.235.056.8-1.234.944-2.645l.274.2.031 1.407h4.9l.022-1.452Z"/><path fill="#f15853" d="M30.337 8.719a6.4 6.4 0 0 1 .032 1.547.875.875 0 0 0 .842 1.049l.035 1.843a3.08 3.08 0 0 0-2.681 1.594 3.12 3.12 0 0 0 .279 3.371 5.1 5.1 0 0 0-1.262 1.122 6 6 0 0 0-1.26-1.146 3.052 3.052 0 0 0-2.268-4.935.68.68 0 0 1-.137-.455l-.04-1.394a.878.878 0 0 0 .926-1.05 6.6 6.6 0 0 1 .024-1.47l.275.185.024 1.324 4.858.009q.059-.626.076-1.379Z"/><path fill="#fec44b" d="M44.991 8.718c.118 1.512-.237 2.549.869 2.6l.045 1.393a.68.68 0 0 1-.138.457 3.05 3.05 0 0 0-2.268 4.933 6 6 0 0 0-1.263 1.15 5.9 5.9 0 0 0-1.261-1.149 3.054 3.054 0 0 0-2.029-4.917c-.076-.026-.328-.093-.361-.218l-.041-1.64c.365.021.889-.281.89-.694 0-.648 0-1.227.037-1.836l.25.126.058 1.389h4.92l.047-1.432Z"/><path fill="#9879b7" d="M52.381 19.404a3.86 3.86 0 0 1 1.1 2.449l.016 4.887a2.49 2.49 0 0 1-2.709 2.491 2.9 2.9 0 0 1-1.072-.091 1.01 1.01 0 0 0 .765-.985v-6.176a2.69 2.69 0 0 1 1.9-2.574"/><path fill="#98654c" d="M27.793 29.092a.84.84 0 0 0 .521.129h5.873a.82.82 0 0 0 .522-.129l.191.018c.121.012.205.041.25.16.077.206.149 1.614-.188 1.662h-7.325c-.346-.154-.358-1.2-.325-1.59l.2-.25Z"/><path fill="#26363f" d="M35.095 29.101a1 1 0 0 0 .542.121h5.87a1.2 1.2 0 0 0 .549-.115.6.6 0 0 1 .286 0 3.46 3.46 0 0 1 .18 1.651l-.239.172h-7.324l-.061-1.822Z"/><path fill="#cfecf4" d="M20.618 29.079a.65.65 0 0 0 .493.149h5.632a.66.66 0 0 0 .491-.149l.279.019a16 16 0 0 1 .124 1.84h-7.32a5.5 5.5 0 0 1 .048-1.865Z"/><path fill="#f15853" d="M49.404 29.189a.18.18 0 0 1 .154-.125l.053 1.868h-7.325l-.047-1.52a.43.43 0 0 1 .106-.3.3.3 0 0 1 .1.012.84.84 0 0 0 .4.112Z"/><path d="M16.602 13.16c.231-.433.989-.116 1.376.061a3.288 3.288 0 0 1 1.373 4.8 7.3 7.3 0 0 0 .925.841 3.9 3.9 0 0 0 .842-.918 3.3 3.3 0 0 1 1.559-4.78c.424-.172 1.121-.428 1.381 0 .228-.409.9-.1 1.266.066a3.29 3.29 0 0 1 1.351 4.793 7.3 7.3 0 0 0 .924.842 4.5 4.5 0 0 0 .849-.908 3.3 3.3 0 0 1 1.43-4.738c.386-.176 1.142-.493 1.372-.06.231-.433.989-.115 1.376.061a3.288 3.288 0 0 1 1.373 4.8 4.4 4.4 0 0 0 .979.785 6.4 6.4 0 0 0 .848-.784 3.29 3.29 0 0 1 1.624-4.908 1.43 1.43 0 0 1 1.5.066c.456-.467 1.5.264 1.917.658a3.29 3.29 0 0 1 .456 4.189 8 8 0 0 0 .872.8 6 6 0 0 0 .96-.8 3.285 3.285 0 0 1 1.254-4.746c.378-.19 1.116-.536 1.362-.114.26-.427.958-.172 1.382 0a3.3 3.3 0 0 1 1.558 4.779 4 4 0 0 0 .841.922 4.2 4.2 0 0 0 .875-.907 3.3 3.3 0 0 1 1.414-4.732c.389-.183 1.14-.518 1.39-.1a3.06 3.06 0 0 1 2.7 1.623 2.99 2.99 0 0 1-.288 3.34 4.5 4.5 0 0 1 2.188 3.657l.011 6.555c0 .478-.622.832-.955.843-.443.5-.962-.236-1.143-.752l-.025-6.508a2.483 2.483 0 0 0-3.074-2.314l-.263-.17-.089.29a2.44 2.44 0 0 0-1.563 2.288l-.015 6.338c-.146.6-.326.875-1 .819q-.078.227-.157-.076-.039.2-.154.125c-.662-.089-.847-.226-1-.869v-6.314c-.372-3.333-4.61-3.367-5.009 0v6.308c-.144.556-.293.891-.948.808-.028.1-.061.092-.1-.012q-.141.442-.286 0c-.625.073-.8-.148-.966-.711l-.013-6.394c-.37-3.332-4.612-3.369-5.01 0l-.013 6.394c-.151.556-.351.791-.96.705-.041.236-.139.24-.2.007-.046.233-.142.22-.191-.018-.6.1-.786-.152-.941-.7l-.012-6.391c-.37-3.332-4.612-3.37-5.011 0l-.012 6.391c-.145.546-.345.8-.94.7-.014.342-.184.326-.28.005-.043.34-.211.309-.279-.019-.559.146-.717-.363-.8-.821l-.008-6.32a2.5 2.5 0 0 0-5 0l-.007 6.325c-.076.458-.247.97-.8.822-.046.324-.162.307-.252 0q-.168.344-.256.064c-.7.038-.834-.221-1-.826v-6.307c-.371-3.332-4.61-3.369-5.01 0v6.311c-.177.612-.292.851-1 .826q-.03.236-.4-.083c-.534.165-.751-.156-.9-.661l-.012-6.39c-.369-3.33-4.611-3.368-5.01 0v6.311c-.175.6-.3.858-1 .824.041.215-.047.235-.149.036-.336-.02-.96-.389-.959-.869l.01-6.554a4.48 4.48 0 0 1 2.176-3.65 3.084 3.084 0 0 1 2.419-4.984c.25-.422 1-.087 1.39.1a3.3 3.3 0 0 1 1.41 4.73 4.7 4.7 0 0 0 .849.908 7.3 7.3 0 0 0 .926-.842 3.287 3.287 0 0 1 1.374-4.8c.387-.176 1.144-.494 1.375-.061"/><path fill="#fdc595" d="M8.791 15.1a1.194 1.194 0 0 1 1.615.666 1.215 1.215 0 1 1-1.615-.666"/><path fill="#dd9e79" d="M52.738 15.098a1.19 1.19 0 0 1 1.615.667 1.21 1.21 0 0 1-.686 1.577 1.215 1.215 0 0 1-.929-2.245"/><path fill="#fdc595" d="M45.413 15.1a1.194 1.194 0 0 1 1.616.666 1.215 1.215 0 1 1-1.616-.666"/><path fill="#dd9e79" d="M38.089 15.098a1.19 1.19 0 0 1 1.615.667 1.21 1.21 0 0 1-.686 1.577 1.215 1.215 0 0 1-.929-2.245"/><path fill="#fdc595" d="M30.765 15.1a1.194 1.194 0 0 1 1.616.666 1.215 1.215 0 1 1-1.616-.666"/><path fill="#dd9e79" d="M16.116 15.098a1.19 1.19 0 0 1 1.615.667 1.21 1.21 0 0 1-.689 1.578 1.215 1.215 0 0 1-.929-2.245"/><path fill="#fdc595" d="M23.439 15.1a1.194 1.194 0 0 1 1.615.666 1.215 1.215 0 1 1-1.615-.666"/><path fill="#fee16e" d="m44.992 8.717-.061 1.849h-5.388l-.074-1.771a2.763 2.763 0 0 1 5.521-.078"/><path fill="#fec44b" d="M37.667 8.717a9 9 0 0 0-.041 1.843h-5.428a7.8 7.8 0 0 0-.044-1.764 2.759 2.759 0 0 1 5.512-.078"/><path fill="#f6765b" d="M30.337 8.719a9.3 9.3 0 0 0-.034 1.841h-5.431a7.8 7.8 0 0 0-.043-1.763 2.756 2.756 0 0 1 5.506-.077"/><path fill="#b67d5a" d="M23.009 8.592a13 13 0 0 0-.042 1.965h-5.4a10.4 10.4 0 0 0-.055-1.887 2.762 2.762 0 0 1 5.5-.079"/><path fill="#d0e06e" d="M50.261 6.207a2.89 2.89 0 0 1 .253 2.839 2.65 2.65 0 0 1-2.368 1.515h-1.277l-.065-1.889a2.766 2.766 0 0 1 3.456-2.465"/><path fill="#9879b7" d="M15.685 8.591a16 16 0 0 0-.052 1.975h-5.375l-.068-2.011a2.764 2.764 0 0 1 5.495.036"/><path d="M53.196 11.339c-.537.52-1.012-.339-1.133-.926a7.3 7.3 0 0 0-.211-2.553 5.1 5.1 0 0 0-1.59-1.654l-.241.2a2.52 2.52 0 0 0-2.948 2.115l-.266.156.016 1.846c.528.378-.587 1.392-.961.8-.338.623-1.35-.409-.872-.833V8.725l-.258-.171a2.515 2.515 0 0 0-5 .072l-.262.169.016 1.662c.556.449-.587 1.463-.943.869-.351.619-1.37-.438-.873-.853V8.718l-.264-.163a2.512 2.512 0 0 0-4.99.073l-.258.168.014 1.75c.482.392-.572 1.343-.958.769-.341.573-1.4-.457-.883-.822l.001-1.775-.262-.166a2.51 2.51 0 0 0-4.986.075l-.252.173.017 1.7c.508.406-.554 1.4-.967.817-.373.625-1.362-.45-.864-.878l-.008-1.845-.271-.153a2.514 2.514 0 0 0-4.963.075l-.268.157v1.821c.5.465-.622 1.5-.944.824-.381.619-1.367-.449-.875-.872V8.594l-.271-.152a2.515 2.515 0 0 0-4.948-.032l-.275.148v2c.45.431-.624 1.378-.966.789-1.04.087-1.023-1.476-.886-2.881a4.58 4.58 0 0 1 2.177-3.507A3.074 3.074 0 0 1 14.004.176a3.01 3.01 0 0 1 1.85 1.907 3.13 3.13 0 0 1-.487 2.886 5.7 5.7 0 0 1 1.235 1.078 5.7 5.7 0 0 1 1.24-1.082 3.078 3.078 0 0 1 3.49-4.79 3.02 3.02 0 0 1 1.85 1.908 3.13 3.13 0 0 1-.487 2.886 5.7 5.7 0 0 1 1.235 1.078 5.7 5.7 0 0 1 1.241-1.082 3.078 3.078 0 0 1 3.482-4.79 3.02 3.02 0 0 1 1.85 1.908 3.13 3.13 0 0 1-.487 2.886 5.6 5.6 0 0 1 1.235 1.079 6.7 6.7 0 0 1 1.236-1.1 3.074 3.074 0 0 1 3.49-4.772 3.01 3.01 0 0 1 1.855 1.907 3.13 3.13 0 0 1-.487 2.886 5.7 5.7 0 0 1 1.234 1.078 5.7 5.7 0 0 1 1.241-1.082 3.078 3.078 0 0 1 3.482-4.79 3.02 3.02 0 0 1 1.85 1.908 3.14 3.14 0 0 1-.487 2.886A5.7 5.7 0 0 1 45.9 6.047a5.7 5.7 0 0 1 1.24-1.082 3.078 3.078 0 0 1 3.486-4.79 3.02 3.02 0 0 1 1.851 1.908 3.13 3.13 0 0 1-.489 2.885 4.53 4.53 0 0 1 2.172 3.495c.148 1.468.134 3.051-.965 2.876"/><path fill="#fdc595" d="M41.871 1.903a1.2 1.2 0 0 1 1.525.784 1.216 1.216 0 0 1-2.286.825 1.2 1.2 0 0 1 .761-1.608"/><path fill="#dd9e79" d="M49.201 1.899a1.2 1.2 0 0 1 1.522.787 1.216 1.216 0 1 1-1.522-.787"/><path fill="#fdc595" d="M34.547 1.903a1.2 1.2 0 0 1 1.525.784 1.216 1.216 0 0 1-2.286.825 1.2 1.2 0 0 1 .761-1.608"/><path fill="#dd9e79" d="M27.224 1.899a1.2 1.2 0 0 1 1.522.787 1.216 1.216 0 1 1-1.522-.787"/><path fill="#fdc595" d="M19.898 1.903a1.2 1.2 0 0 1 1.525.784 1.216 1.216 0 0 1-2.286.825 1.2 1.2 0 0 1 .761-1.608m-7.325-.001a1.2 1.2 0 0 1 1.525.784 1.216 1.216 0 0 1-2.286.825 1.2 1.2 0 0 1 .761-1.608"/></g></svg>