<svg xmlns="http://www.w3.org/2000/svg" width="66.012" height="66" viewBox="0 0 66.012 66"><defs><clipPath id="a"><path fill="none" d="M0 0h66.012v66H0z"/></clipPath></defs><g clip-path="url(#a)"><path fill="#f89f8e" d="m58.775 6.982.119.245q-5.589 5.664-11.286 11.2l-.841.451a9.4 9.4 0 0 1-4.633-.117l-.427.165q-.254.437-.588.4c-.824-.29-1.669-.448-2.438-.771a1.01 1.01 0 0 0-.475-1.234 27 27 0 0 1-3.056-1.518l2.115-1.13c1.3 1.887 4.144 2.932 6.427 2.893a.97.97 0 0 0 .849-1.055l.145-.281a2.53 2.53 0 0 0 1.957-2.192l.272-.156a1.1 1.1 0 0 0 .816-.387 1.03 1.03 0 0 0 .064-1.115l-.769-1.421a3.1 3.1 0 0 0-.791-.959l7.212-8.335Z"/><path d="M41.123 19.328a1.136 1.136 0 0 1 1.275-.8l2.029.333a4 4 0 0 0 3.543-1.064L58.776 6.982a.947.947 0 0 1 1.426.035 1.07 1.07 0 0 1-.082 1.467L49.444 19.13a5.58 5.58 0 0 1-4.735 1.74l-2.353-.334c-.7-.1-1.3-.559-1.232-1.209"/><path fill="#fcaf9f" d="M46.915 13.881a2.775 2.775 0 0 1-2.374 2.629 1.04 1.04 0 0 0-1.033-.864c-1.852-.078-4.186-.876-4.9-2.583a1.022 1.022 0 0 0-1.463-.532l-3.589 1.956a2.62 2.62 0 0 1-3.73-1.207l6.542-4.094 4.742-.2a2.45 2.45 0 0 1 1.74.612l2.35 2.153.791 1.4a1.2 1.2 0 0 0 .926.734"/><path d="M53.088 0c.282.221.6.441.649.718a1 1 0 0 1-.289.945l.119.26q-3.521 4.012-6.934 8.084c.611.764 1.8 2.4 1.462 3.371-.146.421-.9 1.012-1.177.5-.412.447-.86-.135-1.114-.544l-.8-1.43a18 18 0 0 0-3-2.526 2.3 2.3 0 0 0-.7-.139l-4.865.188-6.272 3.945a2.34 2.34 0 0 0 3.183.933l3.754-2.04q1.407-.451 2.128 1.34a6.17 6.17 0 0 0 4.448 1.8c.547.149 1.3.526.865 1.106.556.237-.015 1.032-.441 1.216-1.63.7-5.924-1.166-6.949-2.7l-1.464.786a29 29 0 0 0 2.638 1.282c.528.3 1.011 1.125.36 1.464a.956.956 0 0 1-1.343.535l-2.014-.941a17 17 0 0 1-2.323-1.331l-4.227 2.313a4.42 4.42 0 0 1-3.918.319 4.12 4.12 0 0 1-2.397-2.712 3.62 3.62 0 0 1-1.891-2.642 4.47 4.47 0 0 1-1.857-1.93 1.95 1.95 0 0 1 .542-2.334L28.614 4.4c.347-.2.88.1 1.2.195l8.463 2.456c1.386.4 3.872-1.048 6.508 1.622L52.315 0Z"/><path fill="#f89f8e" d="M29.73 9.632a1.33 1.33 0 0 0-1.079-.061l-4.925 2.682a2.3 2.3 0 0 1-3.229-.9l8.542-4.944L34.56 8.03l-3.253 2.045Z"/><path fill="#f79f8e" d="M27.992 13.831c-1.936 1.009-3.531 2.461-5.128.7a5.1 5.1 0 0 0 2.023-.726l3.511-1.872a2.63 2.63 0 0 0-.406 1.9"/><path fill="#f69e8e" d="M27.918 17.358a2.42 2.42 0 0 1-2.834-.055c1.511-.284 2.668-1.238 3.979-1.82a3.3 3.3 0 0 0 .9.714Z"/><path fill="#6c3328" d="m49.468 44.54.28.145a2.53 2.53 0 0 0 2.172 1.966l.154.273a1.24 1.24 0 0 0 .475.859 1 1 0 0 0 1.038.008l1.344-.717a4.3 4.3 0 0 0 1.063-.826l8.313 7.21-5.316 5.32-10.813-10.806a4.23 4.23 0 0 1-1.041-3.785 23.4 23.4 0 0 1 3.036-9.024l1.127 2.1c-1.872 1.315-2.784 3.864-2.918 6.166a1.006 1.006 0 0 0 1.085 1.11"/><path fill="#863f30" d="M52.077 46.923a2.77 2.77 0 0 1-2.606-2.384 1.026 1.026 0 0 0 .859-1.033 7.64 7.64 0 0 1 1.061-3.578c.762-1.3 1.862-1.2 2.134-1.947a1.07 1.07 0 0 0-.124-.925l-1.912-3.5a2.62 2.62 0 0 1 1.207-3.729l4.093 6.543.205 4.609a2.66 2.66 0 0 1-.673 1.942L54.227 45.2l-1.4.789a1.3 1.3 0 0 0-.754.937"/><path d="m64.307 53.459-.259.116-8.042-6.976c-.777.607-2.953 2.254-3.8 1.226-.24-.29-.482-.634-.131-.9l-.216-.212a4.24 4.24 0 0 1 2.211-1.717 18 18 0 0 0 2.5-2.969 2.5 2.5 0 0 0 .164-.841l-.192-4.75-3.942-6.271a2.336 2.336 0 0 0-.933 3.182l2.023 3.719q.493 1.428-1.41 2.222a6.5 6.5 0 0 0-1.723 4.455c-.124.527-.6 1.261-1.09.8-.227.553-.975.024-1.2-.414-.772-1.529 1.154-6 2.676-6.975a7.6 7.6 0 0 0-.782-1.457c-.268 0-1.641 3.618-1.822 4.194-.5 1.591-1.208 4.235-.974 5.874a3.48 3.48 0 0 0 .9 1.939l10.788 10.784-.071.293a.944.944 0 0 1 .034 1.36 1.06 1.06 0 0 1-1.537-.017L46.843 49.449a6.2 6.2 0 0 1-1.663-5.536 25.8 25.8 0 0 1 3.983-10.894l-2.323-4.242a4.42 4.42 0 0 1-.318-3.92 4.12 4.12 0 0 1 2.708-2.392 3.63 3.63 0 0 1 2.651-1.888 4.63 4.63 0 0 1 1.721-1.757 2.06 2.06 0 0 1 2.857.894l4.839 8.411c.185.321.409.589.289 1l-2.672 9.143a8 8 0 0 0 .045 2.265 5.08 5.08 0 0 1-1.66 4.241l8.086 6.967c.489.421.854.9.463 1.539a.986.986 0 0 1-1.539.178"/><path fill="#6c3328" d="m55.906 31.341.544-1.969a1.2 1.2 0 0 0-.136-.906l-2.597-4.743a2.29 2.29 0 0 1 .9-3.229l4.94 8.537-1.62 5.522Z"/><path fill="#6b3328" d="M54.043 28.432a2.48 2.48 0 0 0-1.9-.44l-1.302-2.427a2.15 2.15 0 0 1 .6-2.7 5 5 0 0 0 .727 2.024Z"/><path fill="#6b3228" d="M50.498 29.049a4 4 0 0 0-.731.921l-1.365-2.479a2.165 2.165 0 0 1 .262-2.4 7 7 0 0 0 .688 1.837Z"/><path fill="#fecdbf" d="m21.676 49.214-.126.274a2.445 2.445 0 0 0-1.957 2.439 1.05 1.05 0 0 0-1.023.21.89.89 0 0 0-.226 1.032l.8 1.512a2.7 2.7 0 0 0 .842 1.035l-7.468 8.594-5.324-5.318 11-11.011a4.2 4.2 0 0 1 3.721-1.095 23.9 23.9 0 0 1 9.142 3.034l-2.109 1.141c-1.325-1.885-3.806-2.753-6.141-2.918a1 1 0 0 0-1.127 1.069"/><path fill="#fedecf" d="M21.677 49.213a1.02 1.02 0 0 0 1.008.876c1.878.076 4.153.861 4.915 2.577a1.023 1.023 0 0 0 1.494.524l3.587-1.954a2.63 2.63 0 0 1 3.716 1.209l-6.541 4.1-4.6.215a2.87 2.87 0 0 1-2.106-.792L21.002 54l-.835-1.481a1.2 1.2 0 0 0-.573-.586c-.8-.323.425-2.591 2.083-2.715"/><path d="m12.518 64.309-.116-.259 7.208-8.3c-.636-.776-1.915-2.56-1.443-3.509a.868.868 0 0 1 1.427-.311q.445-.276.761.4a9.7 9.7 0 0 0 3.046 3.513 2.68 2.68 0 0 0 1.636.658l4.751-.2 6.269-3.945a2.35 2.35 0 0 0-3.17-.934l-3.748 2.037q-1.43.48-2.186-1.346a6.07 6.07 0 0 0-4.364-1.77c-.571-.139-1.385-.529-.913-1.127-.568-.4.079-1.09.625-1.268 1.662-.542 5.727 1.257 6.755 2.763a8 8 0 0 0 1.463-.791c.032-.224-3.53-1.6-4.115-1.782-1.613-.513-4.363-1.26-6.019-.993a3.6 3.6 0 0 0-1.92.931L7.487 59.066l-.294-.071a.944.944 0 0 1-1.361.033 1.067 1.067 0 0 1 .015-1.539l11.072-11.016a5.91 5.91 0 0 1 4.929-1.574 26.2 26.2 0 0 1 11.349 4.01l4.419-2.4a3.9 3.9 0 0 1 2.21-.517 4.045 4.045 0 0 1 3.877 2.934 4.13 4.13 0 0 1 1.726 1.893l.28.9a3.7 3.7 0 0 1 1.934 2.328 2 2 0 0 1-.653 1.839l-9.109 5.317a1.82 1.82 0 0 1-1.508-.046l-8.33-2.478a6.7 6.7 0 0 0-2.134.07 5.38 5.38 0 0 1-4.484-1.692l-7.381 8.516a1.01 1.01 0 0 1-1.5.167.97.97 0 0 1-.034-1.431"/><path fill="#fecdbf" d="m34.889 55.66 1.94.552a1.1 1.1 0 0 0 .851-.1l4.748-2.6a2.31 2.31 0 0 1 3.287.886l-8.569 4.937-5.482-1.637Z"/><path fill="#fdcdbf" d="m41.942 51.608-4.146 2.195a2.68 2.68 0 0 0 .43-1.9l2.179-1.19a2.276 2.276 0 0 1 2.95.5 4.7 4.7 0 0 0-1.413.4"/><path fill="#fcccbe" d="m39.597 48.944-2.386 1.3a6.4 6.4 0 0 0-1.016-.724l2.285-1.246a2.34 2.34 0 0 1 2.653.155 6 6 0 0 0-1.536.514"/><path fill="#fb78a7" d="M38.687 27.57c2 1.9.689 5.124-1.072 6.763l-5.82 5.7-.291-.076-.286.081-2.424-2.366h-1.085l-1.778-1.879a.63.63 0 0 1 .011-.646l-.056-.333c-3.641-4.277.987-10.111 6-7.113q.721.9 1.485.6a4.8 4.8 0 0 1 3.58-1.435c.569.025 1.588.113 1.737.7"/><path d="M27.709 37.677a1 1 0 0 1 1.348-.119l2.447 2.4.261-.1 1.233 1.224 6.717-6.712a4.1 4.1 0 0 0 1.125-2.282c.267-2.034-.775-3.2-2.151-4.517a4.38 4.38 0 0 0-5.015.819.965.965 0 0 1-1.369 0 4.39 4.39 0 0 0-5.986-.178 4.34 4.34 0 0 0-.455 6.09 1.08 1.08 0 0 1 .068 1.5.9.9 0 0 1-.849.284c-.36-.034-.551-.286-.789-.584a6.24 6.24 0 0 1-1.4-4.716 6.382 6.382 0 0 1 10.123-4.4 6.322 6.322 0 0 1 8.624 9.117l-7.4 7.472a1.89 1.89 0 0 1-2.487 0l-4.022-3.963a.94.94 0 0 1-.022-1.338"/><path fill="#fb5a94" d="m31.505 39.962 5.958-5.84c1.9-1.9 2.626-4.3 1.225-6.552a4.376 4.376 0 0 1 1.113 7.079l-6.8 6.8Z"/><path fill="#a24f41" d="m16.761 21.673-.273-.134a2.46 2.46 0 0 0-2.443-1.942 1.09 1.09 0 0 0-.21-1.027.89.89 0 0 0-1.033-.226l-1.513.8a2.7 2.7 0 0 0-1.033.841l-8.595-7.467 5.32-5.325 11.012 11a4.2 4.2 0 0 1 1.094 3.72 24.1 24.1 0 0 1-3.031 9.148l-1.144-2.112c1.887-1.338 2.75-3.8 2.918-6.144a1 1 0 0 0-1.068-1.129M6.166 35.103l.805-2.469a.91.91 0 0 0 .776-.092 1.5 1.5 0 0 0 .548-.87l2.026 3.249-.557 1.907a1 1 0 0 0 .063.758l2.719 5.015a2.25 2.25 0 0 1-.958 3.106l-4.7-8.121a.86.86 0 0 1-.1-.934 1.1 1.1 0 0 0-.622-1.55"/><path fill="#b95d4f" d="M16.762 21.674a1.02 1.02 0 0 0-.878 1.01c-.076 1.876-.87 4.162-2.579 4.918a.992.992 0 0 0-.557 1.4l2.1 3.942a2.536 2.536 0 0 1-1.318 3.444l-4.1-6.534-.215-4.6a2.7 2.7 0 0 1 .676-1.964l2.086-2.283 1.4-.782a1.4 1.4 0 0 0 .668-.622.6.6 0 0 1 .144-.218c.4-.359 2.481.726 2.572 2.293"/><path d="M6.164 35.102c.954-.338 1.213 1.149.782 1.88q2.226 4.237 4.75 8.36a1.975 1.975 0 0 0 .7-2.462l-2.888-5.393a7.2 7.2 0 0 1 .53-2.53 23.5 23.5 0 0 0-1.744-2.638c-.25.48-1.21.967-1.326.314a.947.947 0 0 1-.709-1.114l1.056-3.7c.339-1.185-1.114-3.719 1.6-6.4L0 13.659v-.9c.17-.067.307-.3.473-.4a.954.954 0 0 1 1.188.167l.259-.116q4.142 3.619 8.317 7.194c.8-.627 2.949-2.246 3.79-1.2.4.5.4.738.019 1.2.217.2.125.371-.092.541l-1.822 1.066a18 18 0 0 0-2.5 2.988 2.6 2.6 0 0 0-.163.85l.2 4.746 3.946 6.262a2.25 2.25 0 0 0 1.037-2.909l-2.176-4.1q-.4-1.353 1.377-2.088a6.1 6.1 0 0 0 1.774-4.369c.14-.571.533-1.391 1.129-.915.233-.558.973-.016 1.189.431.725 1.5-1.132 6.031-2.706 6.917a7.2 7.2 0 0 0 .815 1.5c.222.037 1.594-3.542 1.778-4.12.512-1.613 1.261-4.363.994-6.018a3.6 3.6 0 0 0-.931-1.921L6.91 7.488l.071-.294a.95.95 0 0 1 .036-1.427 1.073 1.073 0 0 1 1.469.082l10.9 10.937a6.06 6.06 0 0 1 1.689 5.174 26.4 26.4 0 0 1-4.009 11.238l2.4 4.42a3.9 3.9 0 0 1 .516 2.21 4.045 4.045 0 0 1-2.934 3.877 4.14 4.14 0 0 1-1.892 1.725l-.9.282a3.4 3.4 0 0 1-2.674 1.944 1.96 1.96 0 0 1-1.494-.659l-5.312-9.119c-.329-.565-.059-1.1.089-1.7s.63-1.27 1.3-1.074"/><path fill="#a24e41" d="M15.244 40.363a2.25 2.25 0 0 1-.5 2.981 4.3 4.3 0 0 0-.373-1.4l-2.191-4.11a2.9 2.9 0 0 0 1.9.4Z"/><path fill="#a14e40" d="M17.544 41.135a6.2 6.2 0 0 0-.535-1.579l-1.285-2.383a4.1 4.1 0 0 0 .726-.979l1.245 2.287a2.37 2.37 0 0 1-.153 2.654"/></g></svg>