<svg xmlns="http://www.w3.org/2000/svg" width="137.887" height="138.718" viewBox="0 0 137.887 138.718"><defs><clipPath id="a"><path fill="none" d="M0 0h80.984v75.967H0z"/></clipPath></defs><g transform="translate(-731.789 -1307)"><ellipse cx="68.944" cy="69.359" fill="#fff" rx="68.944" ry="69.359" transform="translate(731.789 1307)"/><path fill="#fff" d="M800.733 1310a65.36 65.36 0 0 0-36.861 11.327 66.558 66.558 0 0 0 0 110.065 65.54 65.54 0 0 0 73.721 0 66.558 66.558 0 0 0 0-110.065 65.36 65.36 0 0 0-36.86-11.327m0-3c38.076 0 68.944 31.053 68.944 69.359s-30.867 69.359-68.944 69.359-68.944-31.053-68.944-69.359S762.656 1307 800.733 1307"/><g clip-path="url(#a)" transform="translate(760.789 1336)"><path d="M65.589 39.041c0 .5-.631.871-1.015.9-.51.033-1.265-.1-1.275-.661l-.047-2.489c-.01-.514.725-.889 1.144-.86.6.042 1.2.388 1.2 1.027Z"/><path d="M63.866 0a1.8 1.8 0 0 0 1.107 0h.632c.1.263.381.1.635.123C73.938.953 80 6.6 80.875 13.848 81.929 22.6 75 30.454 65.633 31.119l-.012 1.539a1.24 1.24 0 0 1-1.064 1.324 1.19 1.19 0 0 1-1.335-1l-.008-1.865a16.84 16.84 0 0 1-13.56-8.354l-10.09 5.92a18.79 18.79 0 0 1-.084 20.393l9.528 5.578a14.8 14.8 0 0 1 4.064-5.58 16.9 16.9 0 0 1 10.138-4.2l.033-1.994c.009-.519.713-.877 1.173-.877a1.14 1.14 0 0 1 1.184 1.035l.031 1.828c7.93.552 14.337 6.339 15.246 13.805C81.935 67.37 75.053 75.2 65.7 75.916c-8.962.689-16.923-5.607-17.809-14.025l-.073-1.491.1-1.64.292-1.875-10.116-5.921a21.95 21.95 0 0 1-21.18 7.414C7.806 56.645.976 49.351 0 40.96l.067-4.316c.163-7.573 6.312-14.257 13.669-16.831A22.56 22.56 0 0 1 38.3 26.356l9.983-5.865a15.11 15.11 0 0 1 3.49-15.415A15.24 15.24 0 0 1 63.235.064Z"/><path fill="#5f98d6" d="M31.824 28.234a1.17 1.17 0 0 1-.146.856 9.3 9.3 0 0 0 1.786 2.516l1.2 2.107a10 10 0 0 0 1.008.57 2.1 2.1 0 0 1 .728 2.557 1.17 1.17 0 0 0-1.059 1.3 12.76 12.76 0 0 1-3.99 9.936l-1.14-1.052-4.848-3.761a2.34 2.34 0 0 1 .012-1.334 7.3 7.3 0 0 0 3.746-6.313l-.011-7.57a4.1 4.1 0 0 0-.682-1.909l.511-.094a28 28 0 0 1 2.722 1.727Z"/><path fill="#97bbe4" d="M24.046 21.317a18.52 18.52 0 0 1 15.382 12.8 17.13 17.13 0 0 1-7.139 19.036l-.024-2.824a15.05 15.05 0 0 0 5.439-12.431 1.176 1.176 0 0 0-1.306-1.062 8 8 0 0 0-.728-2.558.97.97 0 0 1 .449-.708c.469-1-2.21-4.321-3.081-5.117q-.6-.139-1.212-.225a27.5 27.5 0 0 0-3.4-2.1 4.42 4.42 0 0 0-3.132-1.531q-3.646-.085-7.289-.164a5.6 5.6 0 0 1 2.021-1.633 7.2 7.2 0 0 1 4.02-1.482"/><path fill="#7aabde" d="m24.046 21.316-.472.073a20.3 20.3 0 0 0-5.419 3.09l2.348-.046c.558-.011.96-.029 1.52 0l3.27.174-7.552-.036-2.272-.654a1.69 1.69 0 0 0-2.118 1.643l-.016 1.014-.132.378q-1.128.71-2.22 1.482l-.4-.251a1.33 1.33 0 0 0-1.437.108 14.8 14.8 0 0 0 1.07 22.034l-.085 2.8C2.984 48.197.437 39.436 3.889 31.847c3.348-7.36 11.7-11.792 20.151-10.533"/><path fill="#3c86cf" d="m13.401 36.64-.319-.093-.14-4.89a17.3 17.3 0 0 0-.019 14.14l-.011.709a9.5 9.5 0 0 0-1.769 1.572 12.64 12.64 0 0 1-.475-18.044 1.21 1.21 0 0 0 .438-1.01 1.3 1.3 0 0 0-.516-.837c.436.2 1.492-1.153 2.747-1.61l.055 3.87Z"/><path fill="#5f98d6" d="M13.401 36.64a7.46 7.46 0 0 0 3.717 5.3 3.6 3.6 0 0 1 0 1.3l-4.208 3.265a17.6 17.6 0 0 1 .317-16.146Z"/><path d="M35.67 34.287a1.2 1.2 0 0 1-1.44-.678 13.2 13.2 0 0 0-2.54-3.7 1.1 1.1 0 0 1 .135-1.673 1.27 1.27 0 0 1 1.452.032 15.2 15.2 0 0 1 3.049 4.271 1.14 1.14 0 0 1-.656 1.747"/><path fill="#ace093" d="m15.091 55.552-.311-.26a12.6 12.6 0 0 1 .462-4.419c.617-1.17 2.943-3 4.4-3.091a5.93 5.93 0 0 0 5.409-1.467l.454-.026 3.284 2.521a2.57 2.57 0 0 1 1.1 2.094l-.028 3.666a19.95 19.95 0 0 1-14.773.987"/><path fill="#fdd1a3" d="M21.199 40.815a2.48 2.48 0 0 1-1.429-.82c-1.762-1.76-1.992-4.733-1.685-7.019l.321-.2h8.337l-.012 3.162c-.011 2.791-2.662 4.916-5.531 4.885"/><path fill="#96d97a" d="M25.504 46.29a5.81 5.81 0 0 1-5.285 1.826 2.82 2.82 0 0 0-2.2.559l-1.551 1.216a3.3 3.3 0 0 0-1.321 2.643l-.059 3.019a16 16 0 0 1-2.533-1.022l.009-3.866a2.05 2.05 0 0 1 .807-1.607l4.531-3.56a4.28 4.28 0 0 0 3.359 1.6 4.1 4.1 0 0 0 3.225-1.561 4.3 4.3 0 0 1 1.016.755"/><path fill="#908190" d="M26.75 28.626c-.016.116-.061.291-.147.295a38 38 0 0 1-5.116-.079q-1.4-.382-2.769-.669a8 8 0 0 0-.024 1.977l7.856-.027.188.3a.36.36 0 0 1-.336.158l-10.678-.042v-4.167l1.695.487 7.873.016c1.063 0 1.463.921 1.457 1.754"/><path fill="#febc85" d="m18.406 32.771-.067 2.851a6.25 6.25 0 0 0 2.86 5.193 5.33 5.33 0 0 1-5.47-5.107v-2.949Z"/><path fill="#a59aa5" d="m26.75 28.627-.013 1.793-8.388.029-.009-2.1a.477.477 0 0 1 .635-.475l2.422.675Z"/><path fill="#fcd0a3" d="M22.862 42.876a1.52 1.52 0 0 1-.554 1.612 1.75 1.75 0 0 1-1.961.159 1.63 1.63 0 0 1-.783-1.781 7.3 7.3 0 0 0 3.3.01"/><path fill="#434343" d="M64.973 0a.97.97 0 0 1-1.107 0Z"/><path fill="#f27c7c" d="M68.354 20.18a7.2 7.2 0 0 1 3.862 6.5 15.01 15.01 0 0 1-13.288 1.18.57.57 0 0 1-.235-.606c.15-3.04 3.485-6.053 6.436-6.94a4.87 4.87 0 0 1 3.224-.137"/><path fill="#7aabde" d="m66.549 2.436-.179.467-2.273 1.4.095.2a11.92 11.92 0 0 0-10.303 6.059 10.52 10.52 0 0 0 1.268 11.913 10 10 0 0 0-.829 2.462 12.67 12.67 0 0 1-2.411-15.64 14.51 14.51 0 0 1 14.629-6.86"/><path fill="#97bbe4" d="M64.191 4.504a3 3 0 0 1-.715-.086 26 26 0 0 1 3.072-1.982 14.12 14.12 0 0 1 11.14 8.54 12.7 12.7 0 0 1-3.2 13.951 16 16 0 0 0-.826-2.49 10.49 10.49 0 0 0 1.1-12.142 12.02 12.02 0 0 0-10.569-5.791"/><path fill="#fee4c1" d="M65.253 16.861c-1-.074-1.7-1.054-2.186-1.823a6.19 6.19 0 0 1-.223-6.335c.435-.793 1.075-1.777 2.053-1.929a5.056 5.056 0 0 1 .356 10.088"/><path fill="#ed6161" d="M68.356 20.18c-4.832-.124-8.971 3.234-9.425 7.683a13 13 0 0 1-2.341-1.184 7.22 7.22 0 0 1 3.712-6.422 8.21 8.21 0 0 1 8.054-.077"/><path fill="#fdd1a3" d="M64.894 6.773a6.17 6.17 0 0 0-2.489 5.3 6.39 6.39 0 0 0 2.845 4.787 5.33 5.33 0 0 1-6.27-4.885 5.275 5.275 0 0 1 5.914-5.2"/><path fill="#5f98d6" d="M72.303 20.417a11 11 0 0 0-3.478-2.533 7.285 7.285 0 0 0 3.266-7.392 8.37 8.37 0 0 1 .212 9.926"/><path fill="#3c86cf" d="M56.625 11.145a7.17 7.17 0 0 0 1.348 4.841q.268 1.3.493 2.62l-.261.275a8 8 0 0 0-1.683 1.53 8.35 8.35 0 0 1-.077-9.577c.209-.267.288.053.181.309"/><path fill="#5d97d4" d="M58.205 18.884c-.194-1.02-.555-2.134-.232-2.9a9.3 9.3 0 0 0 1.971 1.88Z"/><path fill="#224d77" d="M56.625 11.146a.33.33 0 0 0-.181-.309c.069-.1.081-.239.273-.3a.53.53 0 0 1-.092.612"/><path fill="#fde87d" d="M68.362 64.982a7.22 7.22 0 0 1 3.852 6.5 14.95 14.95 0 0 1-13.431 1.105c-.5-.746.174-2.133.589-2.934 1.527-2.949 5.416-5.62 8.991-4.674"/><path fill="#97bbe4" d="M66.75 47.268a14.09 14.09 0 0 1 10.943 8.525 12.66 12.66 0 0 1-3.186 13.9 17.5 17.5 0 0 0-.861-2.434 11.2 11.2 0 0 0 2.246-4.342 1.14 1.14 0 0 0-.926-1.461l-.32-.162-.057-2.182.311-.218a1.115 1.115 0 0 0 .862-1.483 11.835 11.835 0 0 0-12.041-8.09q-1 .111-.8-.335c.255-.506 3-2.04 3.829-1.718"/><path fill="#7aabde" d="M66.751 47.268c-1.209.145-2.552 1.193-3.716 1.981a4 4 0 0 0 .686.072 11.88 11.88 0 0 0-9.892 6.157 10.53 10.53 0 0 0 1.332 11.806 9.4 9.4 0 0 0-.828 2.456 12.67 12.67 0 0 1-2.358-15.737 14.53 14.53 0 0 1 14.776-6.734"/><path fill="#fee4c1" d="M65.019 51.581a5.226 5.226 0 0 1 4.8 4.9 5.127 5.127 0 0 1-4.491 5.14c-2.438.364-3.749-2.928-3.8-4.829-.049-1.938 1.111-5.147 3.486-5.214"/><path fill="#fde35a" d="M68.362 64.981a8.983 8.983 0 0 0-9.58 7.608l-2.193-1.109a7.24 7.24 0 0 1 3.7-6.42 8.18 8.18 0 0 1 8.072-.079"/><path fill="#fdd1a3" d="M65.02 51.581a1.6 1.6 0 0 0-.6.145 5.967 5.967 0 0 0 .069 9.865l.838.033a5.135 5.135 0 1 1-.31-10.043"/><path fill="#5f98d6" d="m74.9 58.894.067 2.563c-1.687-.285-1.271 2.05-2.7 3.769a10.5 10.5 0 0 0-3.446-2.562 7.19 7.19 0 0 0 3.265-7.336c1.418 1.541 1.168 3.92 2.812 3.566"/><path fill="#3c86cf" d="M56.622 55.964a7.23 7.23 0 0 0 .9 4.13q.323 1.632.612 3.285l-.169.489L56.5 65.2a8.37 8.37 0 0 1-.065-9.55c.268-.128.289.078.186.314"/><path fill="#5e97d5" d="M57.966 63.868a8.6 8.6 0 0 1-.443-3.773 8.6 8.6 0 0 0 2.436 2.586Z"/><path fill="#23507b" d="M56.622 55.964a.33.33 0 0 0-.186-.314c.071-.107.1-.227.278-.3a.515.515 0 0 1-.092.613"/></g></g></svg>