<svg xmlns="http://www.w3.org/2000/svg" width="71.751" height="71.754" viewBox="0 0 71.751 71.754"><defs><clipPath id="a"><path fill="none" d="M0 0h71.751v71.754H0z"/></clipPath></defs><g clip-path="url(#a)"><path fill="#918bd8" d="M47.082 59.991h-2.781a1.077 1.077 0 0 0-.986-1.156l-6.217-.014-.016-5.26a1.074 1.074 0 0 0-1.091-1.106 4.7 4.7 0 0 1 .03-9.4 1.04 1.04 0 0 0 1.056-1.064l.009-5.286 4.337-.011a6.8 6.8 0 0 0 13.432.021l4.349-.014-.01 4.238a4.28 4.28 0 0 0-3.09 4.51l-2.247.017a4.37 4.37 0 0 0-3.726 1.982 4.22 4.22 0 0 0-.055 4.5l2.8 4.764a6 6 0 0 0 1.989 1.94 3.7 3.7 0 0 1-1.328.166l-5.473.017a1.074 1.074 0 0 0-.987 1.154"/><path fill="#59c1e7" d="M28.778 11.337a1.7 1.7 0 0 0 .114.563l-.142.743a34.6 34.6 0 0 0-4.489 15.938l-.141.275a6.786 6.786 0 0 0-6.929 5.751l-4.35-.025.027-3.875a4.26 4.26 0 0 0 2.792-4.414c2.586.156 4.9.082 6.134-2.269a3.99 3.99 0 0 0 .034-3.941l-2.726-4.7a6 6 0 0 0-2.739-2.534 5.6 5.6 0 0 1 2.147-.376l6.3.008a1.17 1.17 0 0 0 1.227-1.151Z"/><path fill="#90d3f1" d="M24.119 28.856a.8.8 0 0 1-.163-.7c.494-5.706 1.814-11.543 4.935-16.26.172.2.491.54.839.541l5.242.018.015 5.336a1.02 1.02 0 0 0 1.029 1.022 4.71 4.71 0 1 1-.079 9.419 1.02 1.02 0 0 0-.958 1.039v5.306H30.63a6.8 6.8 0 0 0-6.51-5.721"/><path d="M47.082 59.991c-.579-.584.154-1.2.808-1.421l6.229-.045a9.2 9.2 0 0 1-1.306-1.4l-3.135-5.324c-1.844-4.475 1.861-7.191 6.047-6.637a4.82 4.82 0 0 1 3.189-4.436l.009-3.738h-3.771a7.16 7.16 0 0 1-14.024-.019l-3.746.01L37.357 42q-.2 1.531-2.236 1.437a4.413 4.413 0 0 0 .1 8.663 1.94 1.94 0 0 1 2.061.982q.149 2.716.1 5.444l6.114.047c.647.192 1.385.857.809 1.422a.99.99 0 0 1-.888.948l-12.506.025a7.2 7.2 0 0 1-3.331 4.447 3.88 3.88 0 0 1 .53 4.031 4.26 4.26 0 0 1-2.737 2.31H16.4c-3.2-.225-4.371-4.3-2.335-6.609l-.926-1.057a10.5 10.5 0 0 1-1.072-5.979 7.48 7.48 0 0 1-1.648-4.356l-.07-22.667a7.63 7.63 0 0 1-4.081-3.123c-2.321 1.674-6.084.4-6.266-2.6v-8.97a4.27 4.27 0 0 1 2.594-2.863 4.03 4.03 0 0 1 4.077.929c1.537-1.979 4.078-2.223 6.5-2.109a8.07 8.07 0 0 1 4.2-1.993h7.576a1.02 1.02 0 0 1 1.085.969c.665.547-.3 1.2-.954 1.41q-3.982-.074-7.963.16a7.3 7.3 0 0 1 1.848 1.763l3.173 5.414c1.775 4.266-2.008 7.158-6.055 6.52l-.136.123a4.58 4.58 0 0 1-2.808 4.191 16.7 16.7 0 0 0 0 3.395 25 25 0 0 0 3.757.022 7.22 7.22 0 0 1 6.885-5.75l.338.281.344-.264a7.26 7.26 0 0 1 6.462 5.7h3.757l.018-5.035c.219-1.275.862-1.314 2.017-1.374a4.419 4.419 0 0 0 .324-8.669q-2.091.083-2.332-1.41.053-2.579-.1-5.074l-5.035-.031c-.4-.119-.929-.374-.683-.8-.437.041-.529-.434-.114-.563a1.03 1.03 0 0 1 1.078-.982l11.071.009a7.85 7.85 0 0 1 3.258-4.033 3.89 3.89 0 0 1-.478-4.151A3.84 3.84 0 0 1 46.939 0l7.841.023a3.76 3.76 0 0 1 3.358 2.351 3.91 3.91 0 0 1-.844 4.266c1.892 1.537 2.167 3.813 2.137 6.264a7.35 7.35 0 0 1 1.906 4.536l.063 23.479a7.9 7.9 0 0 1 4.017 3.257 3.9 3.9 0 0 1 4.064-.52 3.74 3.74 0 0 1 2.239 3.016l.03 8.137a3.86 3.86 0 0 1-2.463 3.358 3.99 3.99 0 0 1-4.2-.881 4.9 4.9 0 0 1-2.36 1.663 11.4 11.4 0 0 1-4.414.444 8.4 8.4 0 0 1-3.7 1.56l-6.65-.021a.98.98 0 0 1-.884-.943"/><path fill="#29cd69" d="M23.818 30.948a2.5 2.5 0 0 1 .181.387 1.4 1.4 0 0 1 .09.387c.227 5.284.435 9.734 1.917 14.9a37.7 37.7 0 0 0 4.3 9.707 13.4 13.4 0 0 0 1.528 2.116 28 28 0 0 1 2.932.007l.2.281c-.045.036-.115.128-.212.127l-4.063-.044a4.28 4.28 0 0 0-4.39-2.71l-.024-2.484a4.22 4.22 0 0 0-2.149-3.6 4.28 4.28 0 0 0-4.418.1l-4.756 2.81a5.9 5.9 0 0 0-1.855 1.927 3.7 3.7 0 0 1-.254-1.483v-16.67l5.368-.018a1.04 1.04 0 0 0 1-1.093 4.7 4.7 0 0 1 4.607-4.644"/><path fill="#73d98b" d="m34.966 58.729-3.292-.008c-6.021-7.633-8.041-18.278-7.858-27.773a4.687 4.687 0 0 1 4.785 4.641 1.07 1.07 0 0 0 1.122 1.105l5.256.007v4.329a6.81 6.81 0 0 0 .006 13.456Z"/><path fill="#fdd1a3" d="m13.158 27.952-.328.077c-2.388-3.083-2.756-10.044-.221-13.1a.84.84 0 0 1 .617-.385c1.419.039 2.87-.081 3.853 1.588l2.855 4.847a2.12 2.12 0 0 1-.106 2.245 2.19 2.19 0 0 1-1.805.968l-3.871.021a.98.98 0 0 0-.869.5c-.476.915.921 1.779-.126 3.238"/><path fill="#febc85" d="M13.226 14.546c-2.643 3.444-2.674 8.721-.692 12.55a2.7 2.7 0 0 0 .623.857 2 2 0 0 1-2.559.663 6 6 0 0 1-2.877-2.993 2.5 2.5 0 0 1 .01-.966l.121-8.081c.017-1.106 1.73-1.792 2.639-1.953a12.3 12.3 0 0 1 2.734-.077"/><path fill="#fc7a6e" d="m59.209 34.579-5.255.014a1.05 1.05 0 0 0-1.1 1.01 4.7 4.7 0 0 1-9.4.136 1.09 1.09 0 0 0-1.124-1.146l-5.248-.018.016-4.336a6.8 6.8 0 0 0 0-13.435l-.016-4.344 3.837.009a4.285 4.285 0 0 0 4.537 3.182l.017 2.246a4.37 4.37 0 0 0 1.977 3.725 4.23 4.23 0 0 0 4.5.057l4.5-2.642a5.87 5.87 0 0 0 2.456-2.7 3.7 3.7 0 0 1 .287 1.613Z"/><path fill="#da9d81" d="m62.009 56.921-.725.031c-2.762-2.148-5.032-5.566-4.416-9.2a5 5 0 0 1 1.023-.231 1.036 1.036 0 0 0 .592-1.46 2.085 2.085 0 0 1 .366-2.567c1.647-1.582 4.293.53 5.189 2.636.122.286-.018.662-.021.964l-.073 8.08c-.138.882-1.277 1.476-1.939 1.751"/><path fill="#fecabd" d="m55.27 7.906-.131.278-3.572-.077a13.4 13.4 0 0 0 1.544 10.106l.041.316-2.378 1.407a2.08 2.08 0 0 1-2.161-.055 2.13 2.13 0 0 1-1.024-1.749l-.022-3.986a1 1 0 0 0-.444-.811c-.941-.618-2.11 1.064-3.556-.366a1.99 1.99 0 0 1-.366-2.5c.583-1 1.639-2.618 2.943-2.644l6.131-.123 2.675-.018a.34.34 0 0 1 .319.222"/><path fill="#fedcce" d="M55.27 7.905c1.1.211 1.89 1.753 1.9 2.855l.027 3.817a3.01 3.01 0 0 1-1.566 2.49l-2.476 1.46c-.289-.067-.438-.324-.594-.617A14.74 14.74 0 0 1 51.28 7.818Z"/><path fill="#c7856a" d="M57.893 47.518a1.44 1.44 0 0 1-.728.133c-.693 3.407 1.463 6.8 4.1 8.945a1 1 0 0 0 .743.324 3.6 3.6 0 0 1-1.46.289l-3.093.01a3.15 3.15 0 0 1-2.716-1.526l-2.913-4.926a2.11 2.11 0 0 1 .1-2.244c1.051-1.591 3.661-.683 5.965-1.006"/><path fill="#29cd69" d="m54.599 5.63-7.365.014a1.77 1.77 0 0 1 0-3.54h7.284a1.753 1.753 0 0 1 1.758 1.664 1.72 1.72 0 0 1-1.675 1.862"/><path fill="#c4cef0" d="M69.656 54.452a1.774 1.774 0 0 1-1.773 1.82 1.75 1.75 0 0 1-1.77-1.756v-7.29a1.769 1.769 0 0 1 3.537 0Z"/><path fill="#f75647" d="M5.651 24.462a1.771 1.771 0 1 1-3.542.06v-7.289a1.769 1.769 0 0 1 3.537 0Z"/><path fill="#fedcce" d="M25.025 64.073a37 37 0 0 0-4.017-.116 1.1 1.1 0 0 1-.48-.247c-.78-.69-1.868-3.381-2.189-4.458-.386-1.3-.879-4.117-.48-5.373l.347-.418 2.783-1.643a2.07 2.07 0 0 1 2.158.048 2.12 2.12 0 0 1 1.024 1.749l.023 3.985a1.01 1.01 0 0 0 .529.866 1.07 1.07 0 0 0 .973.018 2.06 2.06 0 0 1 2.568.358c1.515 1.557-.293 3.962-2.328 5.062a1.76 1.76 0 0 1-.909.168"/><path fill="#fecabd" d="M18.204 53.462A13.82 13.82 0 0 0 21.03 63.92l3.787-.022c.151 0 .256.052.208.175l-8.434-.164c-1.233-.179-2.008-1.983-2.012-3.036l-.013-3.706a3.15 3.15 0 0 1 1.737-2.6Z"/><path fill="#59c1e7" d="m24.725 69.626-7.484.032a1.77 1.77 0 0 1-1.754-1.678 1.656 1.656 0 0 1 1.487-1.812h7.822a1.65 1.65 0 0 1 1.489 1.729 1.723 1.723 0 0 1-1.56 1.73"/></g></svg>