<svg xmlns="http://www.w3.org/2000/svg" width="137.887" height="138.718" viewBox="0 0 137.887 138.718"><defs><clipPath id="a"><path fill="none" d="M0 0h80.801v75.856H0z"/></clipPath></defs><g transform="translate(-1075.789 -1307)"><ellipse cx="68.944" cy="69.359" fill="#fff" rx="68.944" ry="69.359" transform="translate(1075.789 1307)"/><path fill="#fff" d="M1144.733 1310a65.36 65.36 0 0 0-36.861 11.327 66.558 66.558 0 0 0 0 110.065 65.54 65.54 0 0 0 73.721 0 66.558 66.558 0 0 0 0-110.065 65.36 65.36 0 0 0-36.86-11.327m0-3c38.076 0 68.944 31.053 68.944 69.359s-30.867 69.359-68.944 69.359-68.944-31.053-68.944-69.359 30.867-69.359 68.944-69.359"/><g clip-path="url(#a)" transform="translate(1103.789 1336)"><path d="M80.8 3.42v1.333a32.7 32.7 0 0 1-1.1 6.6 1.44 1.44 0 0 1-1.334.69l-3.623-.523q-2.358 12.248-4.6 24.507c.887.025 2.881.366 2.819 1.44-.01.171-.052.254-.266.335.522.806-.674 1.273-1.5 1.312L51.734 35.9l-.349 1.884a20.8 20.8 0 0 1 9.653.142c.849.184 3.3.719 3.807 1.205a1.43 1.43 0 0 1 .4 1.546c-.048.334-.471 1.463-.893 1.379l.141.472c-2.522 5.619-7.869 11.866-15.028 8.636l.193.8a1.22 1.22 0 0 1 .169 1.217l.15.037q1.4 1.7 2.742 3.461c1.8 0 5.7 2.164 6.218 3.716a.72.72 0 0 1-.044.495l.342-.005.694 1.371a13 13 0 0 0 3.835-.107q3.885-2.141 7.674-4.466a8.2 8.2 0 0 0 3.45-5.023l2.359-12.46c-.586-.141-2.1-.612-1.907-1.515.029-.137.169-.227.3-.3-.407-.246-.206-.531.09-.8.645-.6 3.286-.313 3.988.078a1.61 1.61 0 0 1 .755 1.961l-2.653 13.8a10.93 10.93 0 0 1-4.7 6.676l-5.969 3.55 2.519 1.85a7.6 7.6 0 0 1 1.56 1.7c4.237-1.038 9.479 1.976 9.571 6.281v1.778a.694.694 0 0 1-.631.592H.636l-.572-.634c-.637-4.232 3.517-8.249 8.586-7.94.3.018.789.306 1.108.087a13.28 13.28 0 0 1 11.328-4.828 8.47 8.47 0 0 1 6.366-5.512 8.96 8.96 0 0 1 8.525 2.611 8.9 8.9 0 0 1 3.2-1.236L39.028 51c-.982-1.821-3.053-3.173-4.941-4.214a11.44 11.44 0 0 1-5.651 2.681c-6.393.757-10.345-5.633-12.461-10.68-.264-.628-.38-1.571.444-1.88a29 29 0 0 1 6.462-1.492c4.854-.628 9.8.479 11.6 4.974a11.5 11.5 0 0 1 .577 4.23 21.3 21.3 0 0 1 4.043 2.7l.042-10.345A9.5 9.5 0 0 1 34.663 34c-4.009-5.007.651-11.614 4.458-15.921a1.62 1.62 0 0 1 1.356-.76 1.69 1.69 0 0 1 1.205.761c3.821 4.311 8.456 10.9 4.46 15.922a9.7 9.7 0 0 1-4.483 2.978v12.71a14.2 14.2 0 0 1 4.146-2.827 8.18 8.18 0 0 1 2.37-6.985l1.125-5.903c.134-.309.609-.966 1.071-.9l9.818 1.591 3.111-16.54a1.184 1.184 0 0 1 1.395-.907c.779-.477 1.183.415 1.329 1.089l-1.184 6.583-.343.123a.53.53 0 0 1 .159.687 30 30 0 0 0 4.18.6L71.69 10.96l-4.056-.66a.56.56 0 0 1-.455.4l.28.215c-.073 1.06-.368 3.224-1.6 3.55-.371.1-.653.141-.691-.261-.412-.068-1.009-.516-.919-1.005l.669-3.652c-1.461-.251-3.939-.441-4.332-.875a1.4 1.4 0 0 1-.33-1.124L61.505.882a1.105 1.105 0 0 1 1.3-.867l2.343.347L80 2.816ZM63.09 5.614l-.223 1.3 14.5 2.4.847-4.458-1.353-.243L63.7 2.435ZM36.08 31.847a6.38 6.38 0 0 0 3.1 2.657l.02-2.7.014-1.661a1.116 1.116 0 0 1 .977-1.089c.465-.076 1.279.135 1.3.72l.143 4.73c2.567-1.139 4.055-3.127 3.52-5.907a13 13 0 0 0-1.85-4.43 28 28 0 0 0-2.9-3.946c-2.618 3.059-6.209 8.2-4.323 11.628m26.682 2.339a2.06 2.06 0 0 0-.126.929l4.7.786 1.323-6.956-1.035-.169-3.732-.62Zm-37.744 12.5a6.17 6.17 0 0 0 6.563-.973L29.1 44.6l-3.225-1.467a1.08 1.08 0 0 1-.561-1.5 1.22 1.22 0 0 1 1.6-.508l3.186 1.417 2.538 1.143a5.61 5.61 0 0 0-3.218-5.37c-3.074-1.377-7.5-.632-10.885.318 1.385 3.074 3.424 6.656 6.481 8.053m26.2 2.376c5.187 2.15 9.171-3.8 11.04-8.156l-2.175-.562a16.9 16.9 0 0 0-6.639-.391 5.686 5.686 0 0 0-5.272 5.955l5.741-2.545a1.2 1.2 0 0 1 1.575.5 1.086 1.086 0 0 1-.539 1.509l-5.726 2.565a6.8 6.8 0 0 0 1.995 1.128m-9.526 9.381a7.7 7.7 0 0 1 3.138 1.207A8.72 8.72 0 0 1 49.566 57a11 11 0 0 1-3.015-7.855 13.9 13.9 0 0 0-4.894 4.058ZM3.17 72.107a3.6 3.6 0 0 0-.6 1.509h75.7a5.553 5.553 0 0 0-7.281-3.716 1.23 1.23 0 0 1-1.428-.525 10.83 10.83 0 0 0-10.531-4.468 1.21 1.21 0 0 1-1.427-.894 6.06 6.06 0 0 0-4.6-4.711 6.44 6.44 0 0 0-6.714 2.269 2.34 2.34 0 0 1-.79.8 1.18 1.18 0 0 1-1.285-.16 5.286 5.286 0 0 0-7.46-.14 1.32 1.32 0 0 1-1 .414 1.25 1.25 0 0 1-.942-.513 6.46 6.46 0 0 0-6.645-2.759A6.1 6.1 0 0 0 23.2 64.01a1.2 1.2 0 0 1-1.428.894 10.83 10.83 0 0 0-10.53 4.465 1.23 1.23 0 0 1-1.427.521 5.69 5.69 0 0 0-6.645 2.217"/><path fill="#e0eaee" d="M72.697 37.805a11 11 0 0 0 1.629.331l.291.154-2.3 11.848a10.1 10.1 0 0 1-4.737 6.423l-6.827 4a1.87 1.87 0 0 1-1.851.333 8.78 8.78 0 0 0-6.317-3.962L50.438 54.3a5.3 5.3 0 0 1-.6-1.115.263.263 0 0 1 .186-.338c7.614 4.051 12.885-4.1 15.162-9.948q-1.077-.178-.823-.842l.565-1.394a1.13 1.13 0 0 0-.7-1.541c-4.008-1.333-9.213-2.248-13.248-.858l.5-2.716 19.555 3.258a1.4 1.4 0 0 0 1.663-1"/><path fill="#c3d2d5" d="M75.641 38.393a1.26 1.26 0 0 0 .579 1.163 4.4 4.4 0 0 0 1.409.315l-2.342 12.441a8.5 8.5 0 0 1-4.033 5.844l-6.584 3.892c-1.825 1.079-2.907.363-4.988.52l-.785-1.677a6.8 6.8 0 0 0 2.2-.866l6.115-3.594a9.78 9.78 0 0 0 4.837-6.564l2.279-11.729a2.66 2.66 0 0 0 1.316.257"/><path fill="#6ebf30" d="m60.083 40.344.131.451c-1.462 2.933-3.57 6.5-6.82 7.938a3.1 3.1 0 0 1-2.176.328 6.8 6.8 0 0 1-1.995-1.129l5.726-2.565a1.086 1.086 0 0 0 .539-1.509 1.2 1.2 0 0 0-1.575-.5l-5.741 2.545a5.686 5.686 0 0 1 5.272-5.955 16.9 16.9 0 0 1 6.639.391"/><path fill="#c3d2d5" d="M49.831 53.18a6.35 6.35 0 0 1-.74-2.6 8.42 8.42 0 0 0 9.027-.32 19.95 19.95 0 0 0 6.238-8.207c-.008.449.584.333 1.222.675-1.407 3.612-3.569 7.533-6.805 9.923a7.9 7.9 0 0 1-8.8.455.1.1 0 0 0-.144.074"/><path fill="#378800" d="M51.218 49.062c4.314-.571 7.182-5.12 8.865-8.718l2.175.562c-1.869 4.356-5.853 10.3-11.04 8.156"/><path fill="#fed332" d="m64.492 25.014 1.193-6.481a1.15 1.15 0 0 0-1-1.314l.48-3.011a1.29 1.29 0 0 0 1.539-1.043l.469-2.461c.036-.111.106-.276.191-.269 1.494.123 4.061.361 3.7 2.261l-2.2 11.739a1.7 1.7 0 0 1-1 1.347 8.5 8.5 0 0 1-3.325-.311Z"/><path fill="#64adf6" d="M76.864 4.618c.115.051.287.128.28.217-.136 1.646-.266 3.071-2.309 3.078L63.223 5.937l-.132-.324.609-3.179Z"/><path fill="#e0eaee" d="m67.622 28.776.348.2a31.5 31.5 0 0 1-.89 4.89 1.57 1.57 0 0 1-1.341 1.2 13 13 0 0 1-2.92-.431l-.057-.446 1.128-6.029Z"/><path fill="#0a85e2" d="m63.091 5.614 11.823 2.012a1.29 1.29 0 0 0 1.548-.86l.4-2.147 1.353.243-.845 4.457-14.5-2.4Z"/><path fill="#f3ab03" d="M64.492 25.014a.53.53 0 0 0 .306.244l2.15.338a1.34 1.34 0 0 0 1.589-1.114l2.221-11.832a1.24 1.24 0 0 0-1.025-1.52l-2.553-.427.114-.761 4.779.776-3.005 16.02-4.69-.783a1.63 1.63 0 0 1 .114-.942"/><path fill="#c3d2d5" d="M62.762 34.186a.6.6 0 0 0 .445.261l2.039.322a1.31 1.31 0 0 0 1.527-.973l.881-4.633a1.6 1.6 0 0 0-.033-.386l1.035.169-1.323 6.956-4.7-.786a2.06 2.06 0 0 1 .126-.928"/><path fill="#6ebf30" d="M29.423 38.315a3.43 3.43 0 0 1 .948 2.306 1.93 1.93 0 0 1-.269 1.921l-3.192-1.421a1.22 1.22 0 0 0-1.6.508 1.077 1.077 0 0 0 .561 1.5l3.226 1.467a.68.68 0 0 1-.074.478c-.534.726-3.007 1.9-4.008 1.61-3.056-1.4-5.1-4.979-6.481-8.053 3.386-.95 7.812-1.695 10.885-.318"/><path fill="#378800" d="M25.018 46.686a8.96 8.96 0 0 0 4.082-2.088l2.481 1.115a6.17 6.17 0 0 1-6.563.973m5.086-4.145a9.2 9.2 0 0 0-.679-4.227 5.61 5.61 0 0 1 3.218 5.37Z"/><path fill="#6ebf30" d="M43.302 24.164c.979 1.4.2 5-1.183 5.883-.449.288-.5.184-.63-.276-.018-.585-.831-.8-1.3-.72a1.116 1.116 0 0 0-.976 1.089l-.014 1.661-.217.343c-.784.239-2.363.36-2.905-.3-1.886-3.426 1.7-8.569 4.323-11.628a28 28 0 0 1 2.9 3.946"/><path fill="#378800" d="M41.489 29.773c.084.073.205.187.285.194a6.17 6.17 0 0 0 1.528-5.8 13 13 0 0 1 1.85 4.43c.534 2.779-.953 4.768-3.52 5.907Zm-2.287 2.028-.02 2.7a6.38 6.38 0 0 1-3.1-2.657 6.6 6.6 0 0 0 3.122-.046"/><path fill="#a67554" d="M46.292 61.571a1 1 0 0 1 .557-.175c1.533.039 4.462 2.079 5.53 3.138a5.3 5.3 0 0 1 1.283 1.656 6.96 6.96 0 0 1 8.1 2.627c1.257 1.793.139 3.6-2.03 3.813q-28.3.052-56.572-.056a.38.38 0 0 1 .011-.467 5.69 5.69 0 0 1 6.647-2.217 1.23 1.23 0 0 0 1.427-.521 10.83 10.83 0 0 1 10.53-4.465 1.2 1.2 0 0 0 1.428-.894 6.1 6.1 0 0 1 4.97-4.793 6.46 6.46 0 0 1 6.644 2.762 1.25 1.25 0 0 0 .942.513 1.32 1.32 0 0 0 1-.414 5.287 5.287 0 0 1 7.46.14 1.18 1.18 0 0 0 1.285.16 2.34 2.34 0 0 0 .79-.8"/><path fill="#905431" d="M3.17 72.107c-.006.112.014.2.194.231h56.415a2.2 2.2 0 0 0 1.823-.956 1.84 1.84 0 0 0 .169-1.947 6.87 6.87 0 0 0-8.211-3 11.77 11.77 0 0 0-7.268-4.857 6.44 6.44 0 0 1 6.714-2.269 6.06 6.06 0 0 1 4.6 4.711 1.21 1.21 0 0 0 1.427.894 10.83 10.83 0 0 1 10.531 4.462 1.23 1.23 0 0 0 1.428.525 5.553 5.553 0 0 1 7.279 3.722h-75.7a3.6 3.6 0 0 1 .6-1.509"/><path d="M32.91 68.21c-1.8 0-.61-2.661-2.848-2.668a1.635 1.635 0 0 0-1.688 1.552 1.2 1.2 0 0 1-2.387-.136 3.97 3.97 0 0 1 4.226-3.664 3.9 3.9 0 0 1 3.874 3.959 1.11 1.11 0 0 1-1.176.957m18.587 2.85c-1.886.152-.683-2.672-2.969-2.677a1.61 1.61 0 0 0-1.665 1.541 1.187 1.187 0 0 1-1.18 1.139 1.14 1.14 0 0 1-1.209-1.137 4.065 4.065 0 0 1 8.113 0 1.13 1.13 0 0 1-1.089 1.133"/><path fill="#030201" d="M18.163 67.648a.96.96 0 0 1 1.269.421.883.883 0 0 1-.39 1.161.99.99 0 0 1-1.237-.253.86.86 0 0 1 .358-1.33"/><path fill="#020101" d="M64.723 70.03a.95.95 0 0 1 1.279.53.857.857 0 0 1-.5 1.094.99.99 0 0 1-1.281-.454.884.884 0 0 1 .5-1.17"/></g></g></svg>