<svg xmlns="http://www.w3.org/2000/svg" width="1328" height="524" viewBox="0 0 1328 524"><defs><clipPath id="a"><path fill="#fff" stroke="#707070" d="M0 0h1328v524H0z"/></clipPath><clipPath id="b"><path fill="#fff" d="m69.193 1294.089 1280.292 64.141-58.126-1280.585L11.067 13.5Z"/></clipPath><clipPath id="c"><path fill="#fff" d="M787.333 1102.382C542.367 1037.85 307.619 887.32 138.007 671.776 94.819 616.871 55.18 556.574 34.959 488.941S16.352 344.983 51.38 291.111C96.6 221.56 183.229 204.457 273.6 187.087c-28.843-15.558-43.139-56.405-35.835-88.736 15.6-69.1 89.409-80.034 151.564-74.851 207.15 17.285 404.395 140.628 576.045 285.9 90.177 76.323 176.823 160.8 242.325 263.059 43.037 67.186 80.164 164.285 26.079 222.585-24.948 26.9-70.437 31.2-100.994-.766 49.2 58.208 54.631 149.229 22.46 212.863s-95.482 101.368-162.335 113.108c-25.1 4.412-50.73 5.523-76.547 4.241-42.927-2.131-86.4-10.879-129.03-22.11"/></clipPath><clipPath id="d"><path fill="#fff" d="m-41.837 1292.859 1266.747-46.167 41.837-1292.86L0 0Z"/></clipPath><clipPath id="e"><path fill="#fff" d="M690.891 1042.556c-238.311-44.133-459.785-176.314-611.5-380.045-38.631-51.9-73.316-109.569-88.143-176.36s-7.289-144.289 31.694-201.932c50.325-74.418 137.7-99.275 228.826-124.728-27.441-13.263-38.464-53.422-28.7-86.825 20.874-71.394 95.032-88.88 156.371-89.024C583.858-16.826 770.194 91.056 929.4 223.389c83.639 69.525 163.138 147.616 220.25 245.574 37.525 64.357 66.854 159.546 8.6 223.331-26.873 29.427-72.393 37.742-100.259 7.993 44.341 54.723 42.662 146.5 5.758 213.792S961.023 1025.11 893.7 1042.814a349.8 349.8 0 0 1-76.366 10.946c-42.474 1.568-84.974-3.523-126.448-11.2"/></clipPath></defs><g clip-path="url(#a)"><g transform="translate(-543.045 -596.206)"><path fill="#f6f6f6" d="M562.16 1429.361h1289.77c10.557 0 19.115-13.979 19.115-31.223V627.43c0-17.244-8.558-31.223-19.115-31.223H562.16c-10.557 0-19.115 13.979-19.115 31.223v770.708c0 17.244 8.558 31.223 19.115 31.223"/><g opacity=".49" style="isolation:isolate" transform="rotate(202 1243.386 709.92)"><g clip-path="url(#b)"><path fill="#fff" d="M1196.618 891.439c49.2 58.208 54.619 149.228 22.46 212.863s-95.494 101.367-162.335 113.107-137.3.125-205.577-17.855C606.2 1135.008 371.44 984.479 201.84 768.935c-43.188-54.892-82.839-115.203-103.048-182.836s-18.607-143.94 16.422-197.817c45.207-69.551 131.847-86.666 222.219-104.037-28.855-15.558-43.138-56.392-35.835-88.736 15.6-69.1 89.4-80.034 151.552-74.852 207.159 17.287 404.4 140.642 576.043 285.9 90.177 76.323 176.823 160.8 242.324 263.059 43.049 67.2 80.176 164.286 26.092 222.6-24.949 26.884-70.438 31.191-100.995-.779"/></g><g fill="#fff" clip-path="url(#c)" transform="translate(63.833 97.159)"><path d="M-20.511 491.677s635.659-105.243 553.491 589.858"/><path d="M-32.776 219.165S531.039 37.732 810.187 1135.82"/><path d="M165.014-64.868s369.45-25.569 614.088 510.117 247.156 795.88 247.156 795.88m193.303-340.682s-40.335-471.502-505.74-808.727"/></g></g><ellipse cx="334.677" cy="383.335" fill="#e8e8e8" opacity=".37" rx="334.677" ry="383.335" style="mix-blend-mode:multiply;isolation:isolate" transform="translate(562.323 906.575)"/><ellipse cx="334.899" cy="384.203" fill="#fff" opacity=".65" rx="334.899" ry="384.203" transform="translate(227.235 373.908)"/><ellipse cx="334.899" cy="384.203" fill="#fff" opacity=".65" rx="334.899" ry="384.203" transform="translate(1440.673 865.086)"/><g opacity=".3" style="isolation:isolate" transform="rotate(165 644.512 922.126)"><g clip-path="url(#d)"><path fill="#fff" d="M1109.361 786.861c44.341 54.723 42.651 146.5 5.758 213.792s-102.737 111.031-170.048 128.735-136.4 12.05-202.814-.246c-238.311-44.146-459.8-176.326-611.5-380.058-38.63-51.885-73.327-109.568-88.142-176.36s-7.29-144.276 31.694-201.918c50.313-74.418 137.705-99.288 228.826-124.741-27.452-13.263-38.465-53.409-28.7-86.825 20.874-71.394 95.023-88.879 156.359-89.024 204.435-.469 390.771 107.426 549.967 239.747 83.64 69.524 163.138 147.616 220.251 245.574 37.537 64.37 66.866 159.546 8.609 223.343-26.872 29.414-72.393 37.729-100.259 7.981"/></g><g fill="#fff" clip-path="url(#e)" transform="translate(51.371 86.573)"><path d="M-64.068 493.741s639.593-161.865 503.926 549.773"/><path d="M-55.064 218.608s574.157-232.847 766.052 855.854"/><path d="M163.491-86.442s368.969-58 570.32 463.691 183.619 785.182 183.619 785.182m218.501-362.075s-3.403-474.376-439.476-775.749"/></g></g><g transform="translate(348.124)"><path fill="#e8e8e8" d="M827.617 580.687c-20.678-19.282-41.295-40.113-61.395-62.037-23.173-25.275-46.305-52.707-68.753-81.536a.5.5 0 1 1 .788-.614q63.32 81.311 130.24 143.704c123.175 114.864 255.035 181.267 393.652 197.95a584.4 584.4 0 0 0 171.587-4.973 638.6 638.6 0 0 0 135.506-40.063 657 657 0 0 0 50.954-23.976c13.182-6.914 25.97-14.212 38.01-21.688 20.491-12.727 31.841-21.67 31.954-21.76a.5.5 0 0 1 .621.785c-.113.088-11.508 9.069-32.047 21.825-12.058 7.488-24.873 14.796-38.072 21.725a658 658 0 0 1-51.032 24.012 639.6 639.6 0 0 1-135.719 40.126 605 605 0 0 1-39.99 5.694 591 591 0 0 1-42.086 3.035 582 582 0 0 1-44.02-.085 579 579 0 0 1-45.79-3.667 585 585 0 0 1-60.08-10.46 606 606 0 0 1-62.308-17.834 647 647 0 0 1-64.208-26.133 712 712 0 0 1-65.776-35.358 806 806 0 0 1-67.013-45.514c-22.824-17.205-45.676-36.246-67.922-56.594q-3.547-3.25-7.101-6.564m547.159 591.693a.5.5 0 0 1-.155-.303c-.014-.11-1.383-11.141-2.196-28.573a561 561 0 0 1-.586-30.936c.112-12.867.676-25.589 1.677-37.815 2.546-31.125 7.893-59.244 15.9-83.583a221.3 221.3 0 0 1 17.118-39.44 169 169 0 0 1 11.489-17.744 144 144 0 0 1 13.685-15.896 127.3 127.3 0 0 1 23.043-18.292 126 126 0 0 1 28.121-12.85 147.8 147.8 0 0 1 33.677-6.335 200.5 200.5 0 0 1 39.685 1.258.5.5 0 0 1-.126.992c-51.71-6.512-93.33 5.582-123.697 35.935-40.634 40.618-53.916 107.264-57.9 156.017a547 547 0 0 0-1.09 68.618c.813 17.4 2.178 28.403 2.192 28.513a.5.5 0 0 1-.837.427Zm-848.045 640.795a.5.5 0 0 1-.081-.633c54.268-85.909 76.366-148.107 71.647-201.69a162 162 0 0 0-2.849-19.105 171 171 0 0 0-5.033-18.504 215 215 0 0 0-16.073-36.112 376 376 0 0 0-23.226-36.415c-7.851-11.03-17.17-23.264-29.32-38.499-3.88-4.862-7.5-9.88-10.763-14.91a174 174 0 0 1-8.556-14.725 173.4 173.4 0 0 1-11.74-28.882c-5.848-18.99-8.314-37.518-10.697-55.438-4.031-30.297-7.838-58.914-27.22-86.26-10.378-14.643-24.358-27.731-42.74-40.015a296 296 0 0 0-33.866-19.274c-13.123-6.439-27.988-12.756-44.183-18.778-48.319-17.965-94.163-28.589-136.26-31.576-33.663-2.388-65.017.074-93.19 7.319a213.5 213.5 0 0 0-31.491 10.697 173 173 0 0 0-21.97 11.362c-11.422 7.039-16.985 12.61-17.04 12.666a.5.5 0 1 1-.711-.703c.054-.058 5.703-5.713 17.227-12.814a174 174 0 0 1 22.097-11.429 214.5 214.5 0 0 1 31.638-10.75c28.276-7.269 59.74-9.743 93.51-7.348a425 425 0 0 1 62.686 9.437c11.585 2.599 23.528 5.736 35.504 9.317 12.52 3.743 25.421 8.076 38.347 12.883 16.225 6.033 31.121 12.364 44.275 18.817a297 297 0 0 1 33.98 19.34 191 191 0 0 1 25.171 19.867 139 139 0 0 1 17.83 20.4 122.6 122.6 0 0 1 11.957 20.928 142.5 142.5 0 0 1 7.562 21.433c3.9 14.439 5.834 28.969 7.88 44.346 4.817 36.214 9.798 73.663 41.546 113.463 12.167 15.252 21.494 27.5 29.357 38.545a377 377 0 0 1 23.284 36.515 215.7 215.7 0 0 1 16.147 36.28 172 172 0 0 1 5.058 18.612 163 163 0 0 1 2.87 19.22 168 168 0 0 1 .54 20.057 188 188 0 0 1-1.915 21.103 225 225 0 0 1-4.504 22.375c-1.945 7.689-4.375 15.719-7.22 23.87-11.562 33.103-30.763 70.69-58.7 114.912a.5.5 0 0 1-.765.098Z"/><path fill="#e8e8e8" d="M269.754 1568.136a.5.5 0 0 1 .33-.865c.061-.002 6.285-.156 16.108-1.145a323 323 0 0 0 38.664-6.308c27.414-6.27 64.772-19.201 87.068-45.194 16.042-18.704 22.4-41.828 18.894-68.73-3.482-26.72-19.573-49.016-47.82-66.272-22.657-13.837-53.135-24.48-90.586-31.636-33.347-6.373-66.151-8.74-87.804-9.6-23.457-.934-39.224-.355-39.38-.35a.5.5 0 0 1-.04-.996c.157-.005 15.963-.587 39.46.352a674 674 0 0 1 40.76 2.845c16.561 1.673 32.438 3.951 47.19 6.768 37.57 7.177 68.16 17.864 90.92 31.765a134.4 134.4 0 0 1 17.863 12.93 101 101 0 0 1 14.488 15.343 83 83 0 0 1 10.386 17.96 80.8 80.8 0 0 1 5.552 20.764 105.7 105.7 0 0 1 .714 21.025 86 86 0 0 1-3.322 18.489 80 80 0 0 1-6.8 16.111 85 85 0 0 1-9.72 13.878 104.8 104.8 0 0 1-18.643 16.858 146 146 0 0 1-22.025 12.838 227.5 227.5 0 0 1-46.956 15.828 324 324 0 0 1-38.786 6.325c-9.85.995-16.1 1.15-16.163 1.151a.5.5 0 0 1-.352-.134M981.388 624.15l-1.024-.954a256 256 0 0 1-44.093-55.612 306 306 0 0 1-17.817-35.09 355 355 0 0 1-14.386-40.061.5.5 0 1 1 .96-.283c16.136 54.869 42.742 99.684 77.2 131.82 30.331 28.285 66.74 46.748 107.481 53.625 73.425 12.393 145.795-17.353 188.866-77.627a.5.5 0 1 1 .814.581 194.3 194.3 0 0 1-38.297 40.092 190.7 190.7 0 0 1-46.37 26.748 194.76 194.76 0 0 1-105.18 11.187 202.7 202.7 0 0 1-56.865-18.615 218.5 218.5 0 0 1-51.289-35.81"/><path fill="none" d="M811.224 1211.708c-25.388-48.053-33.293-109.13-11.963-155.127s75.34-69.97 113.432-55.364c-49.02-28.688-98.45-57.675-142.017-96.893s-81.403-89.979-98.483-148.98S661.7 628.692 697.031 586.91c41.015-48.49 108.733-53.187 170.572-49.887 180.491 9.618 363.107 64.59 527.918 164.935 52.354 31.88 106.833 73.559 127.168 136.464 19.436 60.117 1.187 126.55-35.143 169.539s-87.96 65.682-140.416 78.618-106.93 17.192-158.852 25.591c22.282 22.384 44.804 45.062 62.113 72.474s29.146 60.481 26.828 92.474c-2.766 38.187-25.687 69.953-54.663 87.277s-63.361 21.873-97.286 21.365c-70.004-1.059-141.29-22.865-204.985-62.708-24.737-15.475-48.657-34.05-69.346-56.156a255.7 255.7 0 0 1-39.715-55.19"/></g></g></g></svg>