<svg xmlns="http://www.w3.org/2000/svg" width="85.741" height="86" viewBox="0 0 85.741 86"><defs><clipPath id="a"><path fill="none" d="M0 0h85.741v86H0z"/></clipPath></defs><g clip-path="url(#a)"><path d="m82.772 66.887.137 4.967.079 4.284-6.067 9.109a1.47 1.47 0 0 1-1.055.743 1.6 1.6 0 0 1-1.26-.5 28.5 28.5 0 0 0-16.6-7.193h-5.095a28.48 28.48 0 0 0-16.5 7.109 1.88 1.88 0 0 1-1.2.592 1.43 1.43 0 0 1-1.219-.754l-5.665-8.5-22.913-.065c-2.765-.009-5.4-3.6-5.4-6.128L0 13.775c0-.7 1.154-1.155 1.494-1.546L16.107.981A2.96 2.96 0 0 1 18.15 0l33.12.048c3.257.005 5.958 3.333 5.966 5.945l.089 29.1a6.92 6.92 0 0 1 4.3 4.242 6.68 6.68 0 0 1-1.325 6.542 8.04 8.04 0 0 1 3.8 6.68l.048 3.418 1.537.289.971-1.977a8.84 8.84 0 0 1 6.015-5.742l-.032-2.336a6.53 6.53 0 0 1 5.594-5.829 6.65 6.65 0 0 1 7.025 4.089 6.584 6.584 0 0 1-2.574 8.031 8.22 8.22 0 0 1 .5 8.343l-1.507 3.072a2.02 2.02 0 0 1 .942 1.36Z"/><path fill="#e7e641" d="m30.944 62.775-1.314-2.564a6.03 6.03 0 0 1 1.007-6.584 7.26 7.26 0 0 0 6.441-2.552 6.29 6.29 0 0 1 5.121 3.787l.914 2.071a42.4 42.4 0 0 0-12.168 5.84"/><path fill="#f8b4b1" d="M35.154 49.332a4.58 4.58 0 0 1-4.454 1.669 4.29 4.29 0 0 1-3.111-5.728 4.35 4.35 0 0 1 6.078-2.344 4.3 4.3 0 0 1 1.487 6.4"/><path fill="#4cb648" d="m80.985 59.279-1.534 3.139a43 43 0 0 0-11.135-5.327l1.19-2.733a5.61 5.61 0 0 1 4.57-3.364 7.07 7.07 0 0 0 6.023 2.4 5.5 5.5 0 0 1 .886 5.882"/><path fill="#f8b4b1" d="M80.05 50.731a4.18 4.18 0 0 1-4.074-1.523 3.9 3.9 0 0 1 1.22-5.724 3.963 3.963 0 0 1 5.568 1.844 3.9 3.9 0 0 1-2.713 5.4"/><path fill="#41c1cd" d="m77.985 68.668-2.563 4.4a27.793 27.793 0 0 0-39.95 0l-2.6-4.5a3.5 3.5 0 0 1 .307-.519 1.7 1.7 0 0 1 .381-.411c13.823-9.15 29.964-9.134 43.744.094a1.7 1.7 0 0 1 .379.414 3.5 3.5 0 0 1 .3.521"/><path fill="#74ccdc" d="M77.985 68.665a37.91 37.91 0 0 0-45.114-.1l-1.611-2.831a40.57 40.57 0 0 1 48.425.019Z"/><path fill="#74ccdc" d="m74.364 79.586-.879-.343a26.48 26.48 0 0 0-36.068-.134l-.878.331-.076-3.646a25.26 25.26 0 0 1 37.913-.077Z"/><path fill="#41c1cd" d="m74.364 79.586-.051 2.26a31.34 31.34 0 0 0-37.7-.02l-.071-2.387a26.8 26.8 0 0 1 37.825.147"/><path fill="#40c0cb" d="M33.857 75.481a.64.64 0 0 1 .165.5l-.106 4.332-3.334-4.962a8 8 0 0 1 .043-2.567c.274-.094.523-.1.647.158l2.14 3.75q-.1-.968.442-1.212"/><path fill="#40bfcb" d="M77.097 75.383q.585.25.392 1.375l2.338-3.892.456-.04a8.5 8.5 0 0 1 .042 2.524l-3.32 4.958-.115-4.327a1.04 1.04 0 0 1 .207-.6"/><path fill="#73cbda" d="M80.283 72.826 77.14 78.06l-.042-2.676 3.08-5.335Z"/><path fill="#72cbda" d="m33.858 75.481-.089 2.583-2.536-4.464a2.3 2.3 0 0 0-.6-.815l.11-2.736Z"/><path fill="#e41f63" d="M61.398 55.533a43.8 43.8 0 0 0-12.208.048l-.02-2.891a5.8 5.8 0 0 1 3.562-5.138 6.87 6.87 0 0 0 5.13 0 5.76 5.76 0 0 1 3.558 4.952Z"/><path fill="#f8b4b1" d="M54.917 37.461a4.006 4.006 0 1 1-3.593 4.477 3.993 3.993 0 0 1 3.593-4.477"/><path fill="#c693c2" d="m44.204 53.086.132-50.332 7.449.081c1.538.017 2.831 1.931 2.834 3.555l.058 28.477a6.622 6.622 0 0 0-4.276 11.007 8.31 8.31 0 0 0-3.816 6.82l-.074 3.283c-.005.215-.808.324-.9.128ZM3.214 15.67a.74.74 0 0 0-.459.134v51.662l4.3-.056a.34.34 0 0 1 .371.108q-.33 2.048.916 2.373l11.705-.006q1.054-.443.782-2.093l.374-.234 6.93-.1a4.5 4.5 0 0 1 .089-2.012l-.251 8.646-22.457-.1c-1.577-.01-2.712-1.992-2.767-3.31l-.154-3.6-.024-51.492c0-.142.569-.008.645.08"/><path fill="#aa6cac" d="m11.746 14.396-7.216-1.15 11.544-8.913-.636 6.881a3.82 3.82 0 0 1-3.692 3.182"/><path fill="#dcbcda" d="m44.337 2.754.37.13-.132 49.975-.37.228a8.47 8.47 0 0 0-5.85-4.445 6.938 6.938 0 1 0-10.278 4.1 8.4 8.4 0 0 0-.959 8.154l1.574 3.433a8.5 8.5 0 0 0-.465 1.118q-.062 1.209-.209 2.383l-6.585.1-.225-.367-.37-.17-.042-10.139a.97.97 0 0 0-1.04-.735H8.498c-.663.1-.917.176-1.042.871l-.032 9.8-.371.218c-.015.144-.057.362-.157.372a31 31 0 0 1-4.072.041.6.6 0 0 1-.14-.264l-.023-51.8.552-.091 7.832 1.2a6.13 6.13 0 0 0 6.95-5.509l.857-8.635Z"/><path d="m42.353 31.184-16.067.017a1.29 1.29 0 0 1-1.211-1.336 1.273 1.273 0 0 1 1.36-1.241h15.7a1.276 1.276 0 0 1 1.334 1.08 1.256 1.256 0 0 1-1.116 1.48m-7.695-5.829-8.234.011a1.3 1.3 0 1 1 .014-2.591l8.126-.007a1.316 1.316 0 0 1 1.392 1.244 1.28 1.28 0 0 1-1.3 1.343M19.949 51.329l-11.572-.01a1.344 1.344 0 0 1-1.309-1.243l.008-11.572a1.26 1.26 0 0 1 1.24-1.289h11.623a1.264 1.264 0 0 1 1.243 1.288l.009 11.568a1.366 1.366 0 0 1-1.242 1.258"/><path fill="#41c1cd" d="m18.474 48.71-.37-.166v-5.372l-5.65.01-.009 5.247-.37.267-2.406.007v-8.907h8.924l.056 8.292a.67.67 0 0 1-.177.618"/><path fill="#73ccdc" d="m18.474 48.709-6.4-.014.01-5.907 6.388-.011Z"/><path d="m19.867 32.017-11.387.006a1.3 1.3 0 0 1-1.394-1.222V19.123a1.29 1.29 0 0 1 1.394-1.215h11.291a1.325 1.325 0 0 1 1.417 1.344V30.68a1.3 1.3 0 0 1-1.321 1.338"/><path fill="#41c1cd" d="m18.474 29.428-.37-.166-.023-5.4h-5.608l-.028 5.291-.37.269-2.417-.015.014-8.911 8.917.011.065 8.538a.37.37 0 0 1-.179.387"/><path fill="#73ccdc" d="M18.474 29.428h-6.4l.006-5.929 6.392-.005Z"/><path d="m21.206 67.558-.025 1.395a1.28 1.28 0 0 1-1.244 1.307H8.318a1.28 1.28 0 0 1-1.241-1.308l-.024-1.541.033-10.043a1.294 1.294 0 0 1 1.4-1.216h11.29a1.3 1.3 0 0 1 1.4 1.216Z"/><path fill="#41c1cd" d="m18.475 67.681-.37-.166-.023-5.4-5.609.01-.028 5.288-.37.268-2.415-.009.014-8.932 8.917.017.062 8.559c.045.2-.062.353-.177.365"/><path fill="#73ccdc" d="M18.475 67.681h-6.4l.006-5.925 6.392-.012Z"/></g></svg>