<svg xmlns="http://www.w3.org/2000/svg" width="85.899" height="86" viewBox="0 0 85.899 86"><defs><clipPath id="a"><path fill="none" d="M0 0h85.899v86H0z"/></clipPath></defs><g clip-path="url(#a)"><path d="M64.017 85.996a4.49 4.49 0 0 1-3.384-3.91 11 11 0 0 0-.091-2.569v-5.113l.156-1.549a5.4 5.4 0 0 1 1.3-4.115 7 7 0 0 1 2.683-1.439l4.6-1.259a7.56 7.56 0 0 1-2.17-5.8 5.694 5.694 0 0 1 5.133-5.71c3.671-.406 6.691 1.5 7.152 5.1a8.13 8.13 0 0 1-2.088 6.45 29.5 29.5 0 0 1 6.147 1.9c1.674.836 2.279 2.465 2.431 4.278l.019 9.574a4.284 4.284 0 0 1-3.453 4.147Z"/><path fill="#84c9fe" d="m78.978 83.595-11.435.012v-6.489a1.175 1.175 0 0 0-1.145-1.206 1.194 1.194 0 0 0-1.238 1.22v6.458a1.808 1.808 0 0 1-2.068-1.869c-.091-3.3-.177-6.534.055-9.808a2.23 2.23 0 0 1 1.585-2.029c1.932-.762 3.969-1.1 5.973-1.672a9.03 9.03 0 0 1 5.179.011 57 57 0 0 1 5.991 1.688 2.18 2.18 0 0 1 1.5 1.95 73 73 0 0 1-.023 10.363 1.72 1.72 0 0 1-1.968 1.363l-.019-6.469a1.175 1.175 0 0 0-1.148-1.206 1.2 1.2 0 0 0-1.237 1.22Z"/><path fill="#efe2de" d="M74.756 57.147c2.412 1.782 1.682 6.479-.63 8.08a2.78 2.78 0 0 1-3.025-.756 5.47 5.47 0 0 1-1.49-4.855c.416-2.347 2.872-3.17 5.145-2.468"/><path fill="#d7c3bd" d="M74.126 65.227c1.933-2.446 2.459-5.654.63-8.08a3.08 3.08 0 0 1 2.143 2.421 5.51 5.51 0 0 1-1.6 5.039 2.9 2.9 0 0 1-1.175.621"/><path d="M25.34 79.422a8.4 8.4 0 0 0-.138 1.806A4.366 4.366 0 0 1 21.787 86l-18.359-.018A4.17 4.17 0 0 1 0 81.834l.009-9.562c0-4.693 4.567-5.15 8.579-6.17a8.15 8.15 0 0 1-2.1-6.469c.462-3.62 3.483-5.5 7.145-5.1a5.7 5.7 0 0 1 5.135 5.891 7.46 7.46 0 0 1-2.168 5.619l4.605 1.258a7 7 0 0 1 2.682 1.438 5.4 5.4 0 0 1 1.3 4.114 14 14 0 0 0 .155 1.549Z"/><path fill="#84c9fe" d="m18.339 83.593-11.432.013-.01-6.474a1.2 1.2 0 0 0-1.077-1.216 1.173 1.173 0 0 0-1.305 1.2l-.02 6.471a1.726 1.726 0 0 1-1.969-1.365 74 74 0 0 1-.019-10.364 2.18 2.18 0 0 1 1.5-1.949 60 60 0 0 1 5.99-1.687 9.1 9.1 0 0 1 5.316.013c1.954.566 3.953.887 5.834 1.641a2.24 2.24 0 0 1 1.586 2.06c.225 3.264.143 6.486.055 9.78a1.808 1.808 0 0 1-2.067 1.87v-6.459a1.2 1.2 0 0 0-1.08-1.216 1.184 1.184 0 0 0-1.308 1.2Z"/><path fill="#efe2de" d="M14.185 57.165c2.269 1.908 1.629 6.757-.978 8.175a2.92 2.92 0 0 1-2.532-.669 5.43 5.43 0 0 1-1.723-4.959c.4-2.449 2.908-3.284 5.234-2.547"/><path fill="#d7c4be" d="M13.207 65.34a6.45 6.45 0 0 0 1.471-7.194l-.493-.981a3 3 0 0 1 2.013 2.191c.639 2.554-.846 5.566-2.991 5.984"/><path d="m52.04 85.915-18.122.019c-1.941 0-3.375-1.96-3.568-3.673l-.091-4.1a52 52 0 0 1 0-2.086l.059-3.736a9 9 0 0 1 .529-2.529c1.686-2.608 4.968-2.835 8.074-3.767a7.7 7.7 0 0 1-2.158-5.633 5.79 5.79 0 0 1 5.405-5.924 6.56 6.56 0 0 1 5.375 1.79c2.374 2.515 1.974 7.177-.583 9.765l4.348 1.182c2.494.678 4.171 2.3 4.225 4.947l.083 4.078c.014.7.016 1.22 0 1.91l-.092 4.109a3.85 3.85 0 0 1-3.487 3.649"/><path fill="#fbda35" d="m48.662 83.592-11.443.013v-6.493a1.16 1.16 0 0 0-1.181-1.195 1.194 1.194 0 0 0-1.209 1.268v6.4a1.745 1.745 0 0 1-2.026-1.623 90 90 0 0 1 .009-9.971 2.26 2.26 0 0 1 1.559-2.1 61 61 0 0 1 5.985-1.674 9.03 9.03 0 0 1 5.191-.005 60 60 0 0 1 5.966 1.679 2.26 2.26 0 0 1 1.558 2.1 90 90 0 0 1 .01 9.97 1.744 1.744 0 0 1-2.025 1.624v-6.4a1.2 1.2 0 1 0-2.39.1Z"/><path fill="#efe2de" d="M44.415 57.139c2.43 1.75 1.718 6.542-.639 8.1a2.74 2.74 0 0 1-2.845-.618 5.42 5.42 0 0 1-1.648-4.965c.406-2.351 2.816-3.208 5.132-2.513"/><path fill="#d7c3bd" d="M43.777 65.234c1.977-2.36 2.481-5.746.639-8.1a3 3 0 0 1 2.035 1.983 5.38 5.38 0 0 1-1.584 5.575 2.3 2.3 0 0 1-1.089.538"/><path d="M35.274 5.551a1.2 1.2 0 0 1-.686 1.723c-1.342.513-1.693-1.069-2.543-2.33a1.59 1.59 0 0 1-.29-1.518 1.06 1.06 0 0 1 1.2-.719 1.35 1.35 0 0 1 1.178.841ZM52.51 7.028a1.13 1.13 0 0 1-1.54.069 1.234 1.234 0 0 1-.365-1.637l1.199-2.028a1.29 1.29 0 0 1 1.358-.742c.633.14 1.246.672.992 1.392a12.3 12.3 0 0 1-1.648 2.947m-24.269 4.345a1.243 1.243 0 0 1 .591 1.726 1.2 1.2 0 0 1-1.69.5l-2.473-1.475c-.626-.373-.393-1.647.242-1.954a1.9 1.9 0 0 1 1.768.3Zm30.294 2.298a1.184 1.184 0 0 1-1.505-.546 1.293 1.293 0 0 1 .536-1.723l2.416-1.3a1.134 1.134 0 0 1 1.481.637 1.17 1.17 0 0 1-.484 1.522ZM44.11 4.011a1.02 1.02 0 0 1-1.093.965c-.532.024-1.239-.224-1.239-.89V.894c0-.618.622-.87 1.083-.892.537-.027 1.236.222 1.239.891Zm18.956 49.728-42.622.013a8.886 8.886 0 0 1-7.632-9.491 8.77 8.77 0 0 1 7.275-7.924 8.632 8.632 0 0 1 9.561-9.331 14.83 14.83 0 0 1 .283-13.9c4.521-6.791 14.152-8.168 21.1-4.491a12.75 12.75 0 0 1 6.749 12.048c-.127.576.168.738.524 1.028a12.66 12.66 0 0 1 4.431 8.814 12.27 12.27 0 0 1 7.231 3.689 11.563 11.563 0 0 1 .323 15.511 11.94 11.94 0 0 1-7.223 4.034"/><path fill="#feea86" d="M48.976 10.345c6.507 4.056 6.173 12.191 2.523 18.159a22.5 22.5 0 0 0-4.144 7.308l-.41.364a1.9 1.9 0 0 1-.673-.041l.019-9.5a7.86 7.86 0 0 0 5.037-7.66 2.72 2.72 0 0 0-1.3-2.12 2.53 2.53 0 0 0-2.622.089c-2.335 1.356-3.2 4.987-3.441 7.812a4.3 4.3 0 0 1-2.093 0c-.243-2.743-1.079-6.325-3.311-7.738a2.55 2.55 0 0 0-2.73-.172 2.72 2.72 0 0 0-1.326 2.084 7.83 7.83 0 0 0 5.04 7.695l.016 9.539-2.299-.009a11.7 11.7 0 0 0-1.961-4.964l-2.512-3.636c-3.693-5.355-3.177-13.39 3.185-16.775a15 15 0 0 1 13.002-.435"/><path fill="#fbda35" d="M46.95 36.175c.389-2.686 2.3-5.046 3.95-7.39 4.2-5.956 3.947-14.018-1.919-18.44a10.08 10.08 0 0 1 5.951 6.667 12.74 12.74 0 0 1-1.867 10.522l-2.639 3.847a11.26 11.26 0 0 0-1.845 4.751Z"/><path fill="#fbe885" d="m43.9 36.14-1.949.025V27.28l1.939-.034Z"/><path fill="#fbe785" d="M36.912 18.89c1.453.527 2.2 2.956 2.378 4.837a5.09 5.09 0 0 1-2.378-4.837"/><path fill="#fce885" d="M46.538 23.802c.164-1.826.9-4.345 2.4-4.916a5.28 5.28 0 0 1-2.4 4.916"/><path fill="#2dcefb" d="M66.699 49.5a10.09 10.09 0 0 0 .416-10.847 10.45 10.45 0 0 0-9.036-5.306 10.38 10.38 0 0 0-1.836-6.56 27 27 0 0 0 1.038-2.765 9.98 9.98 0 0 1 2.972 7.7 1.194 1.194 0 0 0 1.282 1.2 9.23 9.23 0 0 1 8.657 6.325 8.87 8.87 0 0 1-3.494 10.254"/><path fill="#78e9fe" d="M66.699 49.501c-.9 1.273-3.265 1.838-5.007 1.838l-40.236.007a6.354 6.354 0 0 1 .062-12.7 1.175 1.175 0 0 0 1.156-1.444 6.54 6.54 0 0 1 1.991-6.332 6.82 6.82 0 0 1 7.232-.344 12.9 12.9 0 0 1 2.99 5.883 2.59 2.59 0 0 0 2.448 2.13l11.054.016a2.73 2.73 0 0 0 2.655-2.467c.486-3.2 3.514-5.846 5.2-9.3.938.235 1.4 1.706 1.679 2.614a7.5 7.5 0 0 1 .359 3.758c2.347-.292 5.06.958 6.847 2.517 3.792 3.308 5.33 9.979 1.57 13.825"/><path fill="#2fcbf6" d="M31.894 30.524a8.87 8.87 0 0 0-7.232.344 5.89 5.89 0 0 1 6.32-.985 1.93 1.93 0 0 1 .912.641"/><path d="M48.816 42.128H36.985a1.19 1.19 0 0 1-.018-2.381l11.774-.011a1.21 1.21 0 0 1 1.306 1.14 1.18 1.18 0 0 1-1.231 1.255m-2.231 3.559c.079 2.26-1.643 3.4-3.636 3.415-2.009.013-3.66-1.129-3.712-3.257-.909-.329-2.3.125-2.414-1.245a1.218 1.218 0 0 1 1.341-1.31h9.557a1.22 1.22 0 0 1 1.307 1.157 1.17 1.17 0 0 1-1.167 1.232Z"/><path fill="#5b669b" d="M43.71 45.707c.443.146.175.72-.155.9a3.3 3.3 0 0 1-1.449-.027.706.706 0 0 1-.428-.887Z"/><path fill="#475381" d="M43.555 46.61a3.7 3.7 0 0 0 .155-.9 1.04 1.04 0 0 1 .467.021.685.685 0 0 1-.622.882"/></g></svg>