<svg xmlns="http://www.w3.org/2000/svg" width="72.511" height="86" viewBox="0 0 72.511 86"><defs><clipPath id="a"><path fill="none" d="M0 0h72.511v86H0z"/></clipPath></defs><g clip-path="url(#a)"><path d="M70.173 86H16.239a3.37 3.37 0 0 1-2.155-2.7l-.04-3.175-2.971-.04a3.157 3.157 0 0 1-3.038-3.013L8 72.9l-1.824-.028a3.166 3.166 0 0 1-2.826-2.844l-.081-9.769a2.83 2.83 0 0 1-2.737-.781c-.851-.953-.46-2.567-.294-4.382L.4 53.241l.165-1.694c.036-3.105 1.137-5.326 4-6.686a6.26 6.26 0 0 1-.98-6.456A6.43 6.43 0 0 1 8 34.69l.052-31.97A2.99 2.99 0 0 1 10.55 0h53.334a2.76 2.76 0 0 1 2.533 2.492l.064 3.374 3.16.066a3.18 3.18 0 0 1 2.867 2.857v74.277A3.47 3.47 0 0 1 70.173 86"/><path fill="#b4acb5" d="m31.153 78.734 3.452-.029a8 8 0 0 0 .96.914q13.917.1 27.868.042a2.653 2.653 0 0 0 2.66-2.772l.012-53.016-.188-.762a1.7 1.7 0 0 1-.728-.734 4.44 4.44 0 0 1 .016-3.459 1.28 1.28 0 0 0 1.226-1.315v-9.1l2.745.006a.75.75 0 0 1 .59.189.84.84 0 0 1 .135.557v73.67a.534.534 0 0 1-.606.562H17.288a.615.615 0 0 1-.676-.687l.006-2.792 13.4-.015a1.246 1.246 0 0 0 1.131-1.264"/><path fill="#e0dce0" d="M65.206 18.92c.025 1.153.022 2.3-.02 3.458a2.3 2.3 0 0 1-.752.7l-.184.565-.019 53.412a.89.89 0 0 1-.474.658 28.5 28.5 0 0 1-4.215.1l-.242-.336-.054-5.094c0-.159-.062-.272-.177-.3a.77.77 0 0 1 .009-.837.76.76 0 0 1 .051-.841 5.75 5.75 0 0 0-.1-2.9.79.79 0 0 1 .043-.849 1.02 1.02 0 0 1 .055-.94 6.7 6.7 0 0 0-.082-2.9 1.02 1.02 0 0 1 .029-.89 1.02 1.02 0 0 1 .021-.911.25.25 0 0 0 .15-.233l.006-4.53c0-.159-.058-.277-.179-.295l-.2-.352a17.4 17.4 0 0 0 .167-4.761.88.88 0 0 1 .02-.965c.24-.1.195-.249.195-.515l-.006-22.828a.39.39 0 0 0-.148-.361l-.022-.675a13.35 13.35 0 0 0-.039-12.059l.015-.676c.125-.035.2-.1.2-.207l.039-10.06 4-.008a.577.577 0 0 1 .616.544v14.581a1.26 1.26 0 0 0 1.294 1.305M30.195 72.196l-.013 2.21A1.836 1.836 0 0 1 28.277 76h-5.59a1.835 1.835 0 0 1-1.92-1.591l.069-2.152a3.7 3.7 0 0 0 2.139.566h5.014a3.54 3.54 0 0 0 2.206-.624"/><path fill="#23f0a7" d="M22.298 47.216a16.3 16.3 0 0 1 3.975-.056c1.248.186 1.512 1.114 1.8 2.231q.533 4.306.819 8.657a1.37 1.37 0 0 1-1.188 1.245c-.785.226-1.018-.17-1.063-.9a1.27 1.27 0 0 0-1.4-.766 1.24 1.24 0 0 0-1.027 1.22l-.01 11.407-1.385.043a.76.76 0 0 1-.853-.777V58.952a1.2 1.2 0 0 0-1.184-1.24l-2.089-.029.7-7.523a3.23 3.23 0 0 1 2.9-2.943"/><path fill="#26d091" d="M26.642 58.396a2.3 2.3 0 0 0 .218.459c.125.141.427.127.629.121a1.044 1.044 0 0 0 1.07-1.2l-.655-7.325c-.092-1.027-.469-2.664-1.506-3.135a17 17 0 0 0-4.1-.1c.021-.132.139-.2.316-.2l5.393.035a3.643 3.643 0 0 1 3.6 3.425l.632 7.205-2.063.028a1.21 1.21 0 0 0-1.2 1.242v10.572a.7.7 0 0 1-.7.764l-1.538-.006Z"/><path fill="#fcaf9f" d="M24.813 37.209c1.276.353 1.73 2.532 1.681 3.758-.049 1.195-.632 3.229-1.937 3.436a3.682 3.682 0 0 1 .256-7.194"/><path fill="#f79e8d" d="M24.557 44.402a5.124 5.124 0 0 0 .256-7.193 3.681 3.681 0 0 1 3.642 5.8 3.65 3.65 0 0 1-3.9 1.4"/><path fill="#e0dce0" d="m19.447 63.545-1.263-.172c-.353-.026-.546-.31-.769-.659a1.22 1.22 0 0 1-1.044.692h-.986v-3.215a8.4 8.4 0 0 0 2.025-.113 8.5 8.5 0 0 0 2.028.113Z"/><path fill="#1c95f8" d="M6.119 47.218a.63.63 0 0 1 .379-.108c.88-.048 3.808-.142 4.42.232.667.408 1.1 2.09 1.18 2.858l.687 7.887c-.064 1.084-1.556 1.628-2.147.877a1.34 1.34 0 0 0-1.225-1.36A1.264 1.264 0 0 0 8.1 58.95v11.332l-1.548.006a.7.7 0 0 1-.7-.764V58.952a1.21 1.21 0 0 0-1.2-1.242l-2.069-.026.664-7.364a3.33 3.33 0 0 1 2.869-3.1"/><path fill="#1784f7" d="m10.64 58.964 1.044-.043a.876.876 0 0 0 .767-.974l-.665-7.518c-.092-1.045-.487-2.623-1.5-3.128a19.5 19.5 0 0 0-4.161-.082.37.37 0 0 1 .364-.206l5.561.053a3.52 3.52 0 0 1 3.418 3.242l.668 7.372-2.083.031a1.2 1.2 0 0 0-1.185 1.241v10.573a.71.71 0 0 1-.714.763l-1.53-.025Z"/><path fill="#fcaf9f" d="M8.69 37.213c1.286.342 1.74 2.522 1.688 3.751-.051 1.193-.639 3.232-1.944 3.434a3.678 3.678 0 0 1 .256-7.185"/><path fill="#f79e8d" d="M8.434 44.397a5.094 5.094 0 0 0 .256-7.185 3.682 3.682 0 0 1 3.644 5.8 3.62 3.62 0 0 1-3.9 1.381"/><path fill="#e0dce0" d="M10.642 76.036a16 16 0 0 1 .094-3.247 4.85 4.85 0 0 0 3.329-.583v2.2c-.009 1-1.081 1.56-2.057 1.6Z"/><path d="M65.185 22.378a1.32 1.32 0 0 1 1.251 1.49l-.007 53.028a3.02 3.02 0 0 1-2.99 3.1l-27.523.015a1.28 1.28 0 0 1-1.312-1.307 1.26 1.26 0 0 1 1.172-1.212l23.523-.018h4a.564.564 0 0 0 .614-.614V23.699a1.245 1.245 0 0 1 1.272-1.321"/><path fill="#64b8fb" d="M29.229 31.752a10.9 10.9 0 0 1-3.489 0 1.8 1.8 0 0 0-.083-.7 12.25 12.25 0 0 0 7.873-7.706 19 19 0 0 0 .922-4.157c0-.017-.051-.034-.117-.051l-.154-3.359a2.54 2.54 0 0 0-1.466-2.3 14.94 14.94 0 0 0-4.994-4.6q-.974.17-1.268-.376c.4-.255.865-.1 1.384-.081a11.1 11.1 0 0 1 2.41 21.847 1.273 1.273 0 0 0-1.019 1.483"/><path d="M59.05 12.766a13.624 13.624 0 0 1-21.711 16.13 13.4 13.4 0 0 1-6.516 3.818 1.277 1.277 0 0 1-1.595-.962c-.849-.473.05-1.438.732-1.744a10.8 10.8 0 0 0 6.95-15.68 11.92 11.92 0 0 0-10.457-5.822l-.429.375a10.4 10.4 0 0 0-6.394 3.3l.792.168a6.75 6.75 0 0 1 2.326 2.5 5.5 5.5 0 0 1 1.315.273c1.31-1.068 4.267-3.326 6.014-3.057a4.88 4.88 0 0 1 2.637 1.424c.47-.427 1.069.31 1.342.741.533.843.657 3.571.6 4.662l-.324.256a2.95 2.95 0 0 1-.283 1.926l-4.684 5.76a2.48 2.48 0 0 1-2.16.762 37 37 0 0 1-5.826-1.261 2.7 2.7 0 0 1-.661-3.752c-1.681.13-2.043.192-2.858 1.709-.13.242 1.351 2.153 1.767 2.6a13 13 0 0 0 5.761 3.314c.337.238.534.468.268.844q.808.481.083.7a1.267 1.267 0 0 1-1.547.969 13.613 13.613 0 1 1 13.156-22.59 13.53 13.53 0 0 1 12.1-4.052 13.71 13.71 0 0 1 9.607 6.689"/><path fill="#8cc9fb" d="M46.123 8.531c4.061-.61 7.353 4.714 8.133 8.214 1.215 5.451-1.37 11.676-6.616 13.851a10 10 0 0 1-3.217-.36l1.135-2.781c.717-1.756-1.43-3.1.321-4.057l2.683.544a2.52 2.52 0 0 0 2.645-.931l1.411-2.1c.907-1.349-.571-4.5-2.057-5a3.13 3.13 0 0 0-2.709.355l-1.974-.749c-.447-.17-.587-.928-.73-1.373a2.63 2.63 0 0 0 .215-3.146l-1.407-2.083a6 6 0 0 1 2.166-.388"/><path fill="#64b8fb" d="M47.643 30.595c.082-.228.25-.293.478-.427a12.335 12.335 0 0 0-.507-21.575 5.6 5.6 0 0 0-1.489-.062c.384-.291.857-.125 1.368-.109a11.092 11.092 0 0 1 .15 22.173"/><path fill="#72f3c2" d="m31.795 19.318-4.358 5.384-4.161-.76a2.85 2.85 0 0 0 .757-2.193 2.735 2.735 0 0 0-2.548-2.194l-3.018.446a3.03 3.03 0 0 0-1.961 1.068 10.8 10.8 0 0 1 .849-6.075c2.715-.409 2.372 1.08 3.572 2.13a4.33 4.33 0 0 0 2.194.658 3.19 3.19 0 0 0 3.101-.788 19 19 0 0 1 3.431-2.079l1.993.9Zm17.43 2.175-2.937-.629a2.89 2.89 0 0 0-2.732 1.218c-2.094 2.207-.2 4-.433 4.594l-1.051 2.678a11.8 11.8 0 0 1-3.137-2.456 13.62 13.62 0 0 0 .011-14.732 9.7 9.7 0 0 1 2.652-2.212l1.709 2.46a2.94 2.94 0 0 0-.182 3.528c.4.7.71 1.535 1.527 1.836l2.319.855a3.26 3.26 0 0 0 2.677-.4c.26.451.745 1.06.661 1.522-.167.629-.722 1.087-1.077 1.734"/><path fill="#8cc9fb" d="M25.657 31.052a1.39 1.39 0 0 0-.913-.782 11.12 11.12 0 0 1-7.286-5.983l1.168-1.756 2.869-.406a2.97 2.97 0 0 0-.89 2.443 2.07 2.07 0 0 0 1.467 1.677l5.086.992a2.13 2.13 0 0 0 2.026-.713l4.518-5.556a2.7 2.7 0 0 0 .634-1.83c.175-.291.381.022.172.147a12.41 12.41 0 0 1-8.255 11.886c-.228.082-.511.049-.6-.119m.8-22.549 1.366.061a12.46 12.46 0 0 1 5 4.709.17.17 0 0 1-.108.207 17 17 0 0 1-1.677-.722 2.81 2.81 0 0 0-3.148.215 19.7 19.7 0 0 0-3.718 2.434l-1.6-.255-1.443-1.918a2.55 2.55 0 0 0-2.229-.734 10.73 10.73 0 0 1 7.556-4"/><path d="M59.055 49.883a6.5 6.5 0 0 1 .355 3.185 5.7 5.7 0 0 1-.341 2.893 2.91 2.91 0 0 1-2.505 1.534l-14.611.008a2.934 2.934 0 0 1-2.951-2.983v-3.238a2.91 2.91 0 0 1 2.945-2.914l14.78.016a2.86 2.86 0 0 1 2.324 1.5"/><path fill="#fbc06d" d="M53.131 50.885c.13.039.323.1.33.2.027.386-.037 3.491-.115 3.656a.55.55 0 0 1-.343.23l-11.421-.017.021-4.057Z"/><path fill="#fba52f" d="m53.002 54.975.129-4.09 3.713.049.047 3.638c0 .329-.372.418-.644.416Z"/><path fill="#f1eef1" d="M59.289 2.497c.132.015.333.064.335.157.1 3.365 0 6.87-.155 10.212a.39.39 0 0 1-.419-.1l-.556-.278a13.33 13.33 0 0 0-9.672-6.16c-4.504-.49-8.173 1.06-11.473 4.071-4.089-3.778-9.32-5.308-14.642-3.275-12.324 4.706-10.789 22.709 1.973 25.285q.534-.337 1.059-.658a1.05 1.05 0 0 1 .535-.263 21 21 0 0 1 2.418 0 1.07 1.07 0 0 1 .536.263h.228c.488.61.767.793 1.56.562a16.15 16.15 0 0 0 6.323-3.687c3.128 2.827 6.553 4.4 10.83 4.127a13.3 13.3 0 0 0 10.374-6.3l.552-.277c.372-.127.5.015.484.386l.007 23.032c-.012.375-.191.462-.532.286q-.438.115-.784-.465l-.927-.59q-7.666-.2-15.388-.124c-3.016.027-2.826 3.639-2.618 5.811a2.574 2.574 0 0 0 2.4 2.643l15.036-.008a2.59 2.59 0 0 0 1.9-1.18l.4-.009c.113-.123.321-.208.388-.1a28 28 0 0 1 .074 5.123.37.37 0 0 1-.44.037.92.92 0 0 1-.876-.037H48.132a.921.921 0 0 0-.083 1.83l10.166.006a.79.79 0 0 1 .823 0c.757.369.769 2.448.082 2.9a1.13 1.13 0 0 1-.909-.076H39.719a.922.922 0 0 0-.048 1.834l18.515.006a.88.88 0 0 1 .838.023q.66.094.569 1.247c.035.514.1 1.567-.464 1.655a2.8 2.8 0 0 1-1.072-.11l-18.342.005c-1.147.241-1.144 1.572.066 1.838l18.239.007a1.6 1.6 0 0 1 1.048-.063c.125-.111.335-.183.4-.072a40 40 0 0 1 .161 5.216l-.334.247-.117.336-23.441.017-.453.191a1.52 1.52 0 0 1-.683.685c-.034.131-.086.325-.188.338a28 28 0 0 1-3.021.025.56.56 0 0 1-.242-.334 1.244 1.244 0 0 0-1.18-1.236l-19.067-.043c-.4-.274-.271-1.07-.264-1.419l.175-.34c2.376.177 3.272-.566 2.91-3.044l.335-.444a3.4 3.4 0 0 0 1.327-2.834v-5.963l.012-.224a3.5 3.5 0 0 1 1.183-.152q.916-.959 1.519-.022 1.06-.023 1.348.533v5.828a3.4 3.4 0 0 0 1.393 2.883l.325.347q-.589 2.8 1.457 3.059h5.653q2.063-.2 1.586-3.024l.338-.445a3.17 3.17 0 0 0 1.275-2.335l.033-6.6a1.34 1.34 0 0 1 1.124-.214l.435-.235a21 21 0 0 0-.041-2.483l.327-.25a2.33 2.33 0 0 0 1.424-2.476l-.669-7.411a6.15 6.15 0 0 0-3.949-5.268 6.215 6.215 0 1 0-9.366 0 6.3 6.3 0 0 0-3.377 3.07 6.27 6.27 0 0 0-3.375-3.067 6.2 6.2 0 0 0 1.1-6.375 6.28 6.28 0 0 0-4.515-3.815V3.025c0-.365.271-.534.612-.534Z"/><path fill="#dfdbdf" d="m33.348 60.086.1 2.67c-.2.8-1.349.733-1.945.512l.014-3.022a7.3 7.3 0 0 0 1.831-.16"/><path d="M59.122 65.716a1.38 1.38 0 0 1-.1 1.789 1.43 1.43 0 0 1-.822.312H39.788a1.244 1.244 0 0 1-1.244-1.227 1.216 1.216 0 0 1 1.229-1.285h18.461a1.24 1.24 0 0 1 .889.411"/><path fill="#010101" d="M59.129 70.407a1.28 1.28 0 0 1-.061 1.678 1.42 1.42 0 0 1-1.041.4l-18.185-.006a1.255 1.255 0 0 1-1.293-1.19 1.21 1.21 0 0 1 1.219-1.322h18.3a1.3 1.3 0 0 1 1.065.446"/><path d="M59.09 61.016a1.364 1.364 0 0 1-.05 1.8 1.34 1.34 0 0 1-.8.335H48.164a1.253 1.253 0 0 1 .013-2.506h10.058a1.32 1.32 0 0 1 .857.372M38.718 44.371a1.263 1.263 0 1 1-1.983-1.562l4.223-5.167a1.263 1.263 0 0 1 1.666-.262 1.245 1.245 0 0 1 .265 1.862Z"/><path fill="#020202" d="M36.578 37.205a1.257 1.257 0 0 1 .553 2.451 1.257 1.257 0 1 1-.553-2.451m5.878 5.211a1.262 1.262 0 1 1-.786 1.746 1.254 1.254 0 0 1 .786-1.746"/></g></svg>