<svg xmlns="http://www.w3.org/2000/svg" width="86" height="86" viewBox="0 0 86 86"><defs><clipPath id="a"><path fill="none" d="M0 0h86v86H0z"/></clipPath></defs><g clip-path="url(#a)"><path d="M86.003 68.195v17.8h-5.21c-.508-.059-.485-1.076 0-1.176-.586-.146-.451-1.644.2-1.678l2.152-.051V71.17a5.5 5.5 0 0 0-2.019-.073q.1 4.953-.12 9.855l-.37.178h-9.473a4.2 4.2 0 0 0-.017 2.018l7.059.016c.5.285.63 1.425.065 1.663.5.053.491 1.07 0 1.176H68.196v-7.73h10.078V68.195ZM44.352 27.862l-2.7.018v-5.031h2.691Zm7.622-.827-3.589 3.613-1.864-1.85 3.636-3.549Zm-12.555 1.748-1.8 1.862-3.592-3.595 1.9-1.792Z"/><path fill="#89d7f5" d="M80.794 84.824h-2.522l-.015-1.345h-7.536v-2.69h10.071V70.718h2.69v12.753l-2.677.012Z"/><path d="M80.928 58.117h-75.7l.045-4.482A15.05 15.05 0 0 1 19.638 40.46a15.13 15.13 0 0 1 13.235 6.162l.1-4.951a10.126 10.126 0 0 1 20.036-.3l.121 5.4a15.43 15.43 0 0 1 11.7-6.312c8.816-.474 15.968 5.755 16.06 14.338Z"/><path fill="#ea965d" d="M41.762 55.475c-4.558-2.152-4.378-8.09-4.074-12.382l.338-.241a4.35 4.35 0 0 0 2.415-1.372 4.82 4.82 0 0 0 3.566 1.484h6.572v5.084a7.54 7.54 0 0 1-8.817 7.43"/><path fill="#57748c" d="M43.925 40.434a2.163 2.163 0 0 1-2.188-1.89v-3.019a7.594 7.594 0 0 1 8.4 4.879Z"/><path fill="#b15e1e" d="m38.026 42.851-.056 5.535a9.2 9.2 0 0 0 3.792 7.088 7.425 7.425 0 0 1-6.307-7.259l.015-5.278a11.2 11.2 0 0 0 2.557-.086"/><path fill="#4a6175" d="M36.312 55.569h-2.534a3.57 3.57 0 0 1-3.17-2.636 6.9 6.9 0 0 0 2.89-1.583 9.94 9.94 0 0 0 2.814 4.22m2.75-16.561a2.516 2.516 0 0 1-3.15 1.379 7.4 7.4 0 0 1 3.228-3.884 6.4 6.4 0 0 1-.078 2.5"/><path fill="#93b6f6" d="M78.011 52.742q.1.664-.247.683l-6.851-.062-.194-.338-.008-9.064a12.13 12.13 0 0 1 7.3 8.781m-17.376.416c-.02.129-.061.322-.152.332a6.6 6.6 0 0 1-2.442-.227l.009-.788.038-1.931a7.3 7.3 0 0 1-2.436-.191c-.614-1 .091-2.395.636-3.358a12.1 12.1 0 0 1 4.345-2.981Z"/><path fill="#5b91f1" d="m70.718 53.025 7.054.066c.18 0 .24-.306.238-.35a12.3 12.3 0 0 1 .288 2.858h-7.577Z"/><path fill="#fefefe" d="M68.194 53.155c-.019.13-.064.325-.158.332a32 32 0 0 1-4.637-.123l-.232-.342.017-4.509 2.588 2.556 2.406-2.4Z"/><path fill="#fdd9a9" d="m65.772 47.504-2.583-2.528v-1.748a13.9 13.9 0 0 1 4.982-.008 5.1 5.1 0 0 1-.042 1.752Z"/><path fill="#e2ecf5" d="M68.19 53.155V55.6h-5.028v-2.579Z"/><path fill="#4a6175" d="m51.849 55.601-2.151-.038a10 10 0 0 0 2.833-4.219 6.56 6.56 0 0 0 2.872 1.587 3.74 3.74 0 0 1-3.554 2.67"/><path fill="#5b91f1" d="M60.636 53.157v2.442l-3.79-.024a5.4 5.4 0 0 0 1.2-3.1 4 4 0 0 0 .112.613Z"/><path fill="#5a90ed" d="M55.653 50.352a3.35 3.35 0 0 1-1.217-.683 9.7 9.7 0 0 1 1.856-2.675 21 21 0 0 0-.636 3.358"/><path fill="#00c90f" d="M15.279 53.151c-.016.132-.062.329-.154.335a42 42 0 0 1-4.708-.039c-.446-.068-.482-.2-.582-.613a9.56 9.56 0 0 1 .739-5.174 12.3 12.3 0 0 1 4.71-3.593Zm12.785-.015c-.023.128-.061.312-.159.329a18 18 0 0 1-2.317-.1l-.215-.346v-9.084a11.5 11.5 0 0 1 6.3 5.693 4.53 4.53 0 0 1-3.706.88 9.5 9.5 0 0 0 .106 2.632"/><path fill="#00ad0c" d="M15.28 53.151V55.6H7.762a12.47 12.47 0 0 1 2.811-7.942 21.2 21.2 0 0 0-.4 5.449Z"/><path fill="#fefefe" d="M22.84 53.154c-.019.13-.064.325-.158.332a32 32 0 0 1-4.637-.124l-.232-.342.019-4.4 2.5 2.464 2.488-2.549Z"/><path fill="#fed9a9" d="m20.355 47.478-2.537-2.477.015-1.765a14.2 14.2 0 0 1 4.984-.032 9 9 0 0 1 0 1.772Z"/><path fill="#e2ecf5" d="M22.84 53.154V55.6h-5.028v-2.579Z"/><path fill="#00ad0c" d="M28.064 53.135a6.6 6.6 0 0 0 1.1 2.442l-3.79.022v-2.585Z"/><path d="m58.1 78.269-30.214.009.066-4.8a13.47 13.47 0 0 1 6.9-10.755 16.99 16.99 0 0 1 15.193-.584 13.58 13.58 0 0 1 8.017 11.316Z"/><path fill="#fefefe" d="M46.525 67.121c.078-.066.16-.059.2.039a46 46 0 0 1 .02 6.251.4.4 0 0 1-.166.144q-3.53.015-7.06-.02l-.125-.227-.012-6.247a6.35 6.35 0 0 0 7.139.06"/><path fill="#f595c2" d="M55.344 73.131c-.034.132-.091.328-.193.337a38 38 0 0 1-5.543.023l-.245-.335v-8.52a11.44 11.44 0 0 1 5.977 8.5m-18.547.154c-.038.13-.1.325-.2.332a17.6 17.6 0 0 1-3.885-.248c-.584-1.046-.008-5.335.882-6.4a11.3 11.3 0 0 1 3.2-2.427Z"/><path fill="#ee71ad" d="m36.793 73.29-.008 2.391h-6.33a12.4 12.4 0 0 1 3.134-8.706 17.1 17.1 0 0 0-.665 6.241Z"/><path fill="#e1ebf4" d="m39.387 67.062.088 6.157h7.222l.011-5.705a.48.48 0 0 0-.181-.393c.075-.049.1-.177.255-.095.1.053.087.17.086.328l-.046 8.327-7.521-.007Z"/><path fill="#ee71ac" d="m49.361 73.156 5.981-.025a10.5 10.5 0 0 1 .19 2.551l-6.174-.005Z"/><path fill="#e9965c" d="M46.408 63.473a3.741 3.741 0 0 1-6.8 0 13.84 13.84 0 0 1 6.8 0"/><path d="m55.599 29.289.088-11.153c.021-2.727 2.74-5.121 5.424-5.3l9.764-.1a2.6 2.6 0 0 0 2.376-2.458l2.506-.011-.01 18.932a10.172 10.172 0 0 1-20.148.1"/><path fill="#fed9a9" d="M73.248 23.014v4.875a7.56 7.56 0 0 1-8.761 7.455c-2.2-.859-3.542-3.342-4.032-5.559a44 44 0 0 1-.158-6.706.54.54 0 0 1 .234-.133q6.381-.091 12.718.068"/><path fill="#57758c" d="M60.575 20.375c-.666-.547-.3-2.11-.04-2.908.282-.881.711-1.955 1.678-2.185l8.506.011a5.3 5.3 0 0 0 2.522-.678l.006 5.775Z"/><path fill="#feb57f" d="M73.248 23.013H60.621l.015 5.215a9.11 9.11 0 0 0 3.849 7.115 7.63 7.63 0 0 1-6.385-7.622l.01-4.827c1.127.086 2.117-.038 3.208-.039l11.727-.014a.23.23 0 0 1 .2.171"/><path fill="#4b6275" d="M62.211 15.282a6.34 6.34 0 0 0-1.638 5.093h-2.428l-.042-1.052a3.9 3.9 0 0 1 4.107-4.041"/><path d="M17.806 86.005H-.001v-17.8h7.73v10.08h10.078Z"/><path fill="#89d7f5" d="m15.25 80.789.023 2.693H2.52V70.725h2.69v10.071Z"/><path d="M21.11 37.968a9.8 9.8 0 0 1-7.523-2.541 8.98 8.98 0 0 1-3.265-6.365l.016-7.522a9.98 9.98 0 0 1 9.895-8.821 10.18 10.18 0 0 1 10.162 8.806v7.693a10.17 10.17 0 0 1-9.287 8.75"/><path fill="#fdf1e1" d="m24.105 22.913.008 1.2 3.782.011v3.769a7.55 7.55 0 0 1-8.812 7.441c-2.693-1.1-3.812-3.957-4.173-6.668a46 46 0 0 1-.033-4.852c.113-.42.137-.5.6-.347a8.7 8.7 0 0 0 3.236.636h2.866l.007-1.268c0-.2.061-.285.242-.33.373-.092 2.186-.072 2.276.4"/><path fill="#f6d600" d="M26.943 19.202a6.9 6.9 0 0 1 .836 2.383l-3.653.012-.021 1.316-2.517-.065-.022-1.248-2.853-.009a5.96 5.96 0 0 1-4.878-2.579 5.8 5.8 0 0 1 1.474-1.8l.5.032a5.97 5.97 0 0 0 4.2 1.663l6.5-.036Z"/><path fill="#fde85c" d="m26.943 19.203-6.935.039a6.28 6.28 0 0 1-4.7-2.031 7.4 7.4 0 0 1 6.546-1.772 7.55 7.55 0 0 1 5.088 3.764"/><path fill="#fee0b9" d="M15.477 23.473a.42.42 0 0 0-.269.379l.027 4.375a9.06 9.06 0 0 0 3.851 7.112 7.605 7.605 0 0 1-6.337-7.612l.021-5.956a10 10 0 0 0 2.707 1.706"/><path d="m7.741 7.727-.015 10.081H0V0h17.807v7.728Z"/><path fill="#89d7f5" d="m5.22 5.207-.013 10.072H2.52V2.52h12.757v2.69Z"/><path d="M86.004-.001v17.8h-7.727V7.728H68.194V-.001Z"/><path fill="#89d7f5" d="M80.795 15.28V5.208H70.726v-2.69h12.757v12.759Z"/></g></svg>