<svg xmlns="http://www.w3.org/2000/svg" width="76.627" height="86" viewBox="0 0 76.627 86"><defs><clipPath id="a"><path fill="none" d="M0 0h76.627v86H0z"/></clipPath></defs><g clip-path="url(#a)"><path d="M20.631 26.459c.264-.97 1.647-.323 2.1.426a17.05 17.05 0 0 0 5.263 6.61l.306.64 1.434.531a35 35 0 0 0 4.923 2.117q1.862 2.61 3.7 5.132 1.745-2.66 3.683-5.189c6.348-1.757 11.406-6.377 12.885-12.921a16.95 16.95 0 0 0-3.822-15.14l-.606-1.128-.694-.2c-11.701-10.56-30.136-1.029-28.45 14.53-.039.807-.794 1.925-1.476 1.3a1.25 1.25 0 0 1-1.07-.4 1.76 1.76 0 0 1-.414-1.2A19.982 19.982 0 1 1 43.834 39.11l-3.293 4.77a2.62 2.62 0 0 1-2.156 1.127 2.67 2.67 0 0 1-2.3-1.128l-3.3-4.758a19.94 19.94 0 0 1-12.748-11.233 1.166 1.166 0 0 1 .594-1.429"/><path fill="#b2d9fd" d="M50.499 7.537c.738.874 1.648 5.258 1.175 5.995a1.5 1.5 0 0 1-.231.266l-.539-.334a14.17 14.17 0 0 0-23.472-2.568c-6.576 7.906-2.744 19.656 6.856 22.77l.414.475-.335.293q-2.479.173-4.937.17l-1.129-.469a17.15 17.15 0 0 1-5.772-6.913 1.394 1.394 0 0 0-1.9-.762l-.755-3.3a1.32 1.32 0 0 0 1.133-1.477 17.388 17.388 0 0 1 29.49-14.151"/><path fill="#89c8fd" d="M28.3 34.135c2.088.653 4.47-.325 6.4.006l.633-.241a14.308 14.308 0 0 0 16.038-19.438l.071-.665a23.4 23.4 0 0 0-.943-6.261 17.385 17.385 0 0 1-7.839 29.246 1.5 1.5 0 0 0-.828.674l-3.516 5.122-3.661-5.312a1.63 1.63 0 0 0-.967-.557 16.7 16.7 0 0 1-5.387-2.57"/><path d="M51.442 13.797a14.53 14.53 0 0 1-2.1 15.538c-3.645 4.332-9.17 5.743-14.639 4.806a14.88 14.88 0 0 1-10.882-14.558 14.5 14.5 0 0 1 27.621-5.786"/><path fill="#e9f5fe" d="M37.47 7.997a11.969 11.969 0 1 1-11.094 12.907A11.97 11.97 0 0 1 37.47 7.997"/><path d="m43.432 17.793-10.153.012a1.266 1.266 0 0 1-1.309-1.266 1.245 1.245 0 0 1 1.309-1.258h10.066a1.256 1.256 0 1 1 .082 2.51"/><path fill="#010101" d="m43.444 24.577-10.172.013a1.27 1.27 0 0 1-1.3-1.165 1.244 1.244 0 0 1 1.172-1.343h10.339a1.25 1.25 0 0 1-.04 2.5"/><path fill="#e99a57" d="M1.357 79.793v-3.376a1.29 1.29 0 0 0 1.24-1.324l-.009-2.36h2.919V83.47l-2.919.005.005-2.36a1.29 1.29 0 0 0-1.24-1.326"/><path fill="#ba5c4c" d="M75.272 76.418v3.374a1.29 1.29 0 0 0-1.241 1.327l.006 2.361-2.919-.005V72.739l2.919-.006-.006 2.36a1.29 1.29 0 0 0 1.241 1.325"/><path d="M75.271 76.418c-.858.647-1.373-.391-1.573-1.214v-2.132l-2.247.042v10.025H73.7v-2.132c.181-.827.739-1.86 1.573-1.216a1.23 1.23 0 0 1 1.323 1.171l-.014 4.006c0 .5-.526.784-.813 1.03H.861c-.287-.246-.811-.531-.813-1.03l-.014-4.004a1.23 1.23 0 0 1 1.323-1.171c.857-.645 1.372.394 1.573 1.215v2.132h2.244V73.072H2.928v2.132c-.181.827-.738 1.858-1.573 1.214A1.3 1.3 0 0 1 0 75.084L.1 65.05c.309-4.066 4.024-6.67 8.128-6.029a8.03 8.03 0 0 1-1.434-5 7.01 7.01 0 0 1 5.028-5.941 6.874 6.874 0 0 1 7.221 10.9 7.54 7.54 0 0 1 5.524 1.3l1.427 1.406A7.15 7.15 0 0 1 33 59.021a6.77 6.77 0 0 1-1.052-6.922 6.879 6.879 0 1 1 11.731 6.91 7.13 7.13 0 0 1 7 2.731c1.637-2.321 4.068-3.088 6.916-2.731a6.91 6.91 0 0 1-.831-7.275 6.82 6.82 0 0 1 5.392-3.869 6.91 6.91 0 0 1 7.687 6.459 8.17 8.17 0 0 1-1.439 4.7c4.1-.639 7.819 1.964 8.127 6.03l.1 10.034a1.3 1.3 0 0 1-1.356 1.334"/><path fill="#d78955" d="m24.731 83.445-2.912.024V72.741h2.909Z"/><path fill="#fdd1a3" d="m30.161 83.446-2.915.031V72.744h2.909Z"/><path fill="#c96e59" d="m54.812 83.445-2.913.027V72.741h2.908Z"/><path fill="#fd646f" d="M30.693 61.661q7.054-.167 14.144-.1c.72.157 1.146.906 1.464 1.539.74 1.471.733 5.113.605 6.87l-.335.244h-1.212a1.286 1.286 0 0 0-1.408 1.346v11.923H32.673V71.56a1.29 1.29 0 0 0-1.406-1.347h-4.028l.022-4.732c.009-1.852 1.573-3.82 3.43-3.821"/><path fill="#fdd1a3" d="M41.725 52.077c1.111 3.137-3.063 7.162-6.158 5.9a4.291 4.291 0 1 1 6.158-5.9"/><path fill="#febc85" d="m49.384 83.448-2.911.02V72.744l2.909-.005Z"/><path fill="#fc4755" d="m46.571 70.212-.007-4.535a5.4 5.4 0 0 0-1.768-4.029l-14.1.012a.47.47 0 0 1 .4-.179l13.762-.013a4.25 4.25 0 0 1 4.52 4.215l.008 4.522Z"/><path fill="#febc85" d="M35.567 57.974a5.66 5.66 0 0 0 6.158-5.9 4.289 4.289 0 0 1-6.158 5.9"/><path fill="#528ed7" d="M20.069 61.466a1.6 1.6 0 0 1 1.08.764c1.324 1.719 1.233 5.572 1.023 7.748l-.341.235h-1.317a1.27 1.27 0 0 0-1.216 1.339v11.926H8.028V71.43a1.277 1.277 0 0 0-1.282-1.217H2.588l.021-4.684a4.154 4.154 0 0 1 4.3-4.037Z"/><path fill="#e99a58" d="M17.08 52.085c1.095 3.147-3.1 7.2-6.2 5.861a4.293 4.293 0 1 1 6.2-5.861"/><path fill="#0573cd" d="m21.832 70.213.086-4.367a6.03 6.03 0 0 0-1.849-4.38c2.524 0 4.65 1.576 4.654 4.225l.006 4.513Z"/><path fill="#d78954" d="M10.873 57.946a5.63 5.63 0 0 0 6.2-5.861 4.292 4.292 0 0 1-6.2 5.861"/><path fill="#00f1a5" d="M55.231 61.688q7.12-.2 14.28-.127c.684.154 1.113.895 1.426 1.493.8 1.527.706 5.083.625 6.9l-.335.249-1.176.008a1.29 1.29 0 0 0-1.453 1.213v12.053H57.324V71.551a1.286 1.286 0 0 0-1.215-1.346h-4.207l-.012-4.411c0-1.889 1.373-4.11 3.338-4.116"/><path fill="#c96e59" d="M66.388 52.087c1.07 3.131-3.051 7.139-6.15 5.9a4.29 4.29 0 1 1 6.15-5.9"/><path fill="#05e29b" d="m71.227 70.207-.029-4.868a5.38 5.38 0 0 0-1.726-3.694l-14.241.043a.38.38 0 0 1 .38-.21h13.934a4.2 4.2 0 0 1 4.473 4.054l.023 4.682Z"/><path fill="#ba5d4c" d="M60.238 57.99a5.688 5.688 0 0 0 6.149-5.9 4.288 4.288 0 0 1-6.149 5.9"/></g></svg>