<svg xmlns="http://www.w3.org/2000/svg" width="62.115" height="66" viewBox="0 0 62.115 66"><defs><clipPath id="a"><path fill="none" d="M0 0h62.115v66H0z"/></clipPath><clipPath id="b"><path fill="none" d="M.032 8.616h8.646a.116.116 0 0 1 .081-.165V.032L.003-.001Z"/></clipPath><linearGradient id="c" x1="-1.018" x2="-.983" y1="4.005" y2="4.005" gradientUnits="objectBoundingBox"><stop offset="0" stop-color="#ba5d4c"/><stop offset="1" stop-color="#c96e59"/></linearGradient></defs><g clip-path="url(#a)"><path fill="#fee4c1" d="M17.368 1.94v16.375c.036.162.322.214.4.252-1.208-.124-2.435-.016-3.769-.049V1.944Z"/><path fill="#c96e59" d="M60.075 35.479a.37.37 0 0 1-.245.258l-18.445-.049c-1.028-.35-.928-1.83-.816-2.78l.258-.18 2.573-.008a1.04 1.04 0 0 0 .739-.345.92.92 0 0 0 .182-.815.64.64 0 0 0 .494.2l1.821-.008c.19 0 .317-.193.38-.3a1.06 1.06 0 0 0 .109.845 1.02 1.02 0 0 0 .807.419h9.905a2.25 2.25 0 0 1 1.816.856 2.15 2.15 0 0 1 .423 1.9"/><path fill="#ba5d4c" d="M40.826 32.727v1.955a.735.735 0 0 0 .787.77l18.462.027a2.155 2.155 0 0 1-2.006 1.748l-19.934.025v-4.52Z"/><path d="M55.408 10.554c-.451.508-1.069-.223-1.243-.745l-.034-7.534q-18.236-.144-36.6-.076l-.16-.258-.115.258h-2.988l-.013 15.967a22 22 0 0 0 2.918.1l.593.3c.363-.436 1.239.029 1.684.284a4.39 4.39 0 0 1-.745 7.928 20 20 0 0 1-.045 2.165 2.9 2.9 0 0 1 1.219 2.6l3.651-.043a2.17 2.17 0 0 1 1.769-.99c1.369-.146 3.621-.235 4.446 1.03l6.427-.008a2.6 2.6 0 0 1 1.051-.9q3.08-.172 6.2-.1c.571.112 1.367.421.9 1.028.414.3.308.66-.025 1.024-.463.506-2.542.472-3.284.4l-.185-.257-.115.258h-2.307l-.011 3.986q9.88.023 19.755-.008a1.88 1.88 0 0 0 1.642-1.416l.285-.073-.216-.245a1.97 1.97 0 0 0-2.028-2.256l-10.12-.021c-.773-.224-1.285-.822-.7-1.5-.356-.485.217-.745.662-.9l6.379-.026.078-.092.017-16.474c.152-.638.667-1.424 1.26-.907a1.075 1.075 0 0 1 1 1.037l.018 16.591a9.7 9.7 0 0 1 1.814.1 4.193 4.193 0 0 1 3.873 4.082 4.236 4.236 0 0 1-3.536 4.289l-2.149.048-.03 25.168A1.91 1.91 0 0 1 55.263 66H1c-.25-.287-.907-.6-.979-1.076L0 60.588a2.2 2.2 0 0 1 2.134-1.954l.066-1.758a2.09 2.09 0 0 1 1.932-2.039l7.944-.064-.027-3.3-3.21-.035a4.02 4.02 0 0 1-3.8-3.6 4.136 4.136 0 0 1 2.873-4.46l.018-2.447a2.22 2.22 0 0 1-1.085-1.812l-.022-8.133a2.38 2.38 0 0 1 1.138-1.95l-.015-2.407a4.168 4.168 0 0 1 .854-8.142l3.284-.059-.014-16.734A1.51 1.51 0 0 1 13.653 0l41.188.011a1.555 1.555 0 0 1 1.53 1.613l.034 7.749a1.13 1.13 0 0 1-1 1.18"/><path fill="#fee4c1" d="M17.513 51.435a.6.6 0 0 0-.147.377l-.049 2.994h-3.322L14 51.46Z"/><path fill="#873f2e" d="m36.185 35.071-.118.258h-6.284l-.152-.258v-1.323h6.55Z"/><path fill="#c96e59" d="M17.79 45.278c1.072 0 1.775 1.354 1.634 2.339a2.18 2.18 0 0 1-2.182 1.9l-6.074-.008c-1.077-.319-1.255-2.049-1-3.02.128-.494.362-1.2.888-1.3q3.382-.062 6.738.083"/><path fill="#ba5d4c" d="m17.79 45.274-6.705-.028a3.21 3.21 0 0 0 .083 4.261l-2.186-.011a2.127 2.127 0 0 1-2-2.238 2.164 2.164 0 0 1 2.141-2.115l8.377-.03a.29.29 0 0 1 .29.161"/><path fill="#c96e59" d="M17.653 24.735q-3.273.126-6.577.068c-.5-.078-.717-.687-.863-1.145-.323-1.015-.153-2.7.834-3.2h6.193a2.17 2.17 0 0 1 2.2 2.045 2.05 2.05 0 0 1-1.784 2.236"/><path fill="#ba5d4c" d="M11.047 20.458c-.013.238-.191.4-.315.621a3.17 3.17 0 0 0 .372 3.669l6.548-.013c-.124.183-.313.142-.54.141l-7.737-.018a2.25 2.25 0 0 1-2.387-2.036 2.19 2.19 0 0 1 1.993-2.349c.729-.056 1.408-.009 2.067-.009"/><path fill="#873f2e" d="M12.153 43.197c-.1-.018-.242-.052-.252-.126a14 14 0 0 1 .087-1.655.43.43 0 0 1 .267-.166h4.236v1.952Zm4.34-14.577a39 39 0 0 1-4.507.025c-.092-.037-.169-1.86.216-1.858l4.286-.009Z"/><path fill="#6c3226" d="M12.202 26.787v1.844l4.287-.011a.33.33 0 0 1-.282.131l-6.292-.021v-1.934Z"/><path fill="#6c3326" d="m12.256 41.249-.1 1.947H9.919v-1.94Z"/></g><g clip-path="url(#b)" transform="translate(8.839 30.674)"><path fill="url(#c)" d="M0 0h8.709v8.85H0z" transform="rotate(-89.394 4.308 4.354)"/></g><g clip-path="url(#a)"><path fill="#ba5d4c" d="M17.517 39.291"/><path fill="#c96e59" d="M17.598 39.126v-8.419Z"/><path fill="#873f2e" d="M11.809 59.403a.93.93 0 0 0 .165.834.95.95 0 0 0 .763.361l11.746.027.017 3.443-19.256-.007c-.1-.027-.252-.072-.257-.149a24 24 0 0 1 .028-3.155 27 27 0 0 1 3.2-.131 1 1 0 0 0 .759-.391.95.95 0 0 0 .16-.83c.841-.052 1.8-.03 2.675 0"/><path fill="#c96d59" d="M22.172 56.846a7.3 7.3 0 0 1 .054 1.822h-9.489a.936.936 0 0 0-.93.731.38.38 0 0 1-.366.24H9.499a.38.38 0 0 1-.366-.238.88.88 0 0 0-.813-.72l-.748-.025c-.1-.014-.247-.043-.257-.115a11 11 0 0 1 .016-1.636.5.5 0 0 1 .183-.107l14.314-.021Z"/><path fill="#6c3326" d="m8.215 60.626-2.96.1-.013 3.34H1.907l.042-3.442Z"/><path fill="#ba5c4c" d="M22.172 56.847H7.586l-.014 1.811-3.376.006.036-1.9 17.636-.049a.38.38 0 0 1 .306.132"/><path fill="#6d3326" d="M36.184 35.073v1.154h-6.556v-1.153Z"/><path fill="#c96e59" d="M26.338 37.248c-.1-.028-.252-.075-.256-.154a29 29 0 0 1 .04-3.533q-.118-.651.267-.828h1.291v4.509Z"/><path fill="#873f2e" d="M23.551 35.072c-.012.1-.043.251-.115.258a26 26 0 0 1-3.7 0l-.186-.258v-1.315l3.993-.006Z"/><path fill="#6d3326" d="M23.55 35.073v1.155h-3.995v-1.154Z"/><path fill="#b95c4b" d="m26.389 32.735-.051 4.514-.842-.009v-4.487Z"/><path fill="#fef2dd" d="M17.317 54.806c-.1-.013-.251-.047-.256-.117a24 24 0 0 1 .049-2.9c.07-.266.085-.292.4-.353a4 4 0 0 0 3.825-3.575 4.12 4.12 0 0 0-2.885-4.48l-.014-2.468a2.53 2.53 0 0 0 1.061-2.732l4.142.032a2.07 2.07 0 0 0 1.593.987l2.7-.011a1.65 1.65 0 0 0 1.563-1.03h6.816a1.78 1.78 0 0 0 1.683 1.025h16.401l-.005 24.885H26.458l-.011-3.1a2.28 2.28 0 0 0-2.252-2.31l-.014-1.563a2.23 2.23 0 0 0-2.174-2.275Z"/><path d="m48.338 53.48-17.932.014a.964.964 0 0 1 0-1.927l17.754-.007a.963.963 0 0 1 .982.877c.046.34-.2 1.043-.805 1.044m-.115-9.392H30.397a.95.95 0 0 1-.95-.974.96.96 0 0 1 .96-.959h17.752a.96.96 0 0 1 .98.891.94.94 0 0 1-.918 1.043"/><path fill="#010101" d="M40.63 56.284a.915.915 0 0 1 .9 1.008.96.96 0 0 1-1.015.915H30.448a.966.966 0 0 1-.991-.913.933.933 0 0 1 .933-1.014Zm7.482-9.419a.965.965 0 1 1 .138 1.925l-9.195.011a.974.974 0 1 1 .1-1.941Zm-12.416 1.926-5.26.008a.97.97 0 1 1 .077-1.935h5.029a.976.976 0 0 1 1.087.9.944.944 0 0 1-.933 1.032m12.483 9.405-4.593.006a.974.974 0 1 1 .073-1.941l4.521.01a.95.95 0 0 1 .968.911.96.96 0 0 1-.969 1.014"/><path fill="#fef2dd" d="M55.408 10.553v2.5a1.04 1.04 0 0 0-1 .923l-.021 16.811h-6.473a.916.916 0 0 0-.9.666q-.083.517-.353.552h-1.989q-.293.021-.353-.448a.9.9 0 0 0-.916-.771l-5.665.012a1.8 1.8 0 0 0-1.415.992l-6.775.008a1.92 1.92 0 0 0-1.615-1.028h-2.7a2.04 2.04 0 0 0-1.595 1l-4.14.04a2.57 2.57 0 0 0-1.055-2.748v-2.463a4.145 4.145 0 0 0 2.913-4.343 4.1 4.1 0 0 0-3.594-3.688l-.629-.168q-.044-8.145-.024-16.3l.258-.157h37.02l.021 7.71c0 .557.555.831 1 .908"/><path d="M32.704 6.13a10.008 10.008 0 1 1-8.4 11.475 10 10 0 0 1 8.4-11.475"/><path fill="#47a820" d="M34.279 7.951a9.31 9.31 0 0 0-4.792 7.983 9 9 0 0 0 4.766 8.045l.931.039a7.7 7.7 0 0 1-5.17-1.09 8.07 8.07 0 0 1 4.265-14.977"/><path fill="#4fc023" d="M35.184 24.017a3.3 3.3 0 0 1-2.949-1.152 9.3 9.3 0 0 1-2.337-10.321c.75-1.865 2.371-4.075 4.376-4.594a8.063 8.063 0 0 1 .905 16.067"/><path d="M30.093 16.355a.975.975 0 0 1-.018-1.4.99.99 0 0 1 1.418.053l2.242 2.231 3.916-3.911a.96.96 0 0 1 1.318-.046.945.945 0 0 1 .1 1.338l-4.628 4.643a.953.953 0 0 1-1.353.071Z"/></g></svg>