<svg xmlns="http://www.w3.org/2000/svg" width="64.008" height="71.754" viewBox="0 0 64.008 71.754"><defs><clipPath id="a"><path fill="none" d="M0 0h64.008v71.754H0z"/></clipPath><clipPath id="b"><path fill="none" d="m7.029.417-6.3 3.634L0 6.585l2.58.667c.153-.527.123-1.226.55-1.481l3.521-2.09a1.048 1.048 0 0 1 1.493.47 1.08 1.08 0 0 1-.531 1.41l-1.179.675a19.95 19.95 0 0 1 4.683 11.139l3.981-2.3a3.55 3.55 0 0 0 1.809-3.88A6.647 6.647 0 0 1 10.975.932 3.55 3.55 0 0 0 8.6 0a3.14 3.14 0 0 0-1.576.417"/></clipPath><linearGradient id="c" x1="-1.55" x2="-1.538" y1="2.42" y2="2.42" gradientUnits="objectBoundingBox"><stop offset="0" stop-color="#fee077"/><stop offset="1" stop-color="#fdcd84"/></linearGradient></defs><g clip-path="url(#a)"><path fill="#60b6fe" d="m27.458 58.003.293.172a4.6 4.6 0 0 0 .211 1.58l-.17.286a7.2 7.2 0 0 0-1.72 2.131c-1.882-.5-1.872-2.463-3.295-1.915a2.14 2.14 0 0 1-.177-1.073 4.25 4.25 0 0 1-.04-1.715 1.1 1.1 0 0 0 1.06-1.086v-4.069a1.33 1.33 0 0 1 .371-1l1.653-1.615 1.853 1.861c-.357.431-.945.761-1.151 1.273l-.069 4.1a1.058 1.058 0 0 0 1.181 1.068"/><path fill="#796d78" d="M61.419 17.259a12 12 0 0 1 1.363 2.529c-1.6.354-.348 2.041-1.654 3.94a4.524 4.524 0 0 1-3.994-6.966 4.6 4.6 0 0 1 2.575.689 1.165 1.165 0 0 0 1.709-.192"/><path fill="#6dbafe" d="M22.599 59.185c-.088-.015-.143-.12-.143-.27l-.039-1.451a.3.3 0 0 0 .142.006Z"/><path d="M61.418 17.259c.187.794-.831.806-1.489.632a6.55 6.55 0 0 0-2.669-.909 5.8 5.8 0 0 0-.568 2.231 4.25 4.25 0 0 0 1.64 3.34c.421.326 2.283 1.184 2.673.947.33-.2.617-2.323.609-2.8.167-.565.591-1.476 1.166-.909 2.168-.481 1.608 5.837-2.858 7.622l-.065 2.148a6.03 6.03 0 0 1-3.182 4.263l-3.62 2.093 3.621 2.084a5.814 5.814 0 0 1 3.148 6.376 6.657 6.657 0 1 1-6.636 11.384 5.51 5.51 0 0 1-6.665.672l-3.991-2.319-.1 5.543a5.48 5.48 0 0 1-3.832 4.559l.1.838-.123 1.283a6.81 6.81 0 0 1-5.462 5.418l-2.241-.013c-3.33-.463-6.169-4.075-5.406-7.5a5.6 5.6 0 0 1-3.117-2.409 1.048 1.048 0 0 1 .432-1.572c.084-.7.933-.33 1.357.025a4.7 4.7 0 0 0 1.76 1.538 11.2 11.2 0 0 1 1.462-1.782h.432c.119-.752 1.31-1.182 2.014-1.422a6.885 6.885 0 0 1 8.234 3.234 3.26 3.26 0 0 0 2.017-2.636l.024-7.134a6.6 6.6 0 0 0-1.726-1.983 11.7 11.7 0 0 0-1.464 1.458 3.2 3.2 0 0 1 1.036 1.288c.066.288.107 4.04.046 4.3a1.3 1.3 0 0 1-1.149 1.134c-1.424.176-1.56-1.318-1.554-2.353a22.8 22.8 0 0 1-6.6.048c.175.6-.275 2.59-1.023 2.181a.8.8 0 0 1-.192-.156c-.522.656-1.218-.14-1.428-.756-.072-.212-.027-4.178.047-4.47a3.3 3.3 0 0 1 1.011-1.187 12 12 0 0 0-1.443-1.487 8.1 8.1 0 0 0-1.7 1.845l-.044 4.531c-.143.69-.655 1.493-1.337.992-.048.132-.1.129-.142-.006-.386-.129-.906-.338-.913-.817l-.035-2.534-4 2.321a5.51 5.51 0 0 1-6.673-.672 6.659 6.659 0 1 1-6.684-11.365l.028-2.264a6.11 6.11 0 0 1 3.171-4.131l3.62-2.092-3.529-2.034a6.2 6.2 0 0 1-3.265-4.183l-.063-2.283a6.656 6.656 0 1 1 6.716-11.353 5.55 5.55 0 0 1 6.674-.665l4 2.321.082-5.44a5.48 5.48 0 0 1 3.9-4.677 6.24 6.24 0 0 1 1.514-5.294A6.46 6.46 0 0 1 32.9.077a6.3 6.3 0 0 1 3.641 1.724 6.33 6.33 0 0 1 2 5.794 5.47 5.47 0 0 1 3.9 4.681l.086 5.433 3.993-2.32a5.515 5.515 0 0 1 6.659.664 6.646 6.646 0 0 1 8.081-.153 1.05 1.05 0 0 1 .156 1.356"/><path fill="#db8658" d="M16.312 34.941a1.2 1.2 0 0 1-.242-.594c-.062-3.192 2-7.671 3.906-10.187a15.47 15.47 0 0 1 6.819-5.385 17.9 17.9 0 0 1 12.915.991 6 6 0 0 0-.419 1.02l-1.093 4.083a3.73 3.73 0 0 0 .128 2.173l-4.219 1.825-9.843-4.126a1.854 1.854 0 0 0-2.339.956l-3.177 7.484a2.22 2.22 0 0 0 .625 2.516Zm6.148 14.9a2 2 0 0 1-.354-.079c-.829-.3-2.626-2.894-3.177-3.784-.378-.611-1.756-3.006-1.614-3.483.036-.121.447-.055.593-.029a3.456 3.456 0 0 0 3.7-2.153 3.67 3.67 0 0 0-1.3-4.221l9.68 4.033 3.158 7.27a3.47 3.47 0 0 0 .275 4.05l2 2.034a17.9 17.9 0 0 1-6.85 0l1.8-1.82a3.43 3.43 0 0 0 .017-4.816 3.363 3.363 0 0 0-4.72-.153Zm21.142-8.421 1.663-.793a1.82 1.82 0 0 0 .671-2.4l-3.95-9.089a3.53 3.53 0 0 0 2.814-2.423l.7-2.551a17.9 17.9 0 0 1-3.35 26.49 23 23 0 0 0-2.384-2.558l3.952-1.735a1.945 1.945 0 0 0 .914-2.606Z"/></g><g clip-path="url(#b)" transform="translate(40.801 16.71)"><path fill="url(#c)" d="M0 0h24.119v24.145H0z" transform="rotate(-35.183 5.004 15.785)"/></g><g clip-path="url(#a)"><path fill="#f4f7f8" d="M38.19 46.51a3.73 3.73 0 0 0-3.347-.482l-3.719-8.556 7.135-3.095 4.41 10.17Z"/><path fill="#d7ebfd" d="m31.472 34.995-1.332.607a2.04 2.04 0 0 0-1.183 1.812l-8.241-3.474 3.01-7.171 7.689 3.242a2.02 2.02 0 0 0-1.029 2.459Z"/><path fill="#796d78" d="M17.336 49.519c.045.1.1.261.035.3a19.7 19.7 0 0 1-3.884 2.086l-.3-.225a6.623 6.623 0 0 0-6.906-7.752 3.54 3.54 0 0 1 1.811-3.891l5.969-3.419a14.5 14.5 0 0 1 2.591.641l-.728 2.542c-.5-.118-1.094-.507-1.5-.278L11.1 41.371a1.067 1.067 0 0 0-.462 1.394.994.994 0 0 0 1.256.537l1.253-.681a20.2 20.2 0 0 0 4.189 6.9"/><path fill="#89c8fd" d="M27.791 60.041a4.75 4.75 0 0 1-.334-2.039 1.04 1.04 0 0 0 .918-1.053l.019-1.342a20.5 20.5 0 0 0 7.169-.011l.052 1.348a1.05 1.05 0 0 0 .973 1.064 1.03 1.03 0 0 0 1.111-.953l-.046-4.217c-.22-.51-.793-.842-1.157-1.273l1.853-1.861 1.653 1.618a1.2 1.2 0 0 1 .363.864l.014 6.441a3.58 3.58 0 0 1-2.462 3.562 6.635 6.635 0 0 0-10.125-2.146M17.735 23.4l.043.375a9 9 0 0 0-1.294 1.687l-.352.09a1.18 1.18 0 0 0-1.441.347 18.8 18.8 0 0 0-1.818 4.119c-.08.081-.2.2-.279.164a21 21 0 0 1-3.789-2.356l.127-.311a6.72 6.72 0 0 0 3.885-3.793 6.62 6.62 0 0 0-.623-6.07 3.44 3.44 0 0 1 4.056-.484l4.162 2.4c-1.424 1.185-3.888 2.732-2.68 3.832"/><path fill="#9ae59c" d="M50.821 51.764a1.28 1.28 0 0 1-1.4-.29l-2.689-1.675-.021-.344a20.1 20.1 0 0 0 5.2-11.711l4.155 2.415a3.46 3.46 0 0 1 1.638 3.774 6.618 6.618 0 0 0-6.883 7.831"/><path fill="#c47944" d="M26.796 18.776a19.38 19.38 0 0 0-10.487 16.168 12.3 12.3 0 0 0-2.167-.442 17.6 17.6 0 0 1 2.24-7.314 1.31 1.31 0 0 0-.252-1.634 9 9 0 0 1 1.6-2.152 1.14 1.14 0 0 0 1.613-.142 17.5 17.5 0 0 1 7.448-4.482"/><path fill="#f4f7f8" d="M40.141 33.448a1.934 1.934 0 0 0-2.563-1.061l-4.154 1.788-1-2.274 7.125-3.1 4.409 10.146-1.2.517Z"/><path fill="#796d78" d="M36.014 67.219a4.493 4.493 0 0 1-8.04.011 4.563 4.563 0 0 1 8.04-.011m25.044-19.014c1.158 1.146.974 3.329.127 4.714-.726 1.188-2.478 2.421-3.981 2.065-1.1-1.132-.977-3.227-.2-4.594a4.17 4.17 0 0 1 4.053-2.185M6.807 16.889c1.128 1.192.925 3.3.122 4.641-.727 1.214-2.492 2.52-4.006 2.084-1.151-1.142-.961-3.317-.118-4.7.716-1.178 2.486-2.433 4-2.02m-.016 38.088c-1.5.356-3.256-.872-3.985-2.065-.839-1.374-1.037-3.571.111-4.687 1.52-.435 3.292.858 4.015 2.064.828 1.381.975 3.518-.141 4.688"/><path fill="#685e68" d="M13.189 51.685a4.3 4.3 0 0 0 1.473-.584l2.674-1.582a22 22 0 0 0 3.078 2.72l-3.974 2.324a3.544 3.544 0 0 1-4.242-.386 7.2 7.2 0 0 0 .99-2.491"/><path fill="#6fd6a2" d="M50.821 51.765a6.8 6.8 0 0 0 .973 2.414 3.5 3.5 0 0 1-4.148.433l-4.071-2.372a22 22 0 0 0 3.137-2.785l2.71 1.7a6 6 0 0 0 1.4.614"/><path fill="#60b6fe" d="M8.936 27.515a2.06 2.06 0 0 0 .767.7l3.171 1.8a22 22 0 0 0-.808 4.062L7.923 31.67a3.465 3.465 0 0 1-1.644-3.768 7 7 0 0 0 2.657-.39"/><path fill="#c47944" d="M17.909 42.466c-.1 0-.248-.048-.374.062a19.5 19.5 0 0 0 4.925 7.312l-.611.821a18 18 0 0 1-6.769-8.893Z"/><path fill="#ad6b6b" d="M5.164 25.521a6.76 6.76 0 0 0 4.391-7.711 4.516 4.516 0 0 1 1.069 5.641 4.44 4.44 0 0 1-5.46 2.07"/><path fill="#fedece" d="M58.826 46.302a6.744 6.744 0 0 0-4.388 7.714 4.514 4.514 0 0 1-1.071-5.642 4.435 4.435 0 0 1 5.46-2.071m-49.271 7.71a6.73 6.73 0 0 0-4.414-7.707 4.455 4.455 0 0 1 5.435 1.978 4.52 4.52 0 0 1-1.019 5.73"/><path fill="#ad6b6b" d="M54.322 18.544a6.73 6.73 0 0 0 4.535 6.97 4.5 4.5 0 0 1-4.722-7.412c.239-.235.269.2.187.441"/><path fill="#fedece" d="M36.377 64.281a6.81 6.81 0 0 0-8.811.078 4.48 4.48 0 0 1 4.277-3.709 4.4 4.4 0 0 1 4.534 3.632"/><path fill="#985c5c" d="M42.771 25.993a1.25 1.25 0 0 1-1.538 1.032 1.327 1.327 0 0 1-.984-1.687Z"/><path fill="#fcdccc" d="m18.02 40.34.683-2.576a1.353 1.353 0 0 1 1.018 1.528 1.338 1.338 0 0 1-1.7 1.047"/><path fill="#fbdccc" d="m28.977 50.063-1.84-1.847a1.29 1.29 0 0 1 1.759.113 1.336 1.336 0 0 1 .08 1.733"/><path fill="#fbdbcc" d="m36.847 48.204-1.828 1.86a1.33 1.33 0 0 1 .01-1.655 1.29 1.29 0 0 1 1.818-.205"/><path fill="#835252" d="M54.322 18.545a.49.49 0 0 0-.187-.441l.235-.273a.71.71 0 0 1-.048.715"/><path fill="#9c603f" d="M19.974 35.993a.605.605 0 0 1-.6-.342.535.535 0 0 1 .6.342"/><path fill="#fd76a7" d="M27.788 16.349a.7.7 0 0 1-.529-.054l-.023-3.52q-.049-1.078.565-.99a6.6 6.6 0 0 0 5.767 1.307 6.7 6.7 0 0 0 4.346-3.452 3.585 3.585 0 0 1 2.459 3.559l-.014 4.537a20.18 20.18 0 0 0-12.573-1.385"/><path fill="#796d78" d="M36.014 4.558a4.53 4.53 0 0 1-3.951 2.473 4.58 4.58 0 0 1-4.088-2.452 4.539 4.539 0 0 1 8.039-.02"/><path fill="#fd5693" d="M27.801 11.785a1.52 1.52 0 0 0-.284.992l.006 3.528c.062.06.26.027.266.043a21.6 21.6 0 0 0-4.163 1.368l-.011-4.52a3.575 3.575 0 0 1 2.457-3.554 6.9 6.9 0 0 0 1.729 2.142"/><path fill="#fedece" d="M36.37 7.541a4.39 4.39 0 0 1-4.412 3.636 4.486 4.486 0 0 1-4.392-3.709 6.8 6.8 0 0 0 8.8.073"/></g></svg>