<svg xmlns="http://www.w3.org/2000/svg" width="77.373" height="86" viewBox="0 0 77.373 86"><defs><clipPath id="a"><path fill="none" d="M0 0h77.373v86H0z"/></clipPath></defs><g clip-path="url(#a)"><path fill="#f5dbcc" d="M55.15 65.49a4.066 4.066 0 0 1 5.182 2.881 4.107 4.107 0 0 1-7.9 2.249 4.08 4.08 0 0 1 2.716-5.131m-44.034-.022a4.106 4.106 0 1 1-2.768 5.2 4.08 4.08 0 0 1 2.768-5.2m22.183-.185a4.1 4.1 0 1 1-2.954 5.043 4.08 4.08 0 0 1 2.954-5.043"/><path d="m62.427 63.282-.01 2.79a6.8 6.8 0 0 1-1.317 8.364 12.3 12.3 0 0 1 7.49 9.912c.072.56-.236 1.639-1.014 1.637l-22.736-.068H23.666L1.258 86A1.37 1.37 0 0 1 .01 84.428a12.4 12.4 0 0 1 7.378-10 7.225 7.225 0 0 1-1.306-8.234l.053-56.023a4.57 4.57 0 0 1 4.481-4.361l10.355-.073c0-.7.494-1.673 1.211-1.678l6.02-.044a6.642 6.642 0 0 1 12.2 0l5.894.022A1.366 1.366 0 0 1 47.5 5.75l10.35.05a4.66 4.66 0 0 1 4.567 3.8v26.118a15.69 15.69 0 0 1 .679 16.894l2.776 2.779a2.87 2.87 0 0 1 3.1.832l3.325 3.266 4.525 4.49a2.485 2.485 0 0 1 0 3.13l-3.666 3.641c-.717.713-2.342.418-3.027-.208l-1.847-1.682-5.14-5.069ZM44.735 12.018v-5.2h-5.374A1.37 1.37 0 0 1 38.032 5.7a3.842 3.842 0 0 0-7.432-.048 1.445 1.445 0 0 1-1.458 1.161H23.89v5.21Zm14.141 50.95c.229.08.435.344.764.337l.018-4.7a.89.89 0 0 0-.674-.858c-.109-.035-.18-.312-.339-.32a15.58 15.58 0 0 1-16.063 1.243l-12.228-.009a1.388 1.388 0 1 1-.162-2.769l8.413-.024a19 19 0 0 1-2.15-2.747l-6.107-.015a1.41 1.41 0 0 1-1.511-1.349 1.38 1.38 0 0 1 1.351-1.423l4.83-.025a15.5 15.5 0 0 1-.959-7.219l-3.711-.023a1.4 1.4 0 0 1-1.512-1.358 1.38 1.38 0 0 1 1.355-1.415l4.438-.03a21 21 0 0 1 1.09-2.767l-5.372.011a1.41 1.41 0 0 1-1.509-1.349 1.38 1.38 0 0 1 1.352-1.423l7.419-.016a15.62 15.62 0 0 1 21.251-2.575l.783.619-.017-22.617a1.39 1.39 0 0 0-.946-1.258c-.2-.069-.331-.227-.591-.227H47.517l-.007 4.732a1.356 1.356 0 0 1-1.405 1.4l-23.695-.015a1.36 1.36 0 0 1-1.3-1.373V8.668l-10.332-.006a1.755 1.755 0 0 0-1.8 1.988l.009 52.672a6.916 6.916 0 0 1 10.1 5.2h8.372a6.892 6.892 0 0 1 13.7 0l8.309-.053a7.74 7.74 0 0 1 3.1-4.818 7.07 7.07 0 0 1 6.308-.683M47.685 32.031A12.838 12.838 0 1 0 62.29 42.877a12.845 12.845 0 0 0-14.605-10.846M63.12 57.789a1.17 1.17 0 0 0 .579-.582l-2.289-2.229a.88.88 0 0 0-.507.654Zm8.68 10.486 2.663-2.741-7.654-7.455-2.709 2.783Zm-38.5-2.993a4.104 4.104 0 1 0 2.04 7.951 4.104 4.104 0 0 0-2.04-7.951m-22.183.185a4.106 4.106 0 1 0 5.1 2.834 4.09 4.09 0 0 0-5.1-2.834m44.037.024a4.103 4.103 0 0 0 2.346 7.864 4.126 4.126 0 0 0 2.831-4.983 4.065 4.065 0 0 0-5.182-2.881m-25.67 8.817a10 10 0 0 1-1.779-2.867h-8.789a8.5 8.5 0 0 1-1.827 3.008 12.2 12.2 0 0 1 6.156 5.793 12.35 12.35 0 0 1 6.239-5.932m22.132.141a7.25 7.25 0 0 1-1.881-3.011l-8.863.027a7.2 7.2 0 0 1-1.777 2.793 12.4 12.4 0 0 1 6.259 5.94 12.36 12.36 0 0 1 6.262-5.753m-8.17 8.6a9.494 9.494 0 0 0-18.277.02Zm-22.049.159a9.492 9.492 0 0 0-18.278.02Zm44.105.01a9.491 9.491 0 0 0-18.278.007Z"/><path fill="#89c8fd" d="m65.498 83.218-18.278.007a9.491 9.491 0 0 1 18.278-.007m-44.105-.01-18.278.02a9.492 9.492 0 0 1 18.278-.02m22.049-.159-18.277.021a9.494 9.494 0 0 1 18.277-.021"/><path fill="#ebeef0" d="M58.678 8.891a1.8 1.8 0 0 1 .549 1.275l-.021 21.773-.347.213a15.62 15.62 0 0 0-21.252 2.57l-7.419.015a1.383 1.383 0 0 0-1.352 1.423 1.41 1.41 0 0 0 1.509 1.349l5.372-.01a21 21 0 0 0-1.09 2.767l-4.438.03a1.38 1.38 0 0 0-1.355 1.415 1.4 1.4 0 0 0 1.513 1.358l3.711.023a15.5 15.5 0 0 0 .959 7.218l-4.83.025a1.38 1.38 0 0 0-1.35 1.423 1.41 1.41 0 0 0 1.51 1.349l6.108.014a19 19 0 0 0 2.149 2.748l-8.413.024a1.388 1.388 0 1 0 .162 2.769l12.229.009a15.58 15.58 0 0 0 16.062-1.238c.159.008.23.285.339.32a.6.6 0 0 1 .215.254 32 32 0 0 1 .03 4.719c-.053.13-.215.191-.352.243a7.07 7.07 0 0 0-6.308.683 7.73 7.73 0 0 0-3.1 4.818l-8.31.053a6.892 6.892 0 0 0-13.7 0h-8.372a6.916 6.916 0 0 0-10.1-5.2l-.009-52.672a1.756 1.756 0 0 1 1.8-1.988l10.326.006v4.738a1.36 1.36 0 0 0 1.3 1.373l23.694.009a1.357 1.357 0 0 0 1.405-1.4l.007-4.731h10.572c.26 0 .387.158.591.227"/><path fill="#d0d0d5" d="m58.859 32.147.023-22-.2-1.259a1.39 1.39 0 0 1 .947 1.258l.017 22.617Z"/><path fill="#cfcfd4" d="m58.876 62.969.107-5.216a.89.89 0 0 1 .674.858l-.018 4.7c-.328.007-.534-.257-.763-.337"/><path d="m23.163 29.128-7.887.015a2.334 2.334 0 0 1-2.342-2.307l-.021-7.7a2.4 2.4 0 0 1 2.363-2.491l7.629-.022a2.454 2.454 0 0 1 2.543 2.5v7.6a2.334 2.334 0 0 1-2.28 2.412m.013 15.993-7.913.012a2.35 2.35 0 0 1-2.34-2.332l.014-7.856a2.39 2.39 0 0 1 2.5-2.326l7.63.018a2.376 2.376 0 0 1 2.37 2.419l-.009 7.748a2.31 2.31 0 0 1-2.25 2.317m-.004 15.597-7.9.009a2.4 2.4 0 0 1-2.363-2.476l.027-7.713a2.39 2.39 0 0 1 2.5-2.326l7.629.017a2.38 2.38 0 0 1 2.366 2.425l-.009 7.748a2.31 2.31 0 0 1-2.251 2.315m24.385-33.686-17.359.022a1.391 1.391 0 1 1 .159-2.776l16.966.008a1.375 1.375 0 0 1 1.411 1.168 1.33 1.33 0 0 1-1.175 1.578m-.177-5.547H30.202a1.38 1.38 0 0 1-1.363-1.422 1.405 1.405 0 0 1 1.523-1.352l16.965.01a1.38 1.38 0 0 1 1.427 1.332 1.337 1.337 0 0 1-1.365 1.429M33.671 4.497a1.356 1.356 0 0 1 1.884.626 1.376 1.376 0 1 1-1.884-.626"/><path fill="#88c7fb" d="M22.552 26.38h-6.753a7.8 7.8 0 0 1 .1-2.989l.355-.132 1.856 1.896a1.08 1.08 0 0 0 1.55-.151l2.3-2.945.425.019c.094-.107.173-.186.2-.17a27.4 27.4 0 0 1-.037 4.471"/><path fill="#89c7fc" d="M22.548 19.425c.153.354.237 1.19-.163 1.233a3.2 3.2 0 0 1-1.048-.288l-.581.112a27 27 0 0 1-2.027 2.094 11 11 0 0 0-1.464-.909l-1.318.346c-.088.085-.162.147-.188.131a10.5 10.5 0 0 1 .036-2.735Z"/><path fill="#465a6d" d="M15.947 22.013c.23.361.466 1.215-.043 1.382l-.1 2.989c-.12-.022-.183-.149-.183-.34v-6.255a.47.47 0 0 1 .179-.379l-.007 2.306c0 .179.065.31.158.3"/><path fill="#3a5a75" d="M22.551 26.38v-4.142c0-.115-.091-.185-.162-.158a1.44 1.44 0 0 1 0-1.421c.278-.312.177-.811.163-1.232a.2.2 0 0 1 .184.2v6.571c0 .128-.1.2-.176.182"/><path d="M22.694 36.993c.006.271.027.524.022.8l-.286.9a17.5 17.5 0 0 1-2.976 3.308c-1.406.268-2.632-.823-3.353-1.956a1.26 1.26 0 0 1-.162-.677c-.348-.239-.365-1.2.034-1.379-.057-1.491 1.984-1.174 2.7-.192.952-1.578 3.18-3.451 4.02-.808"/><path fill="#69f2bf" d="M22.648 42.332q-3.448.152-6.936.075a7.55 7.55 0 0 1 .227-3.034l1.787 1.891a1.41 1.41 0 0 0 2.189-.017l2.8-3.448Z"/><path fill="#6af2c0" d="M22.694 36.993a3.4 3.4 0 0 0-.857-.836 1.42 1.42 0 0 0-1.566.245l-1.587 1.937a4.7 4.7 0 0 0-.857-.811 1.294 1.294 0 0 0-1.853.469c-.1.057-.184.1-.217.069a10.3 10.3 0 0 1 .039-2.658l6.862.008Z"/><path fill="#3e6f5c" d="M15.974 37.993a1.47 1.47 0 0 0-.034 1.379 11 11 0 0 0-.136 2.953l6.845.006c-.073.048-.149.169-.276.169h-6.75v-6.918c0-.127.088-.205.173-.18l-.011 2.258c0 .191.076.312.188.332"/><path fill="#fcde76" d="M22.539 51.002c.162.4.247 1.226-.137 1.415a4.6 4.6 0 0 1-.938-.424 3.38 3.38 0 0 0-2.4 1.985q-.594.425-1.362-.523l-.373-.173a12 12 0 0 0-1.335.239c-.092.116-.172.2-.21.188A9.1 9.1 0 0 1 15.797 51Z"/><path fill="#756841" d="M15.995 53.523c.19.382.368 1.228-.125 1.393a4.5 4.5 0 0 1 .293 2.55c.137.268 5.693.262 5.955.114a15 15 0 0 0 .072-3.1l.228-.74a1.09 1.09 0 0 1-.016-1.325A2.4 2.4 0 0 0 22.539 51c.1-.024.177.045.19.179v6.918h-7.107v-6.919c.015-.132.089-.2.176-.179l-.012 2.258c0 .191.076.312.209.262"/><path d="M22.384 20.658a1.36 1.36 0 0 1 0 1.421l-2.341 3a1.56 1.56 0 0 1-1.056.669 1.49 1.49 0 0 1-1.242-.457l-1.846-1.9c.015-.427-.28-.881.044-1.382a1.33 1.33 0 0 1 1.717-.587 3.8 3.8 0 0 1 1.04.88l1.464-1.779a1.37 1.37 0 0 1 1.211-.5 1.29 1.29 0 0 1 1.006.631m.02 31.763a1.49 1.49 0 0 1 .016 1.325l-.183.778a15.3 15.3 0 0 1-2.783 3.081c-1.746.333-3-1.254-3.583-2.688.009-.438-.24-.9.125-1.393a1.33 1.33 0 0 1 1.4-.577 2.3 2.3 0 0 1 1.25.994l1.462-1.752a1.42 1.42 0 0 1 1.308-.549 1.06 1.06 0 0 1 .986.78"/><path fill="#fcde75" d="m15.869 54.912 1.856 1.949a1.413 1.413 0 0 0 2.189-.021l2.5-3.1a25 25 0 0 1 .141 4.182h-6.753Z"/><path fill="#e2a66f" d="m44.735 12.019-20.85.005v-5.21h5.255a1.445 1.445 0 0 0 1.463-1.162 3.842 3.842 0 0 1 7.429.046 1.37 1.37 0 0 0 1.33 1.112h5.374Z"/><path fill="#685e68" d="M47.685 32.035a12.838 12.838 0 1 1-10.778 14.717 12.83 12.83 0 0 1 10.778-14.717"/><path fill="#f0b983" d="m71.797 68.274-7.7-7.412 2.706-2.784 7.654 7.455Z"/><path fill="#a297a2" d="m63.119 57.789-2.216-2.157a.88.88 0 0 1 .507-.654l2.288 2.229a1.17 1.17 0 0 1-.579.582"/><path d="M48.029 33.232a11.6 11.6 0 1 1-9.918 13.189 11.6 11.6 0 0 1 9.918-13.189"/><path fill="#ebeef0" d="M40.876 46.127c-.056-.356-.048-.57.26-.289a10.63 10.63 0 0 0 8.789 4.2 10.76 10.76 0 0 0 8.453-4.639 8.82 8.82 0 0 1-17.5.726m17.421-2.75c.082.334.043.554-.236.272a10.6 10.6 0 0 0-8.554-4.25 10.99 10.99 0 0 0-8.635 4.447 8.69 8.69 0 0 1 8.61-7.947 8.82 8.82 0 0 1 8.816 7.478"/><path fill="#89c8fd" d="M55.368 44.717a7.84 7.84 0 0 1-11.561.012 7.83 7.83 0 0 1 11.561-.012"/><path fill="#8b8b8c" d="M41.137 45.838c-.164.013-.232.164-.26.289-.033-.2-.268-.364-.062-.7a1.03 1.03 0 0 1 .322.413"/><path fill="#9b9b9d" d="M58.061 43.647c.151 0 .213-.155.236-.272a.7.7 0 0 1 .089.694.6.6 0 0 1-.325-.422"/><path d="M49.253 43.292a1.472 1.472 0 1 1-1.105 1.76 1.476 1.476 0 0 1 1.105-1.76"/></g></svg>