<svg xmlns="http://www.w3.org/2000/svg" width="137.887" height="138.718" viewBox="0 0 137.887 138.718"><defs><clipPath id="a"><path fill="none" d="M0 0h80.969v76H0z"/></clipPath></defs><g transform="translate(-388.789 -1307)"><ellipse cx="68.944" cy="69.359" fill="#fff" rx="68.944" ry="69.359" transform="translate(388.789 1307)"/><path fill="#fff" d="M457.733 1310a65.36 65.36 0 0 0-36.861 11.327 66.558 66.558 0 0 0 0 110.065 65.54 65.54 0 0 0 73.721 0 66.558 66.558 0 0 0 0-110.065 65.36 65.36 0 0 0-36.86-11.327m0-3c38.076 0 68.944 31.053 68.944 69.359s-30.867 69.359-68.944 69.359-68.944-31.053-68.944-69.359S419.656 1307 457.733 1307"/><g clip-path="url(#a)" transform="translate(416.789 1336)"><path fill="#feefcb" d="M76.835 67.407a1 1 0 0 0-.139.553l.025 3.181a1.194 1.194 0 0 0-1.213 1.07 1.743 1.743 0 0 1-1.82 1.539l-14.378.01-.005-7.87a.5.5 0 0 1 .2-.39l.316.138-.005 7.68h9.877a1.3 1.3 0 0 0 .3-.6q.138-3.245.083-6.509a3.83 3.83 0 0 0-1.139-2.69l-6.75.014-.19-.3a.32.32 0 0 1 .322-.176l10.265.081a3.19 3.19 0 0 1 2.954 3.2c.015.794.623 1.083 1.3 1.069"/><path fill="#fef5df" d="m61.991 63.233 7.085-.014a4.23 4.23 0 0 1 1.316 3.272l-.016 5.49a2.4 2.4 0 0 1-.5 1.636H59.459l.04-8.115a2.66 2.66 0 0 1 2.488-2.266"/><path fill="#cb8a66" d="M45.077 32.197a1.186 1.186 0 0 0 1.278 1.23c8.491.483 17.316 2.064 24.774 5.929a18.3 18.3 0 0 1 5.246 3.831c3.02 3.3 2.826 6.92-.307 10.1a19.4 19.4 0 0 1-5.126 3.58 8.6 8.6 0 0 0-2.865-2.359 6.55 6.55 0 0 0 .829-3.155v-4.9a7.257 7.257 0 0 0-14.485.145v4.607a7.56 7.56 0 0 0 .818 3.334 8.31 8.31 0 0 0-4.575 7.828 95 95 0 0 1-20.335 0 8.19 8.19 0 0 0-3.739-7.338l-.007-8.422a7.036 7.036 0 0 0-7.191-6.882 7.017 7.017 0 0 0-7.3 6.735l-.018 8.575a8.4 8.4 0 0 0-2.049 1.841c-5-2.5-9.692-7.035-6.589-12.117 1.968-3.222 5.964-5.384 9.6-6.869 7.278-2.971 15.774-4.256 23.694-4.576a1.188 1.188 0 0 0 1.366-1.247l5.23-.01a4.7 4.7 0 0 0 1.743.144"/><path d="M50.231 55.24a1.14 1.14 0 0 1-.575 1.066 1.31 1.31 0 0 1-1.3-.01l-2.991-1.634a8.79 8.79 0 0 1-9.186-4.9 7.69 7.69 0 0 1 1.861-8.841 9.02 9.02 0 0 1 9.549-1.707 8.1 8.1 0 0 1 4.989 9.071 8 8 0 0 1-2.339 4.085Z"/><path fill="#fef5df" d="M47.831 53.333c-.785-.138-1.363-.905-2.124-.934a7.25 7.25 0 0 1-5.8-1.4 5.72 5.72 0 0 1-.019-8.677 6.7 6.7 0 0 1 6.072-1.295 6.01 6.01 0 0 1 4.245 4.318 5.74 5.74 0 0 1-2.174 5.956c-.351.509-.1 1.369-.2 2.034"/><path fill="#020201" d="M47.122 45.77a1.145 1.145 0 0 1 1.618.584 1.124 1.124 0 0 1-.506 1.369 1.19 1.19 0 0 1-1.583-.428 1.1 1.1 0 0 1 .471-1.524"/><path fill="#010101" d="M43.516 45.802a1.17 1.17 0 0 1 1.609.379 1.144 1.144 0 0 1-.374 1.519 1.193 1.193 0 0 1-1.551-.289 1.106 1.106 0 0 1 .316-1.609"/><path fill="#020202" d="M40.034 45.781a1.15 1.15 0 0 1 1.622.533 1.127 1.127 0 0 1-.506 1.416 1.17 1.17 0 0 1-1.575-.47 1.086 1.086 0 0 1 .459-1.479"/><path d="m80.969 46.754-.06 2.649c-.774 4.2-4.893 7.454-8.763 9.441a6.3 6.3 0 0 1 .472 1.975 5.6 5.6 0 0 1 5.321 5.633 1.05 1.05 0 0 1-1.1.958c-.5.624-1.232.014-1.541-.6-.127-3.509-2.637-3.567-5.661-3.4l-.58-.247q-3.565-.085-7.062.069l-.135.3a2.4 2.4 0 0 0-2.029 1.834l-.324.128q-.187 4.019-.116 8.085l.117.1h10.293l.488-.229 3.646-.018a1.81 1.81 0 0 0 1.436-1.819c.331-.439 1.014-1.072 1.356-.477a1.17 1.17 0 0 1 .964.443c.957 1.375-1.075 4.349-3.379 4.356l-16.534.051-9.387-5.612a3.04 3.04 0 0 1-1.359-2.856 3.25 3.25 0 0 1 1.7-2.609c-.541-.255-1.093.117-1.559.082-.929-.07-1.689.122-2.556.122h-8.229c-.867 0-1.628-.193-2.557-.122-.469.036-1.015-.348-1.584-.068a3.13 3.13 0 0 1 1.635 2.544 3.01 3.01 0 0 1-1.277 2.894l-9.356 5.634-16.568-.067a3.71 3.71 0 0 1-3.573-3.384L3.1 65.768a5.585 5.585 0 0 1 5.267-4.95 7 7 0 0 1 .494-1.981A19.2 19.2 0 0 1 1.385 52.6a8 8 0 0 1-.396-8.346l1.974-2.839.11-6.218a5.58 5.58 0 0 1 5.277-4.915 8.12 8.12 0 0 1 4.51-6.284 6.8 6.8 0 0 1-.782-2.5l.043-6.171A7.07 7.07 0 0 1 18.2 9.235c4.079-.622 8.037 2.252 8.329 6.049l.015 6.487a4.46 4.46 0 0 1-.792 2.164 8.58 8.58 0 0 1 4.669 7.573l2.184-.221c.8-.081 1.55-.08 2.364-.15l1.744-.15a1.183 1.183 0 0 1 1.387 1.074c.625.446-.077 1.261-.712 1.457-9.734.668-21.6 1.961-29.7 7.462-2.507 1.7-5.034 4.218-4.927 7.286.136 3.9 3.967 6.266 7.078 8.17.078.048.135.093.136.187a4.57 4.57 0 0 1 1.784-1.731l.061-9.138c1.394-8.879 14.613-8.13 15.081.668q.058 4.278-.055 8.464a7.9 7.9 0 0 1 3.379 4.357 4.83 4.83 0 0 1 .265 2.933 121.7 121.7 0 0 0 20.021 0 5.7 5.7 0 0 1 .48-3.474c.641-1.595 2.227-3.748 3.991-4.249a.24.24 0 0 1-.2-.14 6.7 6.7 0 0 1-.6-1.962 33.3 33.3 0 0 1 .055-7.163c1.671-7.736 13.373-7.656 14.891.217a36 36 0 0 1 .039 6.745c-.1.592-.342 2.006-.843 2.3a.25.25 0 0 1 .214-.016 5.55 5.55 0 0 1 2.434 2.192c3.288-1.953 7.479-4.777 7.228-8.877-.186-3.036-2.9-5.563-5.492-7.15-7.9-4.845-17.694-6.253-26.908-6.967-.64-.249-1.447-1.047-.729-1.435a1.12 1.12 0 0 1 .365-.788 1.31 1.31 0 0 1 1.063-.257l4.085.333a8.51 8.51 0 0 1 4.651-7.542 4.5 4.5 0 0 1-.79-2.172l.026-6.756a6.5 6.5 0 0 1 3.343-4.836 7.44 7.44 0 0 1 6.617-.52 4.99 4.99 0 0 1 5.354-1.947c1.748.427 3.655 1.9 3.668 3.924l.087 13a5.1 5.1 0 0 1-1.486 3.43 19 19 0 0 1 .623 2.235c2.805.244 5.2 2.267 5.233 4.9l.075 6.288a12.35 12.35 0 0 1 2.984 5.265"/><path fill="#fdf4de" d="M75.498 39.353c-.93-.549-1.8-1.185-2.846-1.73l.016-5.048a3.2 3.2 0 0 1 2.863 3.074Z"/><path fill="#86dafe" d="M62.85 60.853a5.63 5.63 0 0 0-5.882 5.333l-.054 1.432-3.859-2.252-.016-3.488a5.88 5.88 0 0 1 3.7-5.541 7.67 7.67 0 0 0 9.851-.007 5.97 5.97 0 0 1 3.627 4.532Z"/><path fill="#717db2" d="m59.427 55.39.032-.412a4.55 4.55 0 0 0 1.53-2.626 31.6 31.6 0 0 0 .1-5.748 5.94 5.94 0 0 0-1.454-3.786l.012-.453a5.32 5.32 0 0 1 4.77.356 4.36 4.36 0 0 1 2.1 3.626l.017 5a4.51 4.51 0 0 1-2.28 3.856 5.1 5.1 0 0 1-4.823.186"/><path fill="#818bb2" d="M59.644 42.365a6.16 6.16 0 0 1 1.758 4.236l-.016 4.9a4.83 4.83 0 0 1-1.959 3.889 4.47 4.47 0 0 1-2.632-4.036l.034-5.17a4.22 4.22 0 0 1 2.814-3.818"/><path fill="#fef5df" d="m56.937 70.241-.01 2.578-7.1-4.24a.984.984 0 0 1-.3-1.273 1.156 1.156 0 0 1 1.514-.47Z"/><path fill="#fee900" d="m70.277 31.223-.013 5.2a64.3 64.3 0 0 0-17.216-4.582 6.04 6.04 0 0 1 3.691-6.056 7.63 7.63 0 0 0 9.857 0 5.885 5.885 0 0 1 3.68 5.433"/><path fill="#818bb2" d="M68.096 24.016a8.1 8.1 0 0 0 .821-3.533l-.023-4.737a6.53 6.53 0 0 0-2.418-4.856 2.56 2.56 0 0 1 2.863-.955 2.4 2.4 0 0 1 1.766 2.276l-.009 12.655a1.68 1.68 0 0 1-.446 1.121 8 8 0 0 0-2.553-1.97"/><path fill="#f9baa6" d="M59.371 24.817a12.5 12.5 0 0 1 1-1.435 9.46 9.46 0 0 0 .735-4.8l.319-.2 5.116-1.013-.012 3.55a4.46 4.46 0 0 1-2.366 3.806 5.09 5.09 0 0 1-4.79.1"/><path fill="#fec9b8" d="m61.425 18.373-.028 2.255a5.66 5.66 0 0 1-1.375 3.784.9.9 0 0 1-.651.405 4.46 4.46 0 0 1-2.577-4.033l.016-1.5Z"/><path fill="#707db2" d="M61.349 16.098a1.96 1.96 0 0 1-.42-1.344l-.766-1.755a1.36 1.36 0 0 1-.5-1.183 4.97 4.97 0 0 1 4.4.2 4.6 4.6 0 0 1 2.369 3.082Z"/><path fill="#818bb2" d="M59.666 11.819a5.94 5.94 0 0 1 1.683 4.282l-4.5.889a4.62 4.62 0 0 1 2.813-5.171"/><path fill="#fdf4de" d="M8.363 37.6c-1 .58-1.865 1.1-2.869 1.8l-.025-3.745a3.2 3.2 0 0 1 2.862-3.078Z"/><path fill="#fef5df" d="M8.102 63.247q3.538-.162 7.123-.1a2.46 2.46 0 0 1 1.458 1.969 82 82 0 0 1 .145 8.448l-.214.125q-4.962.058-9.9-.085c-.734 0-1.2-.883-1.242-1.522l.015-5.994a2.87 2.87 0 0 1 2.618-2.842"/><path fill="#717eb2" d="M18.508 60.841a2.23 2.23 0 0 1 .135-1.547c.2-4.607.216-9.294-.015-13.9a5.7 5.7 0 0 0-1.329-2.555l-.012-.465a5.3 5.3 0 0 1 4.774.332 4.41 4.41 0 0 1 2.133 3.754l.02 11.723a4.22 4.22 0 0 1-2.224 3.829 8.26 8.26 0 0 0-3.483-1.174"/><path fill="#818bb2" d="M17.289 42.377a5.93 5.93 0 0 1 1.787 4.232l.005 11.114a7.5 7.5 0 0 1-.572 3.118l-3.16-.043a3.6 3.6 0 0 1-.884-2.477l.04-12.088a4.29 4.29 0 0 1 2.784-3.857"/><path fill="#feefcb" d="m6.711 73.604 9.81.021.01-7.132a4.25 4.25 0 0 0-1.338-3.282l-7.091.035c.02-.116.126-.175.3-.174l9.967.015a3.194 3.194 0 0 1 3.28 3.109l.011 7.554-14.515.01a.7.7 0 0 1-.436-.157"/><path fill="#fe59ab" d="m27.967 65.331-3.933 2.282a7.6 7.6 0 0 0-.575-3.754 6.87 6.87 0 0 0 3.154-5.6 4.78 4.78 0 0 1 1.323 3.348Z"/><path fill="#fef5df" d="m24.071 72.797-.057-2.531 5.922-3.448a1.2 1.2 0 0 1 1.437.417.893.893 0 0 1-.224 1.327Z"/><path fill="#fb58a9" d="m12.64 60.827-1.859.025a5.76 5.76 0 0 1 1.246-2.747 9.5 9.5 0 0 0 .613 2.723"/><path fill="#89feb2" d="M27.952 31.835a61.6 61.6 0 0 0-17.225 4.6l.032-5.716a5.67 5.67 0 0 1 3.638-4.939 7.7 7.7 0 0 0 9.9-.012 6.22 6.22 0 0 1 3.659 6.062"/><path fill="#f9baa6" d="M17.021 24.808a14 14 0 0 1 .974-1.325 8.14 8.14 0 0 0 .767-4.767l.307-.334 5.152-1.025-.016 3.572a4.45 4.45 0 0 1-2.393 3.8 5.09 5.09 0 0 1-4.788.08"/><path fill="#fec9b8" d="M19.07 18.381c.06 2.3.232 4.173-1.39 6.056a.83.83 0 0 1-.658.371 4.41 4.41 0 0 1-2.554-3.882v-1.638Z"/><path fill="#707db2" d="m18.994 16.105-.3-.313a5.54 5.54 0 0 0-1.72-3.813 5.02 5.02 0 0 1 4.627-.028 4.6 4.6 0 0 1 2.5 3.147Z"/><path fill="#818bb2" d="m18.993 16.105-4.5.891a4.955 4.955 0 0 1 2.487-5.016.89.89 0 0 1 .726.375 5.15 5.15 0 0 1 1.291 3.75"/><path d="M47.927 0c.3.308.793.185 1.247.319a8.266 8.266 0 0 1 6.031 8.6 7.9 7.9 0 0 1-2.541 5l-.043 3.275c-.005.411-.564.7-.862.767-1.012.232-2.341-1.213-3.907-1.7a13.3 13.3 0 0 0-2.588-.086l-.067 2.484a8.72 8.72 0 0 1-9.737 6.784l-3.025 1.6c-.6.316-1.8.243-1.822-.534l-.119-3.431a7.44 7.44 0 0 1-2.5-6.321 8.55 8.55 0 0 1 9.952-7.414l.065-2.476A8.69 8.69 0 0 1 45.084 0Z"/><path fill="#fef5df" d="m34.642 23.248-1.74.878a5.8 5.8 0 0 0-.17-2.131 5.677 5.677 0 0 1-1.524-7.555 6.49 6.49 0 0 1 7.777-2.51 8.66 8.66 0 0 0 3.476 3.293 5.53 5.53 0 0 1-.75 5.507 6.17 6.17 0 0 1-4.985 2.493c-.669-.015-1.393-.322-2.083.026"/><path fill="#030303" d="M36.194 18.507a1.05 1.05 0 0 1-.71-.936 1.08 1.08 0 0 1 .487-1.04 1.26 1.26 0 0 1 1.433.1 1.15 1.15 0 0 1 .272 1.273 1.13 1.13 0 0 1-1.482.6"/><path fill="#030202" d="M39.861 16.4a1.12 1.12 0 0 1 1.4.789 1.083 1.083 0 0 1-.739 1.341 1.144 1.144 0 0 1-1.448-.675 1.087 1.087 0 0 1 .785-1.455"/><path fill="#020202" d="M32.75 16.408a1.136 1.136 0 0 1 1.437.753 1.1 1.1 0 0 1-.756 1.374 1.14 1.14 0 0 1-1.43-.693 1.107 1.107 0 0 1 .75-1.435"/><path fill="#fe59ab" d="m50.299 14.834-1.521-.776a3.26 3.26 0 0 0-1.8-.141 5.928 5.928 0 0 1-6.608-6.049 5.836 5.836 0 0 1 4.9-5.487 6.255 6.255 0 0 1 6.844 3.041 5.68 5.68 0 0 1-1.577 7.294c-.448.48-.144 1.342-.241 2.118"/><path d="M49.411 9.226a1 1 0 0 1-.071 1.5 1.11 1.11 0 0 1-1.456.158l-1.261-1.146-1.14 1.015a1.23 1.23 0 0 1-1.582.054 1.05 1.05 0 0 1-.1-1.618l1.111-1.074-1.285-1.253c-.4-.389-.115-1.033.273-1.358a1.115 1.115 0 0 1 1.426-.092l1.283 1.136 1.338-1.187a1.07 1.07 0 0 1 1.326.137 1.037 1.037 0 0 1 .279 1.369 11 11 0 0 1-1.26 1.276Z"/></g></g></svg>