<svg xmlns="http://www.w3.org/2000/svg" width="86.021" height="86" viewBox="0 0 86.021 86"><defs><clipPath id="a"><path fill="none" d="M1.311 3.518A1.483 1.483 0 0 1 .027 5.36L.001 8.692a1.36 1.36 0 0 1 1.308 1.37l.013 2.887 7.013-.029-.134-7.111L3.933.001h-.08c-1.73 0-2.834 1.9-2.542 3.517"/></clipPath><clipPath id="c"><path fill="none" d="M0 0h86.021v86H0z"/></clipPath><clipPath id="d"><path fill="none" d="M0 2.892v4.136a6.725 6.725 0 0 1 5.063 5.909 6.4 6.4 0 0 0 1.94-.031L6.99 5.797l-4.317-5.8A2.81 2.81 0 0 0-.001 2.889"/></clipPath><clipPath id="f"><path fill="none" d="M13.711.126c-.116.576-.882 1.289-1.057 1.907-.376 1.414-.01 2.9-.158 4.425a3.1 3.1 0 0 1 1.8 2.836v2.9a1.31 1.31 0 0 1-1.365 1.361H5.109a1.31 1.31 0 0 1-1.367-1.361V9.466a3.16 3.16 0 0 1 1.814-3l-.128-4.435C5.156 1.39 4.449.819 4.358.021L.924.051A1 1 0 0 0 0 1.132v14.28A1.02 1.02 0 0 0 1.018 16.5l4.732.015a1.244 1.244 0 0 1 1.208 1.049 1.36 1.36 0 0 1-.871 1.451q-1.835.042-3.648.185l-.051 6.495.161.163 12.306.067.032-2.952a10.7 10.7 0 0 1 .809-3.9l-4.136-.035a1.265 1.265 0 0 1 .046-2.527l5.567-.03a11.27 11.27 0 0 1 6.164-4.1l5.391-1.388 2.083-4.461A12.47 12.47 0 0 1 27.149.088c-2.2-.06-4.452-.1-6.7-.1-2.264 0-4.528.037-6.743.126"/></clipPath><linearGradient id="b" x1="-.458" x2="-.416" y1="5.207" y2="5.207" gradientUnits="objectBoundingBox"><stop offset="0" stop-color="#c49090"/><stop offset="1" stop-color="#b88080"/></linearGradient><linearGradient id="e" x1="-6.126" x2="-6.085" y1="5.048" y2="5.048" gradientUnits="objectBoundingBox"><stop offset="0" stop-color="#8f9aa5"/><stop offset="1" stop-color="#7e8a95"/></linearGradient><linearGradient id="g" x1="-.183" x2="-.168" y1="1.302" y2="1.302" gradientUnits="objectBoundingBox"><stop offset="0" stop-color="#b87f7f"/><stop offset=".091" stop-color="#c49090"/><stop offset=".366" stop-color="#bb8484"/><stop offset="1" stop-color="#c49090"/></linearGradient></defs><g clip-path="url(#a)" transform="translate(5.393 14.878)"><path fill="url(#b)" d="M0 0h9.978v13.938H0z" transform="rotate(-7.62 .86 12.893)"/></g><g clip-path="url(#c)"><path d="M59.875 84.819c.732.389.012 1.134-.691 1.181H58.01c-.272-.368-.658-.7-.657-1.17l-.335-.154.027-9.849c.515-1.942 2.624-1.952 3.168.058v9.736Zm-31.068.011c0 .474-.378.8-.655 1.17h-1.173c-.7-.046-1.423-.791-.692-1.18l-.339-.151v-9.783c.517-2.02 2.615-2.016 3.178 0l.016 9.746Z"/><path fill="#93d7e5" d="M62.553 62.978c-.017.461-.2 1.185.306 1.574a8.59 8.59 0 0 1 3.458 6.9l-.02 13.384-6.421-.019.012-9.724a1.273 1.273 0 0 0-1.129-1.354 1.24 1.24 0 0 0-1.384 1.2l-.022 9.889H28.807v-9.729a1.28 1.28 0 0 0-1.249-1.363 1.267 1.267 0 0 0-1.281 1.358l.014 9.725-6.386.012a.17.17 0 0 0-.054-.159l.189-.336 2.443-.007.02-13.259a6.06 6.06 0 0 1 1.854-4.4c1.115-1.045 4.853-2.2 6.465-2.4a3.24 3.24 0 0 1 1.524.056c7.771 3.068 17.524 3.445 24.434-1.758l.553-.068a2.23 2.23 0 0 0 1.46.075 1.28 1.28 0 0 0 .729-.87c.421-.388 1.739.136 2.274.4q.938.28.76.873"/><path fill="#75c4d7" d="M57.33 62.498a10.7 10.7 0 0 1-3.23 2.165c-6.837 3.176-14.625 2.776-21.607.068a2.65 2.65 0 0 0-1.733-.1l-3.974 1.054a5.47 5.47 0 0 0-3.951 5.388l-.011 13.59-2.976.009V71.453a8.51 8.51 0 0 1 6.42-8.3l5.536-1.423c8.071 3.446 14.486 3.44 22.55 0Z"/><path d="M86.021 28.3v1.174a1.22 1.22 0 0 1-1.277 1.147l-16.48.033q-.5.875-1.043 1.762a16.7 16.7 0 0 1 3.162 2.009 5.245 5.245 0 0 1 9.344 1.984l.12 9.162 3.137.059c1.633.3 2.959 1.205 3.037 2.965v25.328c-.077 2.2-2.128 3.024-4.01 3.11L79.379 85.4a1.23 1.23 0 0 1-.906.6H77.3c-.62-.1-1.457-.847-.69-1.19l-.276-.245q1.205-3.831 2.256-7.675-4.714-.024-9.414.041l.032 7.7-.335.2c.645.6-.09 1.075-.8 1.171h-1.005c-.711-.092-1.4-.565-.771-1.161l-.335-.156.02-13.224a8.33 8.33 0 0 0-3.411-6.714c-.416-.469-.694-1.532-.017-1.767-.275-.979 1.379-1.114 2.13-.614a17.3 17.3 0 0 1 2.107 2.059h15.681l.616-.349q.151-7.307.076-14.651c.179-.832-3.424-.657-3.614-.582a15 15 0 0 0-1.059 1.725 32 32 0 0 0-.119 4.1 3.33 3.33 0 0 1 1.752 2.532c.229 1.339.4 5.038-1.542 4.979h-7.713c-2.17.245-1.966-3.391-1.775-4.844a3.26 3.26 0 0 1 1.716-2.666 38 38 0 0 0-.074-4.123 15 15 0 0 0-1.057-1.715H57.042a13.1 13.1 0 0 1-3.5 6.181l1.908 4.027 3.145.81c.8.345 1.816 1.22.928 1.85.279.129.267.224.183.463-.284.815-2.066 1.269-2.372.331l-.533.209-2.4-.658a26.3 26.3 0 0 1-22.644 0l-5.785 1.537c-3.818 1.455-5.337 3.671-5.785 7.673v13.214l-.335.2c.153-.008.168.047.054.16.661.516-.152 1.123-.807 1.168h-1.01c-.708-.095-1.443-.571-.8-1.171l-.335-.157-.003-7.768q-4.731-.041-9.434.056l2.3 7.569-.262.29c.82.228-.051 1.1-.692 1.19H7.69a1.2 1.2 0 0 1-.884-.527l-2.694-8.496c-2.134 0-4.27-1.182-4.036-3.569V48.948c-.177-1.867 1.379-3.012 3.062-3.309l3.205-.109.072-8.991a5.241 5.241 0 0 1 9.366-2.114 16.5 16.5 0 0 1 3.16-2.009q-.536-.889-1.045-1.758L1.408 30.6c-1.743.1-1.9-3.055-.291-3.282l2.53-.034.035-2.618c.2-.82.883-1.947 1.636-1.186.92-.646 1.454.449 1.625 1.341l.012 2.514q3.164.062 6.238-.107l-.127-6.485-4.023-5.468c-1.993.157-2.274 2.209-2.115 3.85-.209.7-.883 1.751-1.585 1.073-.124.446-.414.348-.778.144-2.3-1.284-.2-7.509 2.478-7.893l2.711-.791C6.022 7.682 7.885.621 13.565.072c3.09-.3 5.458.263 7.192 3.047a6.88 6.88 0 0 1-1.049 8.549 8.03 8.03 0 0 1 4.461 1.986 9.16 9.16 0 0 1 4.509-2 6.95 6.95 0 0 1-1.359-7.9C28.915.478 31.431-.2 34.809.083c5.684.468 7.6 7.553 3.9 11.517a11.5 11.5 0 0 1 4.321 1.97 13.8 13.8 0 0 1 4.428-1.97C43.758 7.624 45.664.618 51.305.072c3.3-.32 5.9.432 7.493 3.581a6.92 6.92 0 0 1-1.347 8.013 7.72 7.72 0 0 1 4.473 2.015 9.16 9.16 0 0 1 4.5-2.046 6.884 6.884 0 0 1-1.178-8.246C67.027.238 69.627-.278 72.991.123c5.3.633 7.065 7.833 3.453 11.477 3.058.863 5.408 1.742 5.947 5.226l.134 10.35a23 23 0 0 0 2.866.23 1.07 1.07 0 0 1 .631.892"/><path fill="#fdcbbb" d="M28.189 30.074a7.4 7.4 0 0 1-6.222-5.021 4.085 4.085 0 0 1 6.222 5.021"/><path fill="#8f9aa5" d="m79.563 27.643-6.944.027v-7.059l4.259-5.738a2.775 2.775 0 0 1 2.677 2.86Z"/></g><g clip-path="url(#d)" transform="translate(63.131 14.839)"><path fill="url(#e)" d="M0 0h10.203v14.425H0z" transform="rotate(-15.336 1.724 12.804)"/></g><g clip-path="url(#c)"><path fill="#f8bbab" d="M75 8.605a4.05 4.05 0 0 1-4.125 2.2 4.092 4.092 0 0 1-1.95-7.347l.42.253a6.79 6.79 0 0 0 5.351 4.509Z"/><path fill="#fdcbbb" d="M75 8.605a7.11 7.11 0 0 1-6.075-5.148A4.086 4.086 0 0 1 75 8.605"/><path fill="#f0f9fd" d="m71.373 18.063-2.918-3.9 2.948-.777 2.892.732Z"/><path fill="#b9e5ee" d="M55.138 26.788a6.7 6.7 0 0 1-1.355-.9l-.019-5.3 4.274-5.728a2.8 2.8 0 0 1 2.655 2.868l-.014 3.953a6.66 6.66 0 0 0-5.54 5.109m-8.769-3.711-.335-.116.074-7.676.338-.3c.164-.032.3-.133.4-.12a.63.63 0 0 1 .34.281l4.062 5.47-.02 3.836a19.8 19.8 0 0 0-4.855-1.375"/><path fill="#b87f7f" d="M56.164 8.576a4.07 4.07 0 0 1-4.094 2.248 4.16 4.16 0 0 1-3.44-2.8 4.03 4.03 0 0 1 1.322-4.457l.444.242A7.04 7.04 0 0 0 55.838 8.2Z"/><path fill="#c49090" d="M56.165 8.579a7.36 7.36 0 0 1-6.212-5.013 4.078 4.078 0 0 1 6.212 5.013"/><path fill="#93d6e4" d="m46.447 14.988-.078 8.091-2.041-.218.029-5.364a2.61 2.61 0 0 1 2.089-2.509"/><path fill="#f0f9fd" d="m52.516 18.08-2.947-3.934 2.931-.759 2.91.765Z"/><path fill="#c0e8ae" d="M41.81 22.897a19.6 19.6 0 0 0-6.887 1.6l-.039-3.892 4.245-5.72a2.77 2.77 0 0 1 2.689 2.843Zm-14.214-.529-.325-.3q-.061-3.4-.018-6.8l.563-.356c.3-.041.393.1.532.283l4.015 5.4-.005 5.321-1.328.96a6.64 6.64 0 0 0-3.433-4.5"/><path fill="#b87f7f" d="M37.365 8.431a4.08 4.08 0 0 1-7.658-.571 4.06 4.06 0 0 1 1.479-4.4l.415.251a6.52 6.52 0 0 0 5.464 4.447Z"/><path fill="#c49090" d="M37.367 8.431a1.57 1.57 0 0 1-.909-.007 6.87 6.87 0 0 1-5.27-4.963 4.092 4.092 0 0 1 6.179 4.969"/><path fill="#ace093" d="M27.816 14.909a.81.81 0 0 0-.255.631l.036 6.828a5.9 5.9 0 0 0-2.128-.673l.053-4.43a2.58 2.58 0 0 1 2.294-2.357"/><path fill="#f0f9fd" d="m33.633 18.063-2.918-3.9 2.948-.777 2.893.732Z"/><path fill="#c49090" d="M17.968 27.592a6.4 6.4 0 0 1-1.953.046l.008-7.047 4.275-5.733a2.8 2.8 0 0 1 2.655 2.869v4.068a6.63 6.63 0 0 0-4.98 5.8"/><path fill="#f8bbab" d="M18.417 8.57a4.08 4.08 0 0 1-4.088 2.24 4.13 4.13 0 0 1-3.45-2.77 4.01 4.01 0 0 1 1.332-4.485l.442.233a6.99 6.99 0 0 0 5.442 4.406Z"/><path fill="#fdcbbb" d="M18.417 8.567a7.31 7.31 0 0 1-6.207-5.014 4.081 4.081 0 0 1 6.207 5.014"/><path fill="#f0f9fd" d="m14.775 18.08-2.947-3.934 2.931-.759 2.91.765Z"/><path fill="#5d6874" d="M13.868 47.009a2.319 2.319 0 1 1-4.636.074v-9.555a2.316 2.316 0 1 1 4.631 0Z"/><path fill="#a1ade5" d="M18.438 45.966c-.132-.014-.332-.06-.336-.154-.114-2.383-.07-5.038-.029-7.443a3.57 3.57 0 0 1 .327-2.23c.191-.14.6-.681.792-.432l4.065 5.391.01 4.872Z"/><path fill="#f8bbab" d="M28.19 30.075a4.07 4.07 0 0 1-4.122 2.22 4.11 4.11 0 0 1-3.421-2.812 4.05 4.05 0 0 1 1.32-4.429l.447.236a7.07 7.07 0 0 0 5.444 4.406Z"/><path fill="#a1ade5" d="m29.205 45.926-3.419.052.016-4.883 2.83-3.785.562 2.229Z"/><path fill="#8694dd" d="m18.441 45.966-2.054-.009-.007-5.757a5.27 5.27 0 0 1 2.022-4.058Z"/><path fill="#6a7681" d="M14.219 59.331H8.875l.065-2.149h5.212Z"/><path fill="#7e8a95" d="M49.822 44.126c-.388.552-2.276.941-2.92.858a.9.9 0 0 1-.49-.306 1.23 1.23 0 0 0-1.338-1.062c-3.487.211-7.816-.081-10.791-1.73l-.416-.513-.957-6.434a9.39 9.39 0 0 1 3.666-8.394 18.62 18.62 0 0 1 12.365-.259 13.77 13.77 0 0 1 6.063 4 3.19 3.19 0 0 1 .837 2.881l-1.346 5.867c-.411 1.793-2.172 2.8-3.923 3.462a1.245 1.245 0 0 0-.75 1.629"/><path fill="#fdcbbb" d="M38.149 54.314c-2.391-1.419-4.365-6.252-3.768-8.937a.98.98 0 0 1 .381-.485 25.4 25.4 0 0 0 10.652 1.209 1.257 1.257 0 0 0 1-1.421 21.4 21.4 0 0 0 3.41-.552c.762 1.7 2.73.273 4.621-.792l-.01 3.25a9.22 9.22 0 0 1-3.53 6.982 23.5 23.5 0 0 1-12.754.747"/><path fill="#93d7e5" d="M52.571 59.723c-6.692 2.766-12.285 2.739-18.986.013l1.668-3.561a26.2 26.2 0 0 0 15.657 0Z"/><path fill="#fee077" d="m69.784 45.955-6.927.034.015-4.9 4.114-5.5a5.37 5.37 0 0 1 2.794 4.44Z"/><path fill="#6a7581" d="M36.579 26.545c-2.1 2.587-3.863 5.116-3.3 8.565l1.011 6.777c-.961-.533-2.156-1.179-2.436-2.332l-1.511-6.239a3.28 3.28 0 0 1 .827-3.017 13.7 13.7 0 0 1 5.409-3.754"/><path fill="#f8bbab" d="M34.763 44.891a10.68 10.68 0 0 0 3.1 8.92.72.72 0 0 1 .287.5 8.3 8.3 0 0 1-2.938-.882 8.72 8.72 0 0 1-3.489-6.987l.021-3.095a18.4 18.4 0 0 0 3.019 1.542m30.496-14.814a4.07 4.07 0 0 1-4.122 2.22 4.11 4.11 0 0 1-3.421-2.811 4.05 4.05 0 0 1 1.321-4.429l.447.236a7.07 7.07 0 0 0 5.444 4.406Z"/><path fill="#fdcbbb" d="M65.259 30.074a7.4 7.4 0 0 1-6.222-5.021 4.084 4.084 0 0 1 6.222 5.021"/><path fill="#fee076" d="m60.349 45.928-3.378.047v-6.433l.542-2.177 2.818 3.74Z"/><path fill="#f0f9fc" d="m64.368 34.862-2.749 3.717-2.775-3.683Z"/><path fill="#f0f9fd" d="m27.238 34.919-2.688 3.659-2.8-3.731Z"/><path fill="#65717c" d="M12.386 54.634q-.473-.184-.378-1.135l-.965.028q.168.874-.335 1.106c-.4-.468.021-1.584-.088-2.745a9 9 0 0 0 1.856 0c-.11 1.161.311 2.277-.089 2.747"/><path fill="#798590" d="M10.707 53.163h1.679v1.47h-1.679z"/></g><g clip-path="url(#f)" transform="translate(2.691 47.952)"><path fill="url(#g)" d="M0 0h26.478v31.275H0z" transform="rotate(-88.972 12.963 13.197)"/></g><g clip-path="url(#c)"><path fill="#b87f7f" d="M82.525 74.067H68.881l-.047-2.762a11.3 11.3 0 0 0-.815-4.011l15.451-.062.026 5.841a1.026 1.026 0 0 1-.97.991"/><path fill="#ad6b6b" d="M8.657 67.237c-.994.36-2.146.034-3.3.152l-.01 6.548 11.957.112-11.278.033-2.334-.053a1 1 0 0 1-1.024-.949l-.009-5.92a20.4 20.4 0 0 0 3.523.061Z"/><path fill="#c49090" d="m29.425 48.581-13.253.028a.4.4 0 0 1 .262-.183h12.708c.121 0 .224.127.283.154"/><path fill="#5d6874" d="M76.936 47.009a2.319 2.319 0 1 1-4.636.074v-9.555a2.316 2.316 0 1 1 4.631 0Z"/><path fill="#6a7681" d="M77.285 59.331h-5.344l.065-2.149h5.212Z"/><path fill="#65717c" d="M75.453 54.634q-.473-.184-.378-1.135l-.965.028q.169.874-.335 1.106c-.148-.051-.2-.264-.188-.487l.1-2.258h1.856l.1 2.258c.01.223-.04.437-.189.489"/><path fill="#798590" d="M73.775 53.163h1.679v1.47h-1.679z"/><path fill="#c49090" d="M62.556 62.977c-.728-.713-2.059-.906-3.034-1.274a1.314 1.314 0 0 0-1.018-1.527l-3.321-.854-2.048-4.385a12 12 0 0 0 3.6-6.436h13.266c.116.785.825 1.353 1.067 1.983l.09 4.429a2.8 2.8 0 0 0-1.725 2.575l-.013 3.021a1.29 1.29 0 0 0 1.345 1.341h7.714a1.29 1.29 0 0 0 1.346-1.342V57.65a3.05 3.05 0 0 0-1.772-2.794l.127-4.373c.239-.629.97-1.2 1.039-1.978h3.271a1.01 1.01 0 0 1 1.017.943l.011 14.239a1.01 1.01 0 0 1-1.019 1.069h-15.9a14 14 0 0 0-1.94-2 1.42 1.42 0 0 0-2.1.22m14.05 21.835-7.737.019-.034-8.268 10.264-.007Zm-59.318.018-7.735-.02-2.51-8.246h10.276Z"/></g></svg>