<svg xmlns="http://www.w3.org/2000/svg" width="86.01" height="86" viewBox="0 0 86.01 86"><defs><clipPath id="a"><path fill="none" d="M0 0h86.01v86H0z"/></clipPath></defs><g clip-path="url(#a)"><path d="M79.485 23.272a6.962 6.962 0 1 1-.044-10.513 6.9 6.9 0 0 1 .044 10.513"/><path fill="#f8d166" d="M78.964 17.173a4.565 4.565 0 0 1-5.033 4.9 4.156 4.156 0 1 1 5.033-4.9"/><path fill="#eaaa41" d="M73.931 22.075a5.17 5.17 0 0 0 5.033-4.9 4.17 4.17 0 0 1-5.033 4.9"/><path d="M85.629 37.869a1.4 1.4 0 0 1 .291 1.474 1.21 1.21 0 0 1-.994.851l-4.445.04A23.6 23.6 0 0 1 61.037 62v22.416c0 .99-.523 1.669-1.607 1.576L1.6 86A1.4 1.4 0 0 1 0 84.391V7.153a1.41 1.41 0 0 1 1.576-1.616l15.065.019V1.385A1.33 1.33 0 0 1 18.051 0h24.932a1.28 1.28 0 0 1 1.389 1.221l.021 4.332 15.247-.006A1.3 1.3 0 0 1 61.024 6.8l.011 47.144a17.78 17.78 0 0 0 8.187-13.709l-4.2-.009a1.34 1.34 0 0 1-1.091-.759 1.39 1.39 0 0 1 .192-1.545l9.679-9.7a1.463 1.463 0 0 1 2.2 0Z"/><path d="M55.479 26.335v2.815l-24.946-.021v-2.771Z"/><path fill="#e1e6f5" d="m2.781 80.333 52.694.114v-6.914c-.134-.017-.33-.053-.347-.151a21 21 0 0 1 0-2.425.57.57 0 0 1 .347-.241v-2.732c-.134-.017-.33-.053-.347-.15a21 21 0 0 1 0-2.424.58.58 0 0 1 .347-.242l.074-2.919h2.7l-.006 20.972H2.793Z"/><path d="M55.479 48.526v2.815l-24.945-.021v-2.774Zm0 22.19v2.816l-24.946-.022v-2.774Z"/><path fill="#d13f34" d="M55.089 59.365a20.99 20.99 0 0 0 17.033-20.56 1.374 1.374 0 0 0-1.373-1.357l-2.137-.046 6.3-6.3 6.3 6.3-2.16.049a1.387 1.387 0 0 0-1.379 1.354 20.586 20.586 0 0 1-22.584 20.56"/><path fill="#f1f1f1" d="m55.542 8.332.346.163-.062 12.084-.348.208-.154.348-5.018.017v2.084l4.922.019.25.348.347.195a20 20 0 0 1 0 2.295.57.57 0 0 1-.347.243l-.12.348-24.354.019a6.6 6.6 0 0 0-.125 2.071l24.39.033.214.347.347.161v13.454l-.347.208-.154.348-5.018.018v2.083l4.922.019.25.348.347.195v2.295l-.347.244-.121.347-24.353.019a6.6 6.6 0 0 0-.125 2.071l24.386.031.214.347c.135.018.337.064.345.161a30 30 0 0 1-.04 3.768q.169.9-.359 1.1a17.7 17.7 0 0 1-3.936.493h-8.491a1.374 1.374 0 0 0-1.385 1.3 1.42 1.42 0 0 0 1.213 1.478l8.875 2.031a26 26 0 0 0 3.852.572l.342.2q-.033 1.243-.064 2.487l-.353.231-.154.348-5.017.018-.028 2.078 4.944.03.25.348.347.195v2.295l-.347.244-.121.347-24.353.019a6.6 6.6 0 0 0-.125 2.071l24.386.032.214.348a.55.55 0 0 1 .231.013c.338.114.232 6.808-.015 7.065a.73.73 0 0 1-.386.182L2.996 80.68l-.215-.348-.012-72.004 13.846-.006.022 1.4a1.38 1.38 0 0 0 1.411 1.377h24.931a1.363 1.363 0 0 0 1.4-1.377l.024-1.4Z"/><path d="M36.072 20.805h11.079v2.777H36.072zm0 22.191h11.079v2.777H36.072zm0 22.19h11.079v2.777H36.072zm19.407-44.399v2.815l-5.541-.022v-2.773Zm0 22.191v2.815l-5.541-.02v-2.775Zm-.001 22.19v2.815l-5.54-.022v-2.772ZM23.986 15.635l2 1.979-2.406 2.4a9.787 9.787 0 1 1-1.809-2.192Z"/><path fill="#559a2d" d="m11.521 24.5 2.737 2.848a1.43 1.43 0 0 0 2.09-.087l5.183-5.184a6.981 6.981 0 1 1-1.7-2.29l-4.564 4.569-1.775-1.737Z"/><path d="m23.987 60.017 2.005 1.979-2.406 2.4a9.773 9.773 0 1 1-1.809-2.193Z"/><path fill="#559a2d" d="m11.521 68.882 2.737 2.852a1.43 1.43 0 0 0 2.09-.087l5.183-5.184a6.981 6.981 0 1 1-1.7-2.29l-4.564 4.569-1.775-1.737Z"/><path d="M14.046 37.538a9.7 9.7 0 1 1-8.392 10.977 9.68 9.68 0 0 1 8.391-10.976"/><path fill="#b42f28" d="M14.217 40.331a6.926 6.926 0 1 1-5.781 8.014 6.89 6.89 0 0 1 5.781-8.014"/><path d="m17.055 50.879-1.8-1.766-1.769 1.77-1.929-1.906 1.743-1.82-1.745-1.776 1.929-1.93 1.777 1.766 1.778-1.766 1.932 1.934-1.755 1.776 1.755 1.775Z"/><path fill="#e1e6f5" d="m55.424 56.373.054-5.033c-.135-.017-.332-.053-.348-.15a19 19 0 0 1 0-2.424.57.57 0 0 1 .347-.241v-2.732c-.134-.017-.33-.053-.347-.15a21 21 0 0 1 0-2.425.58.58 0 0 1 .347-.241V29.15c-.134-.017-.33-.053-.347-.15a21 21 0 0 1 0-2.425.58.58 0 0 1 .347-.241v-2.727c-.134-.017-.331-.053-.347-.15a19 19 0 0 1 0-2.425.58.58 0 0 1 .347-.241l.064-12.456 2.713.016v47.1a14.6 14.6 0 0 1-2.831.923"/><path fill="#3b5891" d="m19.433 5.491.121-.347 18.083.042q1.133-.435.905-2.185l.357-.21 2.714-.008-.006 5.543H19.436Z"/><path fill="#4c6cb4" d="m38.9 2.792-.068 1.382a1.36 1.36 0 0 1-1.4 1.374l-18-.056V2.781Z"/></g></svg>