<svg xmlns="http://www.w3.org/2000/svg" width="68.127" height="66" viewBox="0 0 68.127 66"><defs><clipPath id="a"><path fill="none" d="M0 0h68.127v66H0z"/></clipPath></defs><g clip-path="url(#a)"><path fill="#bce9a2" d="m67.205 57.22-.134.02c-.379-.249-.32-1.228-.265-1.7q-.058-.663.4-.776Z"/><path fill="#cbf39e" d="M63.228 44.935c.608-.108.849 1.031.922 1.551l.016 17.328-.18.114-9.34.01-.035-8.673 3.377-4.463a1 1 0 0 0-.138-1.336.97.97 0 0 0-1.387.077l-4.529 5.967a1.76 1.76 0 0 1-1.363.679l-8.385-.008a1.822 1.822 0 0 1 0-3.644l6.91-.015a.99.99 0 0 0 .79-.4l5.378-7.109a1.62 1.62 0 0 1 1.264-.689 6.47 6.47 0 0 0 6.7.607"/><path fill="#b2e49e" d="M67.21 54.766a10 10 0 0 0-.135 2.473 1.11 1.11 0 0 0-.951 1.173l.017 5.57-11.59.023.061-8.739.083 8.607h9.214l-.02-17.278a2.96 2.96 0 0 0-.659-1.658l.927-.532a2.685 2.685 0 0 1 1.977 2.565v6.661a1.115 1.115 0 0 0 1.078 1.137"/><path fill="#fe6978" d="m11.328 52.417.264.689-.035 10.711-.182.112q-4.707.057-9.38-.058v-5.592a1.046 1.046 0 0 0-1.072-1.044v-2.461a1.12 1.12 0 0 0 1.078-1.144v-6.661a2.61 2.61 0 0 1 2.061-2.559 6.39 6.39 0 0 0 7.542-.083 1.6 1.6 0 0 1 1.205.619l5.441 7.181a.97.97 0 0 0 .789.4l6.909.015a1.823 1.823 0 0 1 0 3.645l-8.38.009a1.86 1.86 0 0 1-1.486-.831l-4.343-5.757a1 1 0 0 0-1.457-.143 1.027 1.027 0 0 0-.088 1.411Z"/><path fill="#ce4351" d="M1.995 63.87h9.3l.029-11.455 2.2 2.859v8.7l-11.4.023c-.129 0-.143-.087-.143-.133"/><path d="M67.21 54.766c-.583.527-1.077-.229-1.309-.814l-.036-7.077c-.015-1.1-1.291-2.8-2.352-1.8l-.285-.143a.7.7 0 0 1-.226.395c-1.252.875-4.35.577-5.661-.2q-1.045-.986-1.8-.031l-5.445 7.192a1.27 1.27 0 0 1-.98.493l-7.073.023a1.557 1.557 0 0 0 .155 3.105l8.705-.033.434-.183q2.574-3.1 4.981-6.39c1.273-.965 2.637.221 1.878 1.665l-3.272 4.326-.307-.035.011 8.581.088.093 9.115-.01.122-.209a10 10 0 0 0 1.926-.076l.019-5.581c.181-.53.667-1.339 1.183-.824.021-.121.066-.125.133-.02.275-.041.9.287.9.673l.01 7.436c0 .248-.512.669-.831.669H.741L0 65.468v-7.719c.081-.483.547-1.007.926-.515.614-.543 1.061.2 1.313.785l.023 5.7-.262.152q4.57.12 9.227.058l.122-.21 1.924-.031v-8.3l-1.725-2.254-.214-.714-.3.039c-.656-.681-1.9-2.261-.983-3.123a1.257 1.257 0 0 1 1.854.043q2.348 3.232 4.873 6.291l.441.209q4.355.082 8.731.039a1.558 1.558 0 0 0 .15-3.108l-7.067-.022a1.26 1.26 0 0 1-.985-.493l-5.47-7.218q-.751-.912-1.745.035c-2.389 1-4.633 1.134-6.824-.459a2.45 2.45 0 0 0-1.738 2.319l-.025 6.914c-.218.6-.794 1.491-1.322.885-.3.57-.884-.089-.923-.617v-8.118a5 5 0 0 1 2.47-3.194 5.36 5.36 0 0 1-1.075-2.868l-.018-6.834a3.864 3.864 0 0 1 3.788-3.711l5.47.032a3.943 3.943 0 0 1 3.557 3.826l-.007 6.166a5.76 5.76 0 0 1-1.01 3.188l1.013.784 5.287 6.994 3.938.013.036-3.72.146-1.043c.545-2.031 2.479-3.134 4.345-4.017a5.9 5.9 0 0 1-.476-2.2l-.006-6.168a3.85 3.85 0 0 1 3.561-3.82l8.237-.075a1.05 1.05 0 0 1 1.07 1.078l-.011 9.053a9 9 0 0 1-.4 1.985c2.479 1.179 4.726 2.444 4.762 5.34l.044 3.587 3.937-.013 5.287-6.994 1.009-.783a5.93 5.93 0 0 1-1.012-3.166v-6.19a3.84 3.84 0 0 1 3.557-3.823l5.6-.019a3.79 3.79 0 0 1 3.646 3.566l.009 6.866a5.9 5.9 0 0 1-1.064 2.971 4.37 4.37 0 0 1 2.393 3.48l.042 7.691c0 .414-.61.766-.917.754"/><path fill="#cf8f7f" d="M50.322 63.987h-34.8l.006-5.7q17.48-.13 34.981-.053l.133.143-.055 5.462Z"/><path fill="#bd684f" d="m50.326 63.987.057-5.707H15.534a.38.38 0 0 1 .325-.138l34.279.016 2.479.043-.014 5.782Z"/><path fill="#ead1fe" d="M38.584 43.556c.355-.171 1.111.7 1.343 1.017a3.4 3.4 0 0 1 .728 2c.047.379.024 3.96-.045 4.156l-.27.282a3.873 3.873 0 0 0-1.495 5.182l-9.571-.006a3.79 3.79 0 0 0-.212-4 3.85 3.85 0 0 0-3.533-1.648l.027-4.228c0-.609.54-1.057.939-1.451a8.4 8.4 0 0 1 2.592-1.458 6.373 6.373 0 0 0 9.5.159"/><path fill="#fecabd" d="M36.254 36.189c.1.029.259.076.264.156.132 2.139.1 5.493-1.73 6.905a2.1 2.1 0 0 1-1.46.318 4.41 4.41 0 0 1-3.827-4.441l.009-2.939Z"/><path fill="#fee49f" d="M31.106 31.553a46 46 0 0 1 5.316-.055 15 15 0 0 1 .058 2.5l-.267.185H29.56c-.3-1.172.35-2.623 1.545-2.635"/><path fill="#d6bdef" d="m40.34 51.011.05-4.306a2.88 2.88 0 0 0-.915-2.221l-.891-.929c.081-.085.166-.3.4-.206 1.379.574 3.579 1.748 3.588 2.954l.031 4.22a4.2 4.2 0 0 0-2.267.488"/><path fill="#f6bdae" d="m33.328 43.573.753-.054a5.15 5.15 0 0 0 2.126-3.991l.048-3.335h2.028l-.017 3.173a4.353 4.353 0 0 1-4.938 4.2"/><path fill="#efcc7d" d="m36.212 34.189.008-2.685-5.115.049a.28.28 0 0 1 .3-.156l6.868.047.01 2.74Z"/><path fill="#c58a86" d="m62.281 40.736.2.246c-.465 1.226-1.137 2.727-2.676 2.577a4.413 4.413 0 0 1-3.821-4.436l.008-2.351a5.1 5.1 0 0 0 2.355-.375c.45 2.237 1.727 3.932 3.931 4.34"/><path fill="#477a9d" d="M57.585 31.541q2.134-.124 4.293-.067c.433.052.613.54.753.927.336.926.229 4.991.178 6.183l-.265.158a2.41 2.41 0 0 1-1.706-1.254c-.943-1.709-.339-3.2-1.232-3.622-1.039-.486-1.682 1.2-3.588.906l-.031-1.27a1.877 1.877 0 0 1 1.6-1.961"/><path fill="#365d7c" d="m62.544 38.743-.025-5.477a2.93 2.93 0 0 0-.672-1.733l-4.262.008c.136-.171.333-.144.562-.143l4.4.019a2.1 2.1 0 0 1 2.221 2.118l-.006 5.1a4.8 4.8 0 0 1-2.218.108"/><path fill="#bc7c78" d="M59.807 43.562c1.139.012 2.123-1.62 2.474-2.823a12 12 0 0 0 2.194.044 4.4 4.4 0 0 1-4.668 2.778"/><path fill="#c58a86" d="M5.008 31.531a1 1 0 0 1 .385-.069 32 32 0 0 1 4.215.1c.328.2.854 2.273.47 2.652l-.364-.162a1.08 1.08 0 0 0-1.188-.191c-.882.435-.295 1.829-1.182 3.539-.762 1.471-2.3 1.636-3.971 1.231l.023-5.332a1.81 1.81 0 0 1 1.612-1.768"/><path fill="#fecabd" d="M7.16 43.543a4.3 4.3 0 0 1-3.5-2.8 5.33 5.33 0 0 0 4.005-.739 5.5 5.5 0 0 0 2.051-3.3c.131-.247.328-.19.49.05.251.373-.209 3.873-.412 4.426-.423 1.157-1.253 2.571-2.637 2.361"/><path fill="#f6bdae" d="M7.16 43.543c.143-.027.483.039.646-.082a5.59 5.59 0 0 0 2.122-4.6l.016-2.256-.225.1c-.083-.605.985.25 2.427.068l-.008 2.623a4.328 4.328 0 0 1-4.977 4.146"/><path fill="#bc7c78" d="M9.714 34.06c.038.011.166.042.193 0a3.56 3.56 0 0 0-.655-2.524l-4.244-.006c.189-.179.437-.136.709-.134l4.266.022a2.1 2.1 0 0 1 2.165 2.386c-.03.319.094.691-.1.994a3.24 3.24 0 0 1-2.338-.742"/><path fill="#e4eefb" d="m39.813 26.09-.022.117-2.416-.03c-.036-.12-.052-.276.039-.331a13.6 13.6 0 0 1 2.22-.023Z"/><path fill="#ebf3fe" d="m52.03 9.991.267.12.074 8.787c-.234 2.557-1.315 3.956-3.933 4.259l-17.18.029c-.287-.012-.362-.145-.255-.418a6.14 6.14 0 0 0 3.565-5.6V9.896Z"/><path fill="#dce9fa" d="m39.813 26.092-2.166-.023a.36.36 0 0 0-.275.109c-.165-.369-.3-1.019-.916-1.02l-5.982-.013a2.79 2.79 0 0 1-2.652-1.856 6.9 6.9 0 0 0 3.18-.521.33.33 0 0 0 .281.155l17.15-.031a3.82 3.82 0 0 0 3.672-3.995l-.075-8.906c1.342.007 2.3 1.519 2.3 2.757l-.009 9.606a2.81 2.81 0 0 1-2.811 2.791 1.007 1.007 0 0 0-.991 1.057v2.295l-3.428-3.33-6.1-.034a1.1 1.1 0 0 0-1.172.96"/><path d="M39.787 26.209q-.163-.07.022-.117c-.539-.494.321-1.063.9-1.207l6.461.045 3.064 2.929a5 5 0 0 1 .331-2.548l.476-.341c1.681-.132 2.792-.757 3.006-2.523v-9.925a2.46 2.46 0 0 0-1.872-2.258l-.149-.274-.094.266-17.1-.067v7.15a6.38 6.38 0 0 1-1.752 4.254c-.532.559-1.286 1.275-2.077 1.175l-.238.381a11.5 11.5 0 0 1-2.481.489 2.51 2.51 0 0 0 2.093 1.239l6.307.042c.494.183 1.1.822.69 1.259a1.36 1.36 0 0 1-.686.957h-7.091a4.89 4.89 0 0 1-3.864-3.842H11.91l-4.63 4.59a1.064 1.064 0 0 1-1.667-.369l-.026-4.273a6.14 6.14 0 0 1-5.048-5.306L.546 5.247A6.25 6.25 0 0 1 5.696.009L29.212 0a6.185 6.185 0 0 1 5.359 5.355l.037 2.468 17.235.091a4.78 4.78 0 0 1 4.544 4.877l-.01 9.487a4.79 4.79 0 0 1-3.806 4.765l.009 3.7a1.34 1.34 0 0 1-.419 1.02c-.211.183-.9.357-1.15.107l-4.755-4.713-5.406-.007a1.03 1.03 0 0 1-1.06-.938"/><path fill="#dce9fa" d="m2.993 19.038 22.55.005a4.993 4.993 0 0 0 4.794-5.062l.072-11.473a3.95 3.95 0 0 1 2.149 3.48l.01 11.175a4.03 4.03 0 0 1-3.96 4.125l-17.143.021a1.05 1.05 0 0 0-.764.3L7.62 24.656 7.6 22.35a1.033 1.033 0 0 0-1.083-1.062 3.96 3.96 0 0 1-3.524-2.25"/><path fill="#ebf3fe" d="m30.409 2.507.264.356-.071 11.121c-.321 3.083-1.746 4.921-4.915 5.322H3.353l-.362-.266a3.4 3.4 0 0 1-.437-1.5L2.548 6.115a4.065 4.065 0 0 1 4.115-4.107h21.93a3.7 3.7 0 0 1 1.815.5"/><path d="m26.797 12.652-18.529-.007a.977.977 0 0 1-.943-1 .99.99 0 0 1 1.072-.99h18.326a1 1 0 1 1 .072 2"/><path fill="#000101" d="m26.892 7.392-18.6.01a.974.974 0 0 1-.962-.955 1 1 0 0 1 1.065-1.036l18.477.011a.95.95 0 0 1 .909.909.974.974 0 0 1-.889 1.061"/><path fill="#010101" d="m17.534 17.907-9.25-.006a.976.976 0 0 1-.957-.944 1.014 1.014 0 0 1 1.056-1.048l9.18.01a.995.995 0 1 1-.03 1.989"/></g></svg>