<svg xmlns="http://www.w3.org/2000/svg" width="64.494" height="66" viewBox="0 0 64.494 66"><defs><clipPath id="a"><path fill="none" d="M0 0h64.493v66H0z"/></clipPath></defs><g clip-path="url(#a)"><path fill="#c96e59" d="m54.19 31.075-2.5-.011c-.055-.387-.368-.991-.895-.993l-3.865-.018-.342-.119q-.737-1.205-1.433-2.441l.129-.292h13.521l-1.655 2.857-1.836-.011a1.13 1.13 0 0 0-1.129 1.03"/><path fill="#ba5d4c" d="m45.289 27.196 1.645 2.852-5.01-.005-1.633-2.841Z"/><path d="M54.19 31.075c-.53-.612.375-1.147 1.046-1.285l1.791-.025 1.32-2.307H45.633l-.344-.258-.15.258-4.353.005q.577 1.157 1.268 2.293l4.554.038.327.258c.012-.1.046-.253.116-.257a33 33 0 0 1 3.9.033c.523.161 1.218.8.739 1.236.039.275-.277.887-.632.887l-9.891.01c-.362 0-.7-.437-.851-.713l-2.351-4.24c-.541-.975.492-1.552 1.147-1.843l9.35-17.688.009-1.939-11.66.048a4.87 4.87 0 0 1-3.531 3.475l.018 3.232a1.98 1.98 0 0 1 2.51 1.41l.024 2.919a1.06 1.06 0 0 1-.886.87c-.474.633-1.361-.319-1.333-1.009v-1.947l-1.568.008-.18-.256-.152.255a1.74 1.74 0 0 0-.814.025v21.673a1.3 1.3 0 0 0 .795.1l.172.259.145-.257a6 6 0 0 0 1.611-.076l-.011-15.2c.127-.653.556-1.554 1.228-1.05a1.08 1.08 0 0 1 1.01.9l.019 15.677a3.55 3.55 0 0 1 3.432 3.548l.038 2 2.19.036a3.1 3.1 0 0 1 2.679 2.975l.043 2.672 19.167.005a1.01 1.01 0 0 1 1.072 1.083.994.994 0 0 1-1.057.968l-1.792.017V61.22l1.9.039a.96.96 0 0 1 .95 1.062 1 1 0 0 1-1.068.973H22.228l-.034 1.277A1.72 1.72 0 0 1 21.3 66h-1.031l-.735-.209-1.879-1.338-1.926 1.338-.745.209h-1.031c-.932-.577-.949-1.495-.889-2.681L6.9 63.228a7.71 7.71 0 0 1-6.341-4.845 7.48 7.48 0 0 1 .808-7.142 7.39 7.39 0 0 1 5.808-3.357l13.087-.075.04-2.654a3.234 3.234 0 0 1 2.68-2.977l2.186-.036.041-2.125a3.59 3.59 0 0 1 3.441-3.424V13.709a2.08 2.08 0 0 1 2.58-1.418V9.06a4.87 4.87 0 0 1-3.53-3.474l-11.66-.048.008 1.921 9.336 17.727a1.72 1.72 0 0 1 1.028.634 1.52 1.52 0 0 1 .142 1.251l-2.37 4.179c-.151.266-.463.713-.851.713H6.638c-.349 0-.665-.39-.806-.633l-2.32-3.987a1.34 1.34 0 0 1-.038-1.39 1.58 1.58 0 0 1 1.058-.725l9.41-17.869v-1.8L10 5.5c-.458-.006-.574-.614-.575-.916 0-.28.115-.946.585-.946l17.7-.03a4.653 4.653 0 0 1 9.07 0l17.72.034c.47 0 .586.663.585.944 0 .317-.117.911-.575.917l-3.944.054.006 1.8 9.4 17.874a1.37 1.37 0 0 1 1.1.814 1.25 1.25 0 0 1-.074 1.3l-2.314 3.991c-.151.261-.466.619-.793.618l-3.072-.015c-.358 0-.657-.579-.628-.861M32.863 7.144a2.634 2.634 0 1 0-2.777-1.06 2.62 2.62 0 0 0 2.777 1.06m-18.9 18.119-.026-13.57-7.155 13.574Zm43.737-.045-7.126-13.525-.026 13.591Zm-34.528.049L16.05 11.773l-.073 13.491Zm25.336-.006-.058-13.475-7.115 13.484Zm-36.925 4.793h11l1.633-2.854H10.153l-4.453.006 1.657 2.847Zm18.939 12.088 6.77.005.019-1.931a1.64 1.64 0 0 0-1.7-1.675l-4.475.012h-2.485a1.625 1.625 0 0 0-1.451 1.661l.017 1.931Zm-2 5.78a.96.96 0 0 1 .652 1.206.91.91 0 0 1-.871.693l-15.767.034a2.435 2.435 0 0 0-2.294 2.474l.012 6.582a2.476 2.476 0 0 0 2.89 2.389l.043-6.9a.28.28 0 0 0-.137-.267l-.507-.008a.92.92 0 0 1-.79-.959c-.007-.369.338-.954.788-.954l17.64-.021a.975.975 0 1 1 .009 1.944H22.2c-.1.034-.13.106-.128.271l.059 6.922h37.446l.025-2.385-21.114.008a1.02 1.02 0 0 1-.736-1.007.95.95 0 0 1 .861-.918L59.59 57v-2.879H38.722a.964.964 0 1 1-.008-1.928h20.867v-2.36l-26.843-.005a.92.92 0 0 1-.878-.7 1.1 1.1 0 0 1 .133-.852.96.96 0 0 1 .782-.379h9.444v-2.521a1.264 1.264 0 0 0-1.335-1.3l-13.794.007-3.476-.006a1.27 1.27 0 0 0-1.323 1.3v2.528ZM7.182 61.273a15 15 0 0 0 1.867.038 4.64 4.64 0 0 1-.743-2.529l.007-6.572a4.43 4.43 0 0 1 .707-2.335l-1.72-.014a5.725 5.725 0 0 0-.117 11.412m10.112.762a.84.84 0 0 1 .72.03l2.164 1.435.005-9.365-2.815-.008-2.289.007.006 9.365Z"/><path fill="#873f2e" d="M32.862 7.145c-.917-.172-1.254-1.712-1.244-2.562s.393-2.391 1.334-2.536a2.63 2.63 0 0 1-.09 5.1"/><path fill="#6c3326" d="M32.952 2.046a3.667 3.667 0 0 0-.09 5.1 2.633 2.633 0 1 1 .09-5.1"/><path fill="#c96e59" d="m11.582 30.055-.375-.172-1.2-2.4.146-.283h14.062l-1.629 2.856Z"/><path fill="#ba5d4c" d="m10.153 27.198 1.43 2.856H7.355L5.7 27.207Zm21.705 21.931a.48.48 0 0 0-.49-.285h-1.705a.48.48 0 0 0-.49.284.96.96 0 0 0-.652-1.206q-.945-.077-1.9-.064l-.112-.133a11.7 11.7 0 0 1 .25-3.525l.333-.115 13.794-.006a1.264 1.264 0 0 1 1.335 1.3V47.9h-9.444a.96.96 0 0 0-.782.379 1.1 1.1 0 0 0-.133.852"/><path fill="#a34f3e" d="M27.09 44.084a2.6 2.6 0 0 0-.311.957l-.014 2.8a5.5 5.5 0 0 1 1.756.083l-6.227-.022v-2.528a1.27 1.27 0 0 1 1.323-1.3Z"/><path fill="#ba5d4c" d="M34.945 17.492a.44.44 0 0 0-.112.3v2.226a1.08 1.08 0 0 0-.972 1.133l.014 15.462-2.014-.012-.258-.09V14.446l.258-.158 2.006-.014v2.115a1.013 1.013 0 0 0 1.078 1.1"/><path fill="#a24e3d" d="M31.86 14.292v22.312l-1.223-.012V14.321a3.7 3.7 0 0 1 1.224-.033"/><path fill="#873f2e" d="M30.522 42.143c-.1-.031-.248-.078-.253-.155-.054-.911-.14-3.149.866-3.434l4.475-.012a1.64 1.64 0 0 1 1.7 1.675l-.019 1.931Z"/><path fill="#6d3326" d="M31.136 38.553a2.55 2.55 0 0 0-.535 1.291l-.079 2.3h-3.306l-.017-1.931a1.625 1.625 0 0 1 1.452-1.658Z"/><path fill="#fef2dd" d="M31.862 49.129a.92.92 0 0 0 .879.7l26.843.005v2.36H38.717a.964.964 0 1 0 .008 1.928h20.868v2.879l-20.977.013a.95.95 0 0 0-.861.918 1.02 1.02 0 0 0 .736 1.008q.116.364-.576.382l-15.659-.007c-.243-.264-.093-4.5-.052-5.192h7.99a.975.975 0 1 0-.009-1.944l-17.64.021-.258-.144s0-.676-.007-2.029l.257-.182 15.767-.034a.91.91 0 0 0 .871-.693l.137-.472a11 11 0 0 1 1.976-.07q.547-.093.572.543"/><path fill="#fee4c1" d="m38.488 58.944 21.114-.008-.025 2.385H22.132l-.059-6.922c0-.165.024-.238.128-.272l-.015 4.937 15.735.006Z"/><path fill="#3675ba" d="M7.182 61.273a6.51 6.51 0 0 1-3.162-5.82c.033-2.177 1.213-4.721 3.279-5.591l1.72.014a4.43 4.43 0 0 0-.707 2.335l-.007 6.572a4.64 4.64 0 0 0 .743 2.529 15 15 0 0 1-1.866-.038"/><path fill="#fee4c1" d="m12.535 49.855.008 2.354c-.45 0-.794.585-.788.954a.92.92 0 0 0 .79.959.36.36 0 0 0 .507.008.28.28 0 0 1 .137.267l-.043 6.9a2.476 2.476 0 0 1-2.892-2.386l-.012-6.582a2.435 2.435 0 0 1 2.294-2.474"/><path fill="#fa2b3a" d="m17.294 62.035-.258-.119.072-7.628.259-.153 2.815.008-.005 9.365-2.165-1.438a.84.84 0 0 0-.72-.03"/><path fill="#2b68b5" d="M7.299 49.862a1.2 1.2 0 0 1-.362.361 6.7 6.7 0 0 0-.009 10.683c.158.119.277.193.255.368A5.725 5.725 0 0 1 7.3 49.863"/><path fill="#e31f2d" d="m17.37 54.132-.075 7.9-2.208 1.468-.006-9.365Z"/><path fill="#f4e9d4" d="m13.051 54.13-.009 3.271a2.33 2.33 0 0 1-.454-1.225l-.044-2.053Z"/></g></svg>